<svg xmlns="http://www.w3.org/2000/svg" width="131.999" height="139.23" viewBox="0 0 131.999 139.23">
  <g id="Logovariante_1" data-name="Logovariante 1" transform="translate(66 69.615)">
    <g id="Gruppe_861" data-name="Gruppe 861" transform="translate(-66 -69.615)">
      <g id="Pfad_585" data-name="Pfad 585" transform="translate(-107.21 -87.047)" fill="#fff" stroke-miterlimit="10">
        <path d="M 181.8489227294922 165.0055084228516 L 164.5694885253906 165.0055084228516 C 163.2998657226562 165.0055084228516 162.2369842529297 164.0950012207031 162.0421752929688 162.8405151367188 L 156.9813995361328 130.2640686035156 C 156.8663635253906 129.5254516601562 157.0797424316406 128.7754058837891 157.5668487548828 128.20654296875 C 158.0539093017578 127.6388778686523 158.7615509033203 127.3135833740234 159.5087127685547 127.3135833740234 L 187.4112854003906 127.3135833740234 C 188.1672210693359 127.3135833740234 188.8798217773438 127.6447830200195 189.3663635253906 128.2222595214844 C 189.8525238037109 128.7983093261719 190.0590515136719 129.5561218261719 189.9326782226562 130.3009948730469 L 184.3701629638672 162.878173828125 C 184.1596374511719 164.11083984375 183.0993041992188 165.0055084228516 181.8489227294922 165.0055084228516 Z" stroke="none"/>
        <path d="M 159.5087127685547 127.9529724121094 C 158.9483184814453 127.9529724121094 158.4176025390625 128.1968994140625 158.0525207519531 128.6223907470703 C 157.6867828369141 129.0495147705078 157.5269165039062 129.6118774414062 157.6132049560547 130.1659240722656 L 162.6739959716797 162.7424011230469 C 162.8200988769531 163.6832580566406 163.617431640625 164.3661193847656 164.5694885253906 164.3661193847656 L 181.8489227294922 164.3661193847656 C 182.7866363525391 164.3661193847656 183.5820007324219 163.6950836181641 183.7398986816406 162.7705535888672 L 189.3022918701172 130.1940460205078 C 189.397216796875 129.6345672607422 189.2421875 129.0664825439453 188.8773956298828 128.6342468261719 C 188.5126800537109 128.2013702392578 187.9781036376953 127.9529724121094 187.4112854003906 127.9529724121094 L 159.5087127685547 127.9529724121094 M 159.5087127685547 126.6741943359375 L 187.4112854003906 126.6741943359375 C 188.356201171875 126.6741943359375 189.2470092773438 127.0882873535156 189.8553314208984 127.8102874755859 C 190.4627838134766 128.5300598144531 190.7209777832031 129.4771728515625 190.5630493164062 130.407958984375 L 185.0004272460938 162.9857788085938 C 184.7372741699219 164.5265960693359 183.4118804931641 165.6448974609375 181.8489227294922 165.6448974609375 L 164.5694885253906 165.6448974609375 C 162.9824676513672 165.6448974609375 161.6538696289062 164.5067443847656 161.4103698730469 162.9386138916016 L 156.3495941162109 130.3622283935547 C 156.205810546875 129.4390716552734 156.4724426269531 128.5016021728516 157.0811614990234 127.7906646728516 C 157.6902923583984 127.0807647705078 158.5747833251953 126.6741943359375 159.5087127685547 126.6741943359375 Z" stroke="none" fill="#22100e"/>
      </g>
      <path id="Pfad_586" data-name="Pfad 586" d="M83.308,126.053c-31.691,0-57.474-23.107-57.474-51.509S51.617,23.034,83.308,23.034s57.474,23.107,57.474,51.509S115,126.053,83.308,126.053Zm0-101.42c-30.81,0-55.875,22.39-55.875,49.911S52.5,124.454,83.308,124.454s55.876-22.39,55.876-49.911S114.118,24.632,83.308,24.632Z" transform="translate(-17.575 -15.67)" fill="#22100e"/>
      <g id="Gruppe_854" data-name="Gruppe 854" transform="translate(52.527)">
        <g id="Gruppe_853" data-name="Gruppe 853">
          <g id="Gruppe_851" data-name="Gruppe 851" transform="translate(13.277)">
            <path id="Pfad_587" data-name="Pfad 587" d="M211.39,4.531c-1.115,2.393,4.516,5.027,4.595,1.021.1-4.958-7.3-6.51-8.875-1.428C205.471,9.4,211.1,13.262,214.785,15.5c1.957,1.185,3.82,2.081,4.424,4.534a10.346,10.346,0,0,1-.287,5.285,5.741,5.741,0,0,1-4.108,3.91,6.371,6.371,0,0,1-5.6-1.239,4.168,4.168,0,0,1-1.1-4.664c.754-1.621,2.546-2.383,3.878-.8.331.393-.361-.689-.479-.829-1.234-1.467-2.97-1.587-4.03.273-.989,1.737-.313,3.6.752,5.1,1.434,2.017,3.162,3.426,5.769,3.448,4.781.039,6.426-4.509,6.058-8.62-.427-4.767-4.5-6.434-8.147-8.841-2.577-1.7-5.057-4.512-4.042-7.814A4.791,4.791,0,0,1,212.064,2c1.7-.128,3.309.835,3.134,2.823a1.671,1.671,0,0,1-.666,1.379c-.728.531-2.856.476-2.375-.557.122-.262-.83-.976-.766-1.111Z" transform="translate(-206.503 -0.675)" fill="#22100e"/>
            <path id="Pfad_588" data-name="Pfad 588" d="M213.4,30.156h-.064c-2.388-.019-4.3-1.158-6.027-3.582-1.405-1.975-1.671-3.856-.769-5.439a2.679,2.679,0,0,1,2.079-1.538,2.945,2.945,0,0,1,2.473,1.217c.007.009.735.917.623,1.227l-.063.174-.184.034a.406.406,0,0,1-.387-.194,1.786,1.786,0,0,0-1.611-.744,2.418,2.418,0,0,0-1.733,1.472,3.831,3.831,0,0,0,1.03,4.3,6.083,6.083,0,0,0,5.3,1.161,5.44,5.44,0,0,0,3.88-3.7,10.025,10.025,0,0,0,.279-5.107c-.516-2.1-2.01-2.986-3.74-4.015q-.267-.159-.538-.322c-2.638-1.6-9.647-5.843-7.815-11.74a4.629,4.629,0,0,1,5.32-3.289,4.789,4.789,0,0,1,4.18,4.818,2.18,2.18,0,0,1-1.293,2.241,3.393,3.393,0,0,1-3.392-1.042,2.09,2.09,0,0,1-.519-2.362l.58.27a.265.265,0,0,0,0-.223,2.8,2.8,0,0,0,.238.266c.353.369.687.718.524,1.068-.08.171-.024.216.02.253a2.1,2.1,0,0,0,1.877-.089,1.37,1.37,0,0,0,.536-1.149,2.154,2.154,0,0,0-.565-1.764,2.8,2.8,0,0,0-2.227-.712,4.47,4.47,0,0,0-3.907,3.014c-1.124,3.656,2.362,6.43,3.912,7.454.571.377,1.162.741,1.734,1.093,3.179,1.96,6.182,3.811,6.555,7.985a9.452,9.452,0,0,1-1.951,7.157A5.685,5.685,0,0,1,213.4,30.156Zm-3.025-1.447a5.7,5.7,0,0,0,2.966.807,5.065,5.065,0,0,0,3.953-1.6,8.816,8.816,0,0,0,1.784-6.667v-.008a11.03,11.03,0,0,1-.52,3.505,6.067,6.067,0,0,1-4.336,4.119A7.45,7.45,0,0,1,210.373,28.709Zm-1.561-8.482c-.046,0-.091,0-.137.006a2.119,2.119,0,0,0-1.582,1.217,3.45,3.45,0,0,0-.286,2.7,3.836,3.836,0,0,1,.349-1.643,3.053,3.053,0,0,1,2.229-1.836,2.128,2.128,0,0,1,.661.015A2.074,2.074,0,0,0,208.812,20.228ZM210.627.639a3.9,3.9,0,0,0-3.881,2.906,5.79,5.79,0,0,0,.006,3.583,5.378,5.378,0,0,1,.149-2.66A5.121,5.121,0,0,1,211.371,1a4.054,4.054,0,0,1,1.262.1,4.686,4.686,0,0,0-1.279-.4A4.55,4.55,0,0,0,210.627.639Zm1.348,5.475a2.547,2.547,0,0,0,2.139.414A1.665,1.665,0,0,0,215,4.871a4.2,4.2,0,0,0-.139-1.179,3.493,3.493,0,0,1-.01.482,1.981,1.981,0,0,1-.8,1.609A2.888,2.888,0,0,1,211.975,6.114ZM210.9,4.588a1.491,1.491,0,0,0,.2.628.967.967,0,0,1,.066-.306A2.327,2.327,0,0,0,210.9,4.588Z" transform="translate(-205.834 0)" fill="#22100e"/>
          </g>
          <g id="Gruppe_852" data-name="Gruppe 852" transform="translate(0 0.104)">
            <path id="Pfad_589" data-name="Pfad 589" d="M173.615,4.859c1.169,2.367-4.4,5.127-4.571,1.123-.207-4.954,7.149-6.67,8.841-1.625,1.756,5.237-3.781,9.224-7.419,11.54-1.93,1.229-3.773,2.166-4.321,4.632a10.347,10.347,0,0,0,.4,5.278,5.741,5.741,0,0,0,4.194,3.817,6.37,6.37,0,0,0,5.568-1.363,4.168,4.168,0,0,0,1-4.687c-.79-1.6-2.6-2.326-3.9-.712-.321.4.346-.7.46-.84,1.2-1.495,2.934-1.653,4.035.183,1.028,1.714.393,3.591-.638,5.111-1.389,2.048-3.085,3.5-5.691,3.575-4.779.145-6.525-4.364-6.249-8.482.32-4.776,4.355-6.533,7.947-9.02,2.539-1.757,4.956-4.623,3.866-7.9a4.791,4.791,0,0,0-4.26-3.144c-1.7-.09-3.289.909-3.07,2.892a1.671,1.671,0,0,0,.7,1.363c.739.514,2.866.412,2.362-.61-.128-.259.807-.994.741-1.128Z" transform="translate(-164.983 -1)" fill="#22100e"/>
            <path id="Pfad_590" data-name="Pfad 590" d="M170.672,30.539a5.642,5.642,0,0,1-4.23-1.715,9.451,9.451,0,0,1-2.11-7.112c.28-4.182,3.241-6.1,6.375-8.13.563-.365,1.146-.742,1.709-1.132,1.528-1.058,4.951-3.909,3.745-7.539a4.468,4.468,0,0,0-3.973-2.926,2.808,2.808,0,0,0-2.21.762,2.154,2.154,0,0,0-.525,1.776,1.369,1.369,0,0,0,.562,1.136,2.1,2.1,0,0,0,1.879.047c.043-.037.1-.084.014-.253-.171-.347.155-.7.5-1.08a2.8,2.8,0,0,0,.231-.271.262.262,0,0,0,.01.223l.573-.283a2.09,2.09,0,0,1-.466,2.373,3.4,3.4,0,0,1-3.368,1.117,2.18,2.18,0,0,1-1.343-2.212,4.79,4.79,0,0,1,4.072-4.91,4.631,4.631,0,0,1,5.392,3.17c1.964,5.854-4.949,10.255-7.551,11.911q-.267.17-.531.334c-1.707,1.067-3.181,1.989-3.65,4.1a10.018,10.018,0,0,0,.393,5.1,5.44,5.44,0,0,0,3.961,3.613,6.083,6.083,0,0,0,5.275-1.278,3.83,3.83,0,0,0,.934-4.318,2.419,2.419,0,0,0-1.766-1.433,1.785,1.785,0,0,0-1.593.78.4.4,0,0,1-.383.2l-.182-.028-.069-.174c-.119-.308.589-1.232.6-1.241a2.946,2.946,0,0,1,2.445-1.272,2.679,2.679,0,0,1,2.113,1.491c.937,1.562.713,3.449-.647,5.455a7.378,7.378,0,0,1-5.946,3.715Q170.79,30.539,170.672,30.539Zm-5.7-8.792v.008a8.816,8.816,0,0,0,1.932,6.626A5.076,5.076,0,0,0,170.89,29.9a5.7,5.7,0,0,0,2.947-.872,7.458,7.458,0,0,1-3.841.238,6.067,6.067,0,0,1-4.427-4.021A11.033,11.033,0,0,1,164.97,21.748Zm9.44-.789a2.165,2.165,0,0,1,.236.013,3.054,3.054,0,0,1,2.269,1.786,3.836,3.836,0,0,1,.386,1.634,3.453,3.453,0,0,0-.346-2.7,2.12,2.12,0,0,0-1.609-1.182,2,2,0,0,0-1.361.489A2.109,2.109,0,0,1,174.41,20.958ZM171.99,1.341c.076,0,.154,0,.231.006a5.121,5.121,0,0,1,4.546,3.363,5.386,5.386,0,0,1,.209,2.657,5.79,5.79,0,0,0-.074-3.582,3.97,3.97,0,0,0-4.669-2.745,4.7,4.7,0,0,0-1.27.433A3.981,3.981,0,0,1,171.99,1.341ZM168.8,4.113a4.21,4.21,0,0,0-.113,1.181,1.666,1.666,0,0,0,.919,1.637,2.55,2.55,0,0,0,2.129-.462,2.882,2.882,0,0,1-2.083-.285,1.982,1.982,0,0,1-.832-1.591A3.509,3.509,0,0,1,168.8,4.113Zm3.719,1.134a.952.952,0,0,1,.073.3,1.491,1.491,0,0,0,.187-.632A2.357,2.357,0,0,0,172.515,5.248Z" transform="translate(-164.303 -0.327)" fill="#22100e"/>
          </g>
        </g>
        <rect id="Rechteck_473" data-name="Rechteck 473" width="3.255" height="1.799" rx="0.257" transform="matrix(1, -0.011, 0.011, 1, 11.936, 23.728)" fill="#22100e"/>
        <rect id="Rechteck_474" data-name="Rechteck 474" width="3.953" height="2.011" rx="0.299" transform="matrix(1, -0.011, 0.011, 1, 11.507, 6.198)" fill="#22100e"/>
      </g>
      <g id="Gruppe_855" data-name="Gruppe 855" transform="translate(46.658 31.142)">
        <path id="Pfad_591" data-name="Pfad 591" d="M161.624,97.416,145.949,104.4H184.1l-14.73-6.987Z" transform="translate(-145.947 -97.415)" fill="#22100e"/>
        <path id="Pfad_592" data-name="Pfad 592" d="M184.093,104.4H145.944v0l15.675-6.988h7.744l14.731,6.988v0Zm-38.141,0h38.133l-14.724-6.984H161.62Z" transform="translate(-145.944 -97.412)" fill="#22100e"/>
      </g>
      <path id="Pfad_593" data-name="Pfad 593" d="M184.182,164.713H166.9a.64.64,0,0,1-.632-.541l-5.061-32.577a.639.639,0,0,1,.632-.738h27.9a.64.64,0,0,1,.63.747l-5.563,32.577A.639.639,0,0,1,184.182,164.713Zm-16.732-1.279h16.192l5.344-31.3h-26.4Z" transform="translate(-109.667 -89.023)" fill="#22100e"/>
      <g id="Gruppe_856" data-name="Gruppe 856" transform="translate(54.386 42.474)">
        <rect id="Rechteck_475" data-name="Rechteck 475" width="23.276" height="0.959" transform="translate(0 13.754)" fill="#22100e"/>
        <rect id="Rechteck_476" data-name="Rechteck 476" width="0.959" height="32.577" transform="translate(11.261)" fill="#22100e"/>
      </g>
      <path id="Pfad_594" data-name="Pfad 594" d="M203.58,83.977h-2.526a.5.5,0,0,0-.477.519l-.639,3.489a.5.5,0,0,0,.477.519h3.8a.5.5,0,0,0,.478-.519l-.64-3.489A.5.5,0,0,0,203.58,83.977Z" transform="translate(-136.018 -57.13)" fill="#22100e"/>
      <g id="Gruppe_858" data-name="Gruppe 858" transform="translate(17.969 103.032)">
        <g id="Gruppe_857" data-name="Gruppe 857" transform="translate(0 0)">
          <path id="Pfad_595" data-name="Pfad 595" d="M69.4,336.479l-7.247,8.736-1.056-.876a.422.422,0,0,1-.163-.268.372.372,0,0,1,.1-.292l3.115-3.755L60.8,337.245,57.436,341.3l-1.057-.876a.352.352,0,0,1-.064-.559l7.247-8.737,1.056.876a.419.419,0,0,1,.163.268.372.372,0,0,1-.1.292L61.751,336.1l3.351,2.78,3.18-3.834,1.056.876A.352.352,0,0,1,69.4,336.479Z" transform="translate(-56.205 -328.3)" fill="#22100e"/>
          <path id="Pfad_596" data-name="Pfad 596" d="M92.914,365.385q.222-.68.439-1.37l-3.328-1.79q-.534.636-1.047,1.3t-.994,1.312l-1.149-.618q-.328-.177-.113-.542a9.7,9.7,0,0,1,.608-.808q1.047-1.3,2.085-2.447t2-2.116q.965-.972,1.838-1.753t1.587-1.359l1.492.8a.465.465,0,0,1,.228.219.621.621,0,0,1,.021.319q-.1.93-.293,2.19t-.529,2.755q-.333,1.5-.8,3.156t-1.082,3.371l-1.268-.682a.383.383,0,0,1-.174-.536Q92.693,366.064,92.914,365.385Zm.12-6.553q-1.043,1.026-2.156,2.274l2.94,1.581q.427-1.617.709-3.052t.478-2.7Q94.076,357.805,93.034,358.831Z" transform="translate(-76.908 -344.675)" fill="#22100e"/>
          <path id="Pfad_597" data-name="Pfad 597" d="M129.289,377.628a3.74,3.74,0,0,1-3.154.058,6.126,6.126,0,0,1-1.533-.733,2.812,2.812,0,0,1-.949-1.066,3.21,3.21,0,0,1-.3-1.5,7,7,0,0,1,.409-2.061l2.4-7.2,1.3.433a.352.352,0,0,1,.263.5l-2.332,7.01a5.9,5.9,0,0,0-.26,1.074,2.2,2.2,0,0,0,.049.9,1.477,1.477,0,0,0,.453.7,2.747,2.747,0,0,0,.965.508,2.635,2.635,0,0,0,1.053.163,1.5,1.5,0,0,0,.774-.287,2.122,2.122,0,0,0,.576-.683,6.176,6.176,0,0,0,.447-1.048l2.45-7.364,1.3.433a.422.422,0,0,1,.25.19.374.374,0,0,1,.013.309l-2.273,6.833A4.958,4.958,0,0,1,129.289,377.628Z" transform="translate(-101.884 -351.426)" fill="#22100e"/>
          <path id="Pfad_598" data-name="Pfad 598" d="M166.695,376.319l-.177,1.052-4.779-.8-.6,3.559,3.96.665a.344.344,0,0,1,.32.449l-.179,1.069-4.344-.73-.62,3.693,4.579.769a.421.421,0,0,1,.276.149.373.373,0,0,1,.061.3l-.176,1.053-6.333-1.064a.352.352,0,0,1-.337-.451l1.88-11.2,6.149,1.032A.345.345,0,0,1,166.695,376.319Z" transform="translate(-125.686 -358.037)" fill="#22100e"/>
          <path id="Pfad_599" data-name="Pfad 599" d="M192.372,390.357l.259-11.145q.748-.118,1.682-.19t1.882-.05a4.121,4.121,0,0,1,2.926.958,3.587,3.587,0,0,1,.853,2.706,3.406,3.406,0,0,1-.632,2.053,3.184,3.184,0,0,1-1.576,1.1,10.97,10.97,0,0,1,.8,1.17q.4.67.747,1.373t.629,1.387q.28.684.438,1.213L198.9,390.9a.531.531,0,0,1-.345-.1.648.648,0,0,1-.171-.284,10.582,10.582,0,0,0-.393-.983q-.249-.556-.55-1.148t-.659-1.184a10.824,10.824,0,0,0-.738-1.076l-1.812-.042-.109,4.708-1.355-.031Q192.362,390.746,192.372,390.357Zm3.756-5.607a3.458,3.458,0,0,0,.824-.074,1.591,1.591,0,0,0,.668-.315,1.512,1.512,0,0,0,.448-.659,3.317,3.317,0,0,0,.178-1.089,3.617,3.617,0,0,0-.11-1.087,1.6,1.6,0,0,0-.382-.686,1.381,1.381,0,0,0-.661-.363,4.275,4.275,0,0,0-.946-.115q-.576-.014-1.034.01t-.747.067l-.1,4.268Z" transform="translate(-148.84 -360.846)" fill="#22100e"/>
          <path id="Pfad_600" data-name="Pfad 600" d="M226.711,389.107l-1.371-11.063q.723-.226,1.636-.434t1.72-.307a4.373,4.373,0,0,1,3.1.5,3.839,3.839,0,0,1,1.321,2.807,5.279,5.279,0,0,1-.042,1.8,3.053,3.053,0,0,1-.586,1.267,2.857,2.857,0,0,1-1.069.807,5.12,5.12,0,0,1-1.479.4,7.778,7.778,0,0,1-.932.056q-.495,0-1.047-.049l.544,4.388-1.345.167A.352.352,0,0,1,226.711,389.107Zm1.978-5.528a6.679,6.679,0,0,0,.881-.049,3.648,3.648,0,0,0,.928-.226,1.391,1.391,0,0,0,.616-.469,1.81,1.81,0,0,0,.3-.8,5.466,5.466,0,0,0-.31-2.436,1.61,1.61,0,0,0-.52-.679,1.515,1.515,0,0,0-.741-.266,4.311,4.311,0,0,0-.945.023q-.5.062-.946.151c-.294.059-.535.118-.721.175l.562,4.539C228.1,383.564,228.393,383.576,228.689,383.579Z" transform="translate(-171.269 -359.671)" fill="#22100e"/>
          <path id="Pfad_601" data-name="Pfad 601" d="M262.639,369.586l.284,1.029-4.671,1.289.96,3.479,3.871-1.068a.344.344,0,0,1,.48.271l.288,1.046L259.6,376.8l1,3.61,4.475-1.235a.421.421,0,0,1,.313.019.374.374,0,0,1,.183.248l.284,1.028-6.19,1.709a.352.352,0,0,1-.5-.268l-3.021-10.943,6.011-1.659A.344.344,0,0,1,262.639,369.586Z" transform="translate(-192.228 -354.263)" fill="#22100e"/>
          <path id="Pfad_602" data-name="Pfad 602" d="M288.8,372.006,284.14,361.88q.62-.435,1.427-.91t1.669-.871a4.117,4.117,0,0,1,3.05-.426,3.588,3.588,0,0,1,1.955,2.056,3.406,3.406,0,0,1,.334,2.122,3.181,3.181,0,0,1-.933,1.68,10.857,10.857,0,0,1,1.228.7q.654.426,1.276.9t1.174.97q.553.492.926.9l-1.339.617a.532.532,0,0,1-.354.06.648.648,0,0,1-.278-.18q-.316-.32-.785-.711t-1-.79q-.529-.4-1.113-.775a10.811,10.811,0,0,0-1.136-.643l-1.646.758,1.97,4.278-1.23.567A.352.352,0,0,1,288.8,372.006Zm.911-6.688a3.466,3.466,0,0,0,.707-.428,1.583,1.583,0,0,0,.462-.577,1.51,1.51,0,0,0,.113-.789,3.341,3.341,0,0,0-.319-1.056,3.648,3.648,0,0,0-.577-.928,1.606,1.606,0,0,0-.645-.449,1.382,1.382,0,0,0-.753-.035,4.3,4.3,0,0,0-.9.312q-.523.241-.925.463t-.642.389l1.787,3.877Z" transform="translate(-211.271 -347.624)" fill="#22100e"/>
          <path id="Pfad_603" data-name="Pfad 603" d="M318.55,359.728l-6.494-9.311,1.126-.785a.42.42,0,0,1,.3-.086.372.372,0,0,1,.255.173l5.641,8.087,3.419-2.384a.352.352,0,0,1,.557.087l.629.9-4.878,3.4A.352.352,0,0,1,318.55,359.728Z" transform="translate(-230.262 -340.828)" fill="#22100e"/>
          <path id="Pfad_604" data-name="Pfad 604" d="M338.039,322.417l.767.742-3.37,3.483,2.594,2.51,2.792-2.886a.344.344,0,0,1,.551-.009l.779.753-3.063,3.166,2.691,2.6,3.228-3.336a.42.42,0,0,1,.279-.143.374.374,0,0,1,.284.121l.767.742-4.465,4.615a.353.353,0,0,1-.563.021l-8.159-7.894,4.336-4.481A.344.344,0,0,1,338.039,322.417Z" transform="translate(-244.614 -322.283)" fill="#22100e"/>
        </g>
      </g>
      <g id="Gruppe_860" data-name="Gruppe 860" transform="translate(3.696 95.109)">
        <g id="Gruppe_859" data-name="Gruppe 859" transform="translate(4.88)">
          <path id="Pfad_605" data-name="Pfad 605" d="M85.915,341.62a93.872,93.872,0,0,1-27.79-4.223,78.374,78.374,0,0,1-31.1-17.848.639.639,0,0,1,0-.921A206.2,206.2,0,0,0,43.351,301.5a.639.639,0,0,1,.929-.061c11.28,10.5,26.415,15.823,42.613,14.993A61.516,61.516,0,0,0,128.228,297.7a.639.639,0,0,1,.456-.2.631.631,0,0,1,.461.187l1.246,1.245c4.663,4.663,9.485,9.485,14.54,13.931a.639.639,0,0,1,.105.842c-10.619,15.5-28.375,25.254-50,27.456A90.108,90.108,0,0,1,85.915,341.62ZM28.388,319.087a77.389,77.389,0,0,0,30.117,17.089,92.083,92.083,0,0,0,36.4,3.712c21.023-2.141,38.311-11.524,48.75-26.442-4.929-4.367-9.626-9.064-14.173-13.611l-.783-.782a62.866,62.866,0,0,1-41.746,18.658c-16.312.833-31.57-4.446-43.051-14.876A207.033,207.033,0,0,1,28.388,319.087Z" transform="translate(-26.825 -297.5)" fill="#22100e"/>
        </g>
        <path id="Pfad_606" data-name="Pfad 606" d="M14.241,343.953c-.649,1.178.6,1.981,1.736,1.765a3.582,3.582,0,0,0,1.682-.987c1.65-1.63.044-4.9-2.309-4.41a5.653,5.653,0,0,0-3.512,3.065,3.555,3.555,0,0,0,.9,4.087c1.187.924,2.77.758,4.166.6l1.342-1.032a7.407,7.407,0,0,0-4.082,2.388c-.883,1.238-1.462,3.618.319,4.367,1.092.459,2.065-.159,2.908-.814a3.055,3.055,0,0,0,1.106-1.207,1.276,1.276,0,0,0-1.747-1.656c-.474.2-1.028.9-1.342,1.032,1.119-.476,2.486,1.115,1.646,1.736-.421.311-1.416-.207-1.72-.489a2.122,2.122,0,0,1-.6-1.805,3.446,3.446,0,0,1,.674-1.906,3.276,3.276,0,0,1,1.492-.613c.428-.118,1.111-1.006,1.342-1.032-1.375.154-2.921.291-4.093-.609a3.472,3.472,0,0,1-1.038-3.678c.214-.771.447-1.375,1.266-1.412a2.223,2.223,0,0,1,1.651.636,2.761,2.761,0,0,1,.4,3.564l1.365-1c-.974.3-3-.053-2.173-1.561-.14.255-1.147.536-1.387.972Z" transform="translate(-11.56 -326.598)" fill="#22100e"/>
        <path id="Pfad_607" data-name="Pfad 607" d="M393.9,329.767c.352.639-.177.948-.78.552-.454-.3-.5-1.154-.477-1.633.033-.727.2-1.359.746-1.535a2.112,2.112,0,0,1,1.813.5,3.87,3.87,0,0,1,1.367,3.124c-.029.864-.259,1.824-1.18,2.058a7.769,7.769,0,0,1-2.717-.012c-.418-.046-1.169,1.107-1.415,1.039,1.337.368,2.462.724,3.084,2.051a4.539,4.539,0,0,1,.461,1.5c.039.449-.253.936-.22,1.317q-.38.516.335-.146a2.054,2.054,0,0,1-.616.115,2.816,2.816,0,0,1-.849-.158,1.561,1.561,0,0,1-.7-2.466l-1.014.8a1.017,1.017,0,0,1,1.016.064c.347.148,1.234-1.116,1.415-1.039-1.006-.428-2.56.535-3.055,1.478-.872,1.664,1.257,2.7,2.564,2.2a4.612,4.612,0,0,0,2.4-2.038,3.094,3.094,0,0,0-.137-2.254c-.608-1.591-1.717-2.036-3.264-2.463l-1.415,1.039c2.3.257,4.485-.173,6-2.075,1.775-2.225-.162-6.933-3.286-5.437-1.456.7-3.916,2.989-2.471,4.78,1.083,1.343,4.7-.788,3.813-2.4-.014-.025-1.5.882-1.415,1.039Z" transform="translate(-269.637 -316.929)" fill="#22100e"/>
      </g>
      <rect id="Rechteck_477" data-name="Rechteck 477" width="2.879" height="5.265" transform="matrix(0.815, -0.58, 0.58, 0.815, 96.87, 100.806)" fill="#22100e"/>
      <rect id="Rechteck_478" data-name="Rechteck 478" width="2.879" height="5.265" transform="translate(37.685 108.316) rotate(-150)" fill="#22100e"/>
      <path id="Pfad_608" data-name="Pfad 608" d="M183.219,119.5a.64.64,0,0,0-.481-.218H144.592a.639.639,0,0,0-.634.724l1.918,14.345a.639.639,0,0,0,.634.555h5.15a.639.639,0,0,0,.632-.738l-1.439-9.266h26.4l-1.583,9.262a.639.639,0,0,0,.63.747h4.52a.639.639,0,0,0,.634-.555L183.371,120A.638.638,0,0,0,183.219,119.5Zm-2.4,14.772H176.3l1.71-10.01h-27.9l1.554,10h-5.15l-1.918-14.345h38.146Z" transform="translate(-97.932 -81.145)" fill="#22100e"/>
      <path id="Pfad_609" data-name="Pfad 609" d="M56.241,64.81c.311-.136.574-.351,1.124-.642a1.59,1.59,0,0,1,2.424.7c-.245.077-.642.211-.642.211a2.01,2.01,0,0,1,.7,1.542,6.926,6.926,0,0,1-.438,1.774s-.717-1.276-1.015-.8.094,1.809-.919,3.184l-.42-.509a2.06,2.06,0,0,1-.952,1.272,4.073,4.073,0,0,0-1.223,1.121,7.325,7.325,0,0,1-.762-1.8c-.113-.715-.333-1.211-.684-1.167s-.548,1.419-1.814,1.976c-.121-.382-.052-.618-.931-.463s-2.422.28-2.777.791a8.922,8.922,0,0,1-.261-2.1c.042-1.026.5-1.97.381-2.325s-.657-.364-.657-.364.64-.585.866-.77.486-.475.411-.761-.936-.583-1.315-.715c.176-.429.228-.613.228-.613a3.907,3.907,0,0,0-1.337-.382,3.624,3.624,0,0,1,3.2-2.312,5.259,5.259,0,0,0-.186-.613,2.863,2.863,0,0,1,1.334.022c.777.172,1.028.2,1.067.025s.186-.6-.418-1.558a6.144,6.144,0,0,1,2.416.227,3.662,3.662,0,0,1,2.01,1.309c.465-.57.609-.721.609-.721a2.734,2.734,0,0,1-.1,2.852,8.429,8.429,0,0,0-.616,1.006,3.848,3.848,0,0,0-1.975-2.407,4.373,4.373,0,0,1,1.462,2.5,9.981,9.981,0,0,0-5.329-.978,16.089,16.089,0,0,1,5.276,1.433,14.25,14.25,0,0,0-4.611,3.846c3.189-3,4.984-3.385,4.984-3.385.905,1.249.091,4.79.091,4.79a7.1,7.1,0,0,0,.5-4.717,6.3,6.3,0,0,1,2.16.607A3.219,3.219,0,0,0,57,65.144C56.88,65.088,56.241,64.81,56.241,64.81Z" transform="translate(-31.449 -40.473)" fill="#0b2b13"/>
      <path id="Pfad_610" data-name="Pfad 610" d="M132.658,26.578c.311-.136.574-.351,1.124-.642a1.59,1.59,0,0,1,2.424.7c-.246.077-.642.211-.642.211a2.011,2.011,0,0,1,.7,1.542,6.939,6.939,0,0,1-.438,1.774s-.716-1.276-1.015-.8.093,1.809-.919,3.184l-.42-.509a2.06,2.06,0,0,1-.953,1.272,4.073,4.073,0,0,0-1.223,1.121,7.316,7.316,0,0,1-.762-1.8c-.113-.715-.334-1.211-.684-1.167s-.548,1.419-1.814,1.976c-.121-.382-.052-.618-.931-.463s-2.423.28-2.777.791a8.92,8.92,0,0,1-.261-2.1c.041-1.026.5-1.97.381-2.325s-.657-.364-.657-.364.64-.585.866-.77.486-.475.411-.761-.936-.583-1.315-.715c.175-.429.228-.613.228-.613a3.907,3.907,0,0,0-1.337-.382,3.625,3.625,0,0,1,3.2-2.312,5.316,5.316,0,0,0-.186-.613,2.863,2.863,0,0,1,1.334.022c.776.172,1.028.2,1.067.025s.186-.6-.418-1.558a6.145,6.145,0,0,1,2.416.227,3.663,3.663,0,0,1,2.01,1.309c.465-.57.609-.721.609-.721a2.734,2.734,0,0,1-.1,2.852,8.442,8.442,0,0,0-.616,1.007,3.847,3.847,0,0,0-1.975-2.407,4.373,4.373,0,0,1,1.462,2.5,9.98,9.98,0,0,0-5.329-.978,16.083,16.083,0,0,1,5.275,1.433,14.247,14.247,0,0,0-4.611,3.846c3.189-3,4.984-3.385,4.984-3.385.905,1.249.091,4.79.091,4.79a7.1,7.1,0,0,0,.5-4.717,6.3,6.3,0,0,1,2.16.607,3.216,3.216,0,0,0-1.107-.742C133.3,26.856,132.658,26.578,132.658,26.578Z" transform="translate(-83.435 -14.464)" fill="#0b2b13"/>
      <path id="Pfad_611" data-name="Pfad 611" d="M30.094,93.852c.321-.843.592-3.022,3.537-3.013a9.54,9.54,0,0,0-.383,1.421A2.453,2.453,0,0,1,36.1,93.411c1.2,1.8,1.183,2.422,1.446,2.557-.688.008-2.3.232-2.233.823.034.6,1.447,2.653,1.294,6.246-.429-.243-.722-.542-1.228-.275s-.326,1.559-.947,2.68a5.564,5.564,0,0,1-1.248,1.61S32.233,103.594,31,104.2c-.863.395.126,2.668-1.951,3.9,0,0-.386-1.316-1.1-1.047s-1.094,1.856-4.852,2.93c0-1.541.074-4.514-1.919-4.285,0,0,1.03-2.6.462-2.963a5.014,5.014,0,0,0-4.029.21,6.505,6.505,0,0,1,.523-2.5,9.79,9.79,0,0,0,.649-2.222c.009-.454-.672-1.052-.672-1.052a3.915,3.915,0,0,1,2.03-1.8c1.561-.705,1.363-1.171,1.348-1.239-.015-.11-.406-.67-1.591-.794,0,0,.345-2.37,4.627-2.074.021-.551.055-1.239.055-1.239A4.523,4.523,0,0,1,27.1,91.309a10.164,10.164,0,0,1,1.486,3.608,8.172,8.172,0,0,0-3.4-1.26,7.167,7.167,0,0,1,3.065,2.153A15.785,15.785,0,0,0,21.146,99.5c.6-.3,4.864-2.531,7.111-2.824a21.273,21.273,0,0,1-2.222,8.218,21.4,21.4,0,0,0,3.209-7.909,10.07,10.07,0,0,1,3.595,5.48,11.149,11.149,0,0,0-3-6.24,11.622,11.622,0,0,1,3.1-1.273,18.292,18.292,0,0,0-3.5.349A5.18,5.18,0,0,0,30.094,93.852Z" transform="translate(-11.981 -61.249)" fill="#0b2b13"/>
      <path id="Pfad_612" data-name="Pfad 612" d="M9.384,190.112c-.094-.9-.835-2.965,1.8-4.286a9.554,9.554,0,0,0,.3,1.442,2.454,2.454,0,0,1,3.06-.257c1.887,1.066,2.149,1.628,2.444,1.629-.611.317-1.943,1.243-1.622,1.742.3.524,2.488,1.715,3.973,4.989-.493-.023-.888-.158-1.22.309s.412,1.538.364,2.819a5.56,5.56,0,0,1-.387,2s-2.4-2.657-3.231-1.561c-.591.742,1.316,2.324.02,4.363,0,0-.939-1-1.453-.439s-.138,2.15-3.007,4.8c-.7-1.373-1.972-4.061-3.646-2.958,0,0-.253-2.783-.925-2.853a5.013,5.013,0,0,0-3.5,2.006,6.5,6.5,0,0,1-.66-2.463,9.8,9.8,0,0,0-.424-2.276c-.2-.409-1.074-.635-1.074-.635a3.913,3.913,0,0,1,1-2.52c1.074-1.334.688-1.66.644-1.715-.063-.091-.665-.414-1.778.01,0,0-.762-2.271,3.193-3.939-.229-.5-.51-1.13-.51-1.13a4.525,4.525,0,0,1,2.826,0,10.168,10.168,0,0,1,2.955,2.549,8.182,8.182,0,0,0-3.606.411,7.165,7.165,0,0,1,3.707.539,15.783,15.783,0,0,0-4.676,6.5c.4-.532,3.2-4.454,5.071-5.73a21.272,21.272,0,0,1,1.727,8.337,21.389,21.389,0,0,0-.706-8.506,10.071,10.071,0,0,1,5.681,3.268,11.151,11.151,0,0,0-5.494-4.215,11.631,11.631,0,0,1,2.194-2.536,18.334,18.334,0,0,0-2.97,1.893A5.174,5.174,0,0,0,9.384,190.112Z" transform="translate(0 -126.419)" fill="#0b2b13"/>
      <path id="Pfad_613" data-name="Pfad 613" d="M83.634,51.3a3.7,3.7,0,0,1,2.015-2.352,2.5,2.5,0,0,1,.1-.746A2.533,2.533,0,0,1,89.4,46.676a4.078,4.078,0,0,1,1.874-.982h0a4.044,4.044,0,0,1,1.7-.018,6.429,6.429,0,0,0,.106-4.039c-.679-1.784-1.329-1.548-1-2.066a1.09,1.09,0,0,1,.873-.486,5.383,5.383,0,0,0-4.434-1.581,12.586,12.586,0,0,0-3.426,1.228,10.062,10.062,0,0,1,5.863,3.818c-.939-.744-4.111-2.78-5.955-2.958a25.59,25.59,0,0,0,.222,9.135,21.9,21.9,0,0,1-1.271-8.75c-1.317,1.267-3.715,3.681-5.663,10.034.083-1.449,1.778-8.03,5.124-10.928a17.486,17.486,0,0,0-7.049,2.581,13.225,13.225,0,0,1,7.053-3.444,9.4,9.4,0,0,0-2.817-3.16,7.061,7.061,0,0,1,3.829,3.1,5.092,5.092,0,0,0,.9-2.5,3.151,3.151,0,0,0-1.9-2.81,2.422,2.422,0,0,1-.372.933,6.013,6.013,0,0,0-4.938.226,12.2,12.2,0,0,1,.919,1.724s-3.687-.2-5.3,2.214a5.474,5.474,0,0,1,1.173.467,7.058,7.058,0,0,0-2.945,7.164c.58-.6,3.051-2.157,3.366-1.241s-1.394,1.563-1.1,4a8.96,8.96,0,0,1,1.251-.582s-.593,2.419,2.028,5.995a31.545,31.545,0,0,1,2.554-2.071l.433,1.006s.95-2,2.016-1.884a1.459,1.459,0,0,1,1.048.8Q83.592,51.449,83.634,51.3Z" transform="translate(-48.872 -22.349)" fill="#0b2b13"/>
      <path id="Pfad_614" data-name="Pfad 614" d="M42.763,247.339a3.706,3.706,0,0,1-.807-2.99,2.5,2.5,0,0,1-.562-.5,2.532,2.532,0,0,1,.8-3.881,4.078,4.078,0,0,1,.245-2.1h0a4.051,4.051,0,0,1,.942-1.413A6.432,6.432,0,0,0,40.1,234.09c-1.856-.444-2.028.225-2.269-.339a1.09,1.09,0,0,1,.09-.995,5.384,5.384,0,0,0-3.805,2.772,12.576,12.576,0,0,0-.917,3.522,10.061,10.061,0,0,1,6.459-2.691c-1.144.356-4.613,1.83-5.8,3.252a25.594,25.594,0,0,0,7.671,4.965,21.9,21.9,0,0,1-7.944-3.882c.3,1.8.947,5.144,5.1,10.333-1.15-.885-5.632-5.994-6.139-10.391a17.486,17.486,0,0,0-1.84,7.278,13.226,13.226,0,0,1,1.13-7.767,9.407,9.407,0,0,0-4.2.547,7.061,7.061,0,0,1,4.719-1.417,5.093,5.093,0,0,0-1.559-2.149,3.152,3.152,0,0,0-3.393-.014,2.425,2.425,0,0,1,.561.833,6.012,6.012,0,0,0-2.6,4.206,12.16,12.16,0,0,1,1.942.213s-2.245,2.932-1.157,5.623a5.478,5.478,0,0,1,1.046-.706,7.058,7.058,0,0,0,4.258,6.471c-.171-.818-.062-3.736.872-3.48s.505,2.033,2.683,3.159a8.975,8.975,0,0,1,.224-1.362s1.664,1.853,6.1,1.7a31.564,31.564,0,0,1-.271-3.276l1.075.209s-1.115-1.912-.419-2.727a1.46,1.46,0,0,1,1.25-.416Q42.862,247.458,42.763,247.339Z" transform="translate(-17.259 -158.346)" fill="#0b2b13"/>
      <path id="Pfad_615" data-name="Pfad 615" d="M13.862,155.9a3.453,3.453,0,0,1,1-2.706,2.327,2.327,0,0,1-.157-.683,2.364,2.364,0,0,1,2.174-2.534,2.333,2.333,0,0,1,.528.019,3.8,3.8,0,0,1,1.321-1.463h0a3.778,3.778,0,0,1,1.478-.564A5.99,5.99,0,0,0,19,144.4c-1.169-1.34-1.661-.925-1.54-1.483a1.015,1.015,0,0,1,.606-.707,5.016,5.016,0,0,0-4.386.049,11.714,11.714,0,0,0-2.6,2.179,9.374,9.374,0,0,1,6.357,1.446c-1.061-.348-4.491-1.1-6.159-.664a23.839,23.839,0,0,0,3.141,7.913,20.406,20.406,0,0,1-3.934-7.239c-.742,1.532-2.06,4.417-1.713,10.6-.395-1.293-1.037-7.593.953-11.205A16.293,16.293,0,0,0,4.4,149.82a12.321,12.321,0,0,1,5.054-5.286,8.766,8.766,0,0,0-3.482-1.853,6.577,6.577,0,0,1,4.348,1.474,4.748,4.748,0,0,0-.023-2.473,2.936,2.936,0,0,0-2.568-1.843,2.256,2.256,0,0,1-.024.935,5.6,5.6,0,0,0-4.243,1.791,11.345,11.345,0,0,1,1.36,1.211S1.532,144.788.9,147.419a5.108,5.108,0,0,1,1.176.03,6.577,6.577,0,0,0-.263,7.212c.312-.714,1.971-2.87,2.542-2.171s-.714,1.816.33,3.848a8.346,8.346,0,0,1,.906-.913s.262,2.306,3.707,4.586a29.386,29.386,0,0,1,1.564-2.634l.7.74s.186-2.054,1.154-2.3a1.359,1.359,0,0,1,1.173.36C13.881,156.086,13.869,155.991,13.862,155.9Z" transform="translate(-0.582 -95.133)" fill="#0b2b13"/>
      <path id="Pfad_616" data-name="Pfad 616" d="M325.928,61.547c-.311-.136-.574-.351-1.124-.642a1.591,1.591,0,0,0-2.424.7c.246.077.642.211.642.211a2.01,2.01,0,0,0-.7,1.542,6.933,6.933,0,0,0,.438,1.774s.716-1.276,1.015-.8-.093,1.809.919,3.184l.42-.509a2.06,2.06,0,0,0,.953,1.272,4.072,4.072,0,0,1,1.223,1.121,7.322,7.322,0,0,0,.762-1.8c.113-.715.334-1.211.684-1.167s.548,1.419,1.814,1.976c.121-.382.052-.618.931-.463s2.423.28,2.777.791a8.923,8.923,0,0,0,.261-2.1c-.041-1.026-.5-1.97-.381-2.325s.657-.364.657-.364-.64-.585-.866-.77-.486-.475-.411-.761.936-.583,1.315-.715c-.175-.429-.228-.613-.228-.613a3.906,3.906,0,0,1,1.337-.383,3.625,3.625,0,0,0-3.2-2.312,5.353,5.353,0,0,1,.186-.613,2.866,2.866,0,0,0-1.334.022c-.777.172-1.028.2-1.067.025s-.187-.6.417-1.558a6.14,6.14,0,0,0-2.415.227,3.662,3.662,0,0,0-2.01,1.309c-.465-.57-.609-.721-.609-.721a2.734,2.734,0,0,0,.1,2.852,8.433,8.433,0,0,1,.616,1.007A3.848,3.848,0,0,1,328.6,58.53a4.374,4.374,0,0,0-1.462,2.5,9.979,9.979,0,0,1,5.329-.977,16.077,16.077,0,0,0-5.275,1.433,14.249,14.249,0,0,1,4.611,3.846c-3.189-3-4.984-3.385-4.984-3.385-.905,1.249-.091,4.79-.091,4.79a7.1,7.1,0,0,1-.5-4.717,6.3,6.3,0,0,0-2.16.607,3.216,3.216,0,0,1,1.107-.742C325.29,61.825,325.928,61.547,325.928,61.547Z" transform="translate(-219.275 -38.254)" fill="#0b2b13"/>
      <path id="Pfad_617" data-name="Pfad 617" d="M249.512,23.315c-.311-.136-.574-.351-1.124-.642a1.591,1.591,0,0,0-2.424.7c.245.077.642.211.642.211a2.009,2.009,0,0,0-.7,1.542,6.926,6.926,0,0,0,.438,1.774s.717-1.276,1.015-.8-.094,1.809.919,3.184l.42-.509a2.06,2.06,0,0,0,.952,1.272,4.077,4.077,0,0,1,1.223,1.121,7.33,7.33,0,0,0,.762-1.8c.113-.715.333-1.211.684-1.167s.548,1.419,1.814,1.976c.122-.382.052-.618.931-.463s2.422.28,2.777.791a8.922,8.922,0,0,0,.261-2.1c-.042-1.026-.5-1.97-.381-2.325s.657-.364.657-.364-.64-.585-.866-.77-.486-.475-.411-.761.936-.583,1.315-.715c-.176-.429-.228-.613-.228-.613a3.906,3.906,0,0,1,1.337-.383,3.625,3.625,0,0,0-3.2-2.312,5.232,5.232,0,0,1,.186-.613,2.863,2.863,0,0,0-1.334.022c-.777.172-1.028.2-1.067.025s-.186-.6.418-1.558a6.141,6.141,0,0,0-2.416.227,3.66,3.66,0,0,0-2.01,1.309c-.465-.57-.609-.721-.609-.721a2.734,2.734,0,0,0,.1,2.852,8.4,8.4,0,0,1,.616,1.007,3.847,3.847,0,0,1,1.975-2.407,4.373,4.373,0,0,0-1.462,2.5,9.977,9.977,0,0,1,5.329-.978,16.081,16.081,0,0,0-5.275,1.433,14.248,14.248,0,0,1,4.611,3.846c-3.189-3-4.984-3.385-4.984-3.385-.905,1.248-.091,4.79-.091,4.79a7.1,7.1,0,0,1-.5-4.717,6.3,6.3,0,0,0-2.16.607,3.217,3.217,0,0,1,1.106-.742C248.874,23.593,249.512,23.315,249.512,23.315Z" transform="translate(-167.288 -12.244)" fill="#0b2b13"/>
      <path id="Pfad_618" data-name="Pfad 618" d="M338.659,90.589c-.321-.843-.593-3.022-3.537-3.014A9.559,9.559,0,0,1,335.5,89a2.453,2.453,0,0,0-2.847,1.152c-1.2,1.8-1.183,2.422-1.446,2.557.688.008,2.3.232,2.233.823-.034.6-1.447,2.653-1.294,6.246.429-.243.721-.542,1.227-.275s.327,1.558.947,2.68a5.562,5.562,0,0,0,1.248,1.61s.947-3.457,2.178-2.851c.862.395-.126,2.668,1.951,3.9,0,0,.386-1.316,1.1-1.047s1.094,1.856,4.852,2.93c0-1.541-.073-4.514,1.919-4.285,0,0-1.031-2.6-.462-2.963a5.013,5.013,0,0,1,4.029.21,6.509,6.509,0,0,0-.522-2.5,9.8,9.8,0,0,1-.65-2.223c-.009-.454.672-1.052.672-1.052a3.914,3.914,0,0,0-2.03-1.8c-1.56-.705-1.363-1.171-1.348-1.239.015-.11.406-.67,1.591-.794,0,0-.345-2.37-4.627-2.074-.021-.551-.055-1.239-.055-1.239a4.527,4.527,0,0,0-2.521,1.278,10.17,10.17,0,0,0-1.486,3.608,8.178,8.178,0,0,1,3.4-1.26,7.16,7.16,0,0,0-3.065,2.153,15.785,15.785,0,0,1,7.106,3.691c-.6-.3-4.864-2.531-7.111-2.825a21.264,21.264,0,0,0,2.221,8.218,21.392,21.392,0,0,1-3.209-7.909,10.071,10.071,0,0,0-3.6,5.48,11.152,11.152,0,0,1,3-6.24,11.62,11.62,0,0,0-3.1-1.273,18.323,18.323,0,0,1,3.5.349A5.17,5.17,0,0,1,338.659,90.589Z" transform="translate(-225.325 -59.029)" fill="#0b2b13"/>
      <path id="Pfad_619" data-name="Pfad 619" d="M360.629,186.849c.094-.9.835-2.964-1.8-4.286a9.549,9.549,0,0,1-.3,1.441,2.453,2.453,0,0,0-3.06-.257c-1.887,1.066-2.148,1.628-2.444,1.629.61.317,1.943,1.243,1.622,1.742-.3.524-2.488,1.715-3.974,4.989.493-.023.889-.159,1.22.308s-.412,1.538-.364,2.819a5.556,5.556,0,0,0,.387,2s2.4-2.657,3.23-1.561c.591.742-1.316,2.324-.02,4.363,0,0,.939-1,1.453-.439s.138,2.15,3.007,4.8c.7-1.373,1.971-4.061,3.646-2.957,0,0,.253-2.784.925-2.853a5.011,5.011,0,0,1,3.5,2.005,6.5,6.5,0,0,0,.661-2.463,9.78,9.78,0,0,1,.423-2.276c.2-.409,1.074-.635,1.074-.635a3.913,3.913,0,0,0-1-2.52c-1.075-1.334-.688-1.66-.644-1.715.063-.091.665-.414,1.778.01,0,0,.762-2.271-3.193-3.939.23-.5.51-1.13.51-1.13a4.525,4.525,0,0,0-2.826,0,10.168,10.168,0,0,0-2.955,2.549,8.173,8.173,0,0,1,3.605.411,7.165,7.165,0,0,0-3.707.538,15.789,15.789,0,0,1,4.676,6.5c-.4-.532-3.2-4.454-5.071-5.73a21.27,21.27,0,0,0-1.727,8.336,21.4,21.4,0,0,1,.706-8.505,10.069,10.069,0,0,0-5.681,3.268,11.151,11.151,0,0,1,5.494-4.215,11.623,11.623,0,0,0-2.194-2.536,18.315,18.315,0,0,1,2.97,1.893A5.186,5.186,0,0,1,360.629,186.849Z" transform="translate(-238.568 -124.199)" fill="#0b2b13"/>
      <path id="Pfad_620" data-name="Pfad 620" d="M281.71,48.038a3.707,3.707,0,0,0-2.015-2.352,2.5,2.5,0,0,0-.1-.746,2.537,2.537,0,0,0-3.131-1.744,2.508,2.508,0,0,0-.525.216,4.077,4.077,0,0,0-1.874-.982h0a4.051,4.051,0,0,0-1.7-.018,6.431,6.431,0,0,1-.105-4.039c.679-1.784,1.329-1.548,1-2.065a1.09,1.09,0,0,0-.873-.486,5.383,5.383,0,0,1,4.434-1.581,12.582,12.582,0,0,1,3.426,1.228,10.062,10.062,0,0,0-5.863,3.819c.939-.745,4.111-2.78,5.955-2.958a25.59,25.59,0,0,1-.222,9.135,21.9,21.9,0,0,0,1.27-8.75c1.317,1.267,3.715,3.681,5.663,10.034-.083-1.449-1.777-8.03-5.124-10.928a17.487,17.487,0,0,1,7.049,2.581,13.223,13.223,0,0,0-7.053-3.444,9.4,9.4,0,0,1,2.817-3.16,7.059,7.059,0,0,0-3.83,3.1,5.1,5.1,0,0,1-.9-2.5,3.151,3.151,0,0,1,1.9-2.81,2.419,2.419,0,0,0,.371.933,6.013,6.013,0,0,1,4.938.226,12.158,12.158,0,0,0-.919,1.724s3.687-.2,5.3,2.214a5.462,5.462,0,0,0-1.173.467,7.057,7.057,0,0,1,2.945,7.164c-.58-.6-3.051-2.157-3.366-1.241s1.394,1.563,1.1,4a8.983,8.983,0,0,0-1.251-.582s.593,2.419-2.028,5.995a31.556,31.556,0,0,0-2.554-2.071l-.433,1.006s-.95-2-2.016-1.884a1.461,1.461,0,0,0-1.048.8Q281.752,48.186,281.71,48.038Z" transform="translate(-185.026 -20.13)" fill="#0b2b13"/>
      <path id="Pfad_621" data-name="Pfad 621" d="M330.073,244.077a3.706,3.706,0,0,0,.807-2.99,2.491,2.491,0,0,0,.562-.5,2.533,2.533,0,0,0-.8-3.881,4.082,4.082,0,0,0-.245-2.1h0a4.045,4.045,0,0,0-.942-1.413,6.431,6.431,0,0,1,3.276-2.364c1.856-.444,2.028.225,2.27-.339a1.09,1.09,0,0,0-.09-.995,5.383,5.383,0,0,1,3.8,2.772,12.573,12.573,0,0,1,.917,3.522,10.061,10.061,0,0,0-6.458-2.691c1.144.356,4.613,1.83,5.8,3.252a25.586,25.586,0,0,1-7.671,4.965,21.9,21.9,0,0,0,7.944-3.882c-.3,1.8-.947,5.144-5.1,10.333,1.15-.885,5.632-5.994,6.139-10.392a17.485,17.485,0,0,1,1.841,7.277,13.225,13.225,0,0,0-1.13-7.767,9.408,9.408,0,0,1,4.2.546,7.06,7.06,0,0,0-4.719-1.416,5.1,5.1,0,0,1,1.559-2.149,3.15,3.15,0,0,1,3.393-.014,2.421,2.421,0,0,0-.561.832,6.013,6.013,0,0,1,2.6,4.206,12.18,12.18,0,0,0-1.942.213s2.245,2.931,1.157,5.623a5.477,5.477,0,0,0-1.047-.705,7.058,7.058,0,0,1-4.258,6.471c.171-.819.062-3.736-.872-3.48s-.505,2.033-2.683,3.159a8.922,8.922,0,0,0-.224-1.362s-1.664,1.853-6.1,1.7a31.525,31.525,0,0,0,.271-3.277l-1.075.209s1.116-1.912.42-2.727a1.461,1.461,0,0,0-1.25-.416C329.938,244.231,330.007,244.155,330.073,244.077Z" transform="translate(-224.13 -156.126)" fill="#0b2b13"/>
      <path id="Pfad_622" data-name="Pfad 622" d="M356.109,152.633a3.452,3.452,0,0,0-1-2.706,2.322,2.322,0,0,0,.157-.683,2.364,2.364,0,0,0-2.174-2.534,2.335,2.335,0,0,0-.529.02,3.8,3.8,0,0,0-1.321-1.463h0a3.766,3.766,0,0,0-1.478-.564,5.992,5.992,0,0,1,1.211-3.564c1.169-1.34,1.661-.924,1.54-1.483a1.015,1.015,0,0,0-.606-.707,5.015,5.015,0,0,1,4.386.049,11.723,11.723,0,0,1,2.6,2.179,9.373,9.373,0,0,0-6.357,1.446c1.06-.348,4.49-1.1,6.159-.664a23.845,23.845,0,0,1-3.142,7.913,20.4,20.4,0,0,0,3.934-7.238c.742,1.532,2.06,4.417,1.712,10.6.4-1.294,1.037-7.593-.952-11.205a16.3,16.3,0,0,1,5.328,4.531,12.323,12.323,0,0,0-5.053-5.286A8.762,8.762,0,0,1,364,139.418a6.577,6.577,0,0,0-4.347,1.474,4.744,4.744,0,0,1,.023-2.473,2.935,2.935,0,0,1,2.568-1.843,2.258,2.258,0,0,0,.024.935,5.6,5.6,0,0,1,4.243,1.791,11.321,11.321,0,0,0-1.359,1.211s3.287,1.013,3.916,3.644a5.09,5.09,0,0,0-1.176.03,6.575,6.575,0,0,1,.263,7.212c-.312-.714-1.971-2.869-2.542-2.17s.715,1.816-.33,3.848a8.334,8.334,0,0,0-.905-.913s-.262,2.306-3.707,4.585a29.431,29.431,0,0,0-1.564-2.634l-.7.74s-.186-2.054-1.154-2.3a1.36,1.36,0,0,0-1.174.36Q356.1,152.777,356.109,152.633Z" transform="translate(-237.944 -92.913)" fill="#0b2b13"/>
    </g>
  </g>
</svg>
