<svg xmlns="http://www.w3.org/2000/svg" width="19.174" height="20" viewBox="0 0 19.174 20">
  <path id="Pfad_318" data-name="Pfad 318" d="M19.475-13.828a.353.353,0,0,1,.112.257.353.353,0,0,1-.112.257L17.9-11.741a1.033,1.033,0,0,1-.759.313h-15a.686.686,0,0,1-.5-.212.686.686,0,0,1-.212-.5V-15a.686.686,0,0,1,.212-.5.686.686,0,0,1,.5-.212H8.571v-.714a.686.686,0,0,1,.212-.5.686.686,0,0,1,.5-.212h1.429a.686.686,0,0,1,.5.212.686.686,0,0,1,.212.5v.714h5.714a1.033,1.033,0,0,1,.759.313ZM8.571-3.571h2.857V2.143a.686.686,0,0,1-.212.5.686.686,0,0,1-.5.212H9.286a.686.686,0,0,1-.5-.212.686.686,0,0,1-.212-.5Zm9.286-5a.686.686,0,0,1,.5.212.686.686,0,0,1,.212.5V-5a.686.686,0,0,1-.212.5.686.686,0,0,1-.5.212h-15A1.033,1.033,0,0,1,2.1-4.6L.525-6.172a.353.353,0,0,1-.112-.257.353.353,0,0,1,.112-.257L2.1-8.259a1.033,1.033,0,0,1,.759-.312H8.571v-2.143h2.857v2.143Z" transform="translate(-0.413 17.143)" fill="#033202"/>
</svg>
