<svg xmlns="http://www.w3.org/2000/svg" width="16.5" height="16.5" viewBox="0 0 16.5 16.5">
  <path id="Pfad_316" data-name="Pfad 316" d="M16.5-3.469a3.868,3.868,0,0,1-.117.826,4.656,4.656,0,0,1-.246.8A3.142,3.142,0,0,1,14.707-.6a4.544,4.544,0,0,1-2.18.6,4.651,4.651,0,0,1-.621-.041,4.815,4.815,0,0,1-.674-.146q-.369-.105-.551-.17t-.65-.24q-.469-.176-.574-.211a10.614,10.614,0,0,1-2.051-.973A17.663,17.663,0,0,1,4.313-4.312,17.663,17.663,0,0,1,1.781-7.406,10.614,10.614,0,0,1,.809-9.457Q.773-9.562.6-10.031t-.24-.65q-.064-.182-.17-.551a4.815,4.815,0,0,1-.146-.674A4.651,4.651,0,0,1,0-12.527a4.544,4.544,0,0,1,.6-2.18,3.142,3.142,0,0,1,1.242-1.43,4.656,4.656,0,0,1,.8-.246,3.868,3.868,0,0,1,.826-.117.656.656,0,0,1,.246.035q.211.07.621.891.129.223.352.633t.41.744q.188.334.363.627.035.047.205.293a3.273,3.273,0,0,1,.252.416A.764.764,0,0,1,6-12.527a.973.973,0,0,1-.334.586,5.713,5.713,0,0,1-.727.645,7.057,7.057,0,0,0-.727.621.893.893,0,0,0-.334.539.792.792,0,0,0,.059.264,2.558,2.558,0,0,0,.1.24q.041.082.164.281t.135.223A12.3,12.3,0,0,0,6.375-6.375,12.3,12.3,0,0,0,9.129-4.336q.023.012.223.135t.281.164a2.558,2.558,0,0,0,.24.1.792.792,0,0,0,.264.059.893.893,0,0,0,.539-.334,7.057,7.057,0,0,0,.621-.727,5.713,5.713,0,0,1,.645-.727A.973.973,0,0,1,12.527-6a.764.764,0,0,1,.334.082,3.273,3.273,0,0,1,.416.252q.246.17.293.205.293.176.627.363t.744.41q.41.223.633.352.82.41.891.621A.656.656,0,0,1,16.5-3.469Z" transform="translate(0 16.5)" fill="#033202"/>
</svg>
