<svg xmlns="http://www.w3.org/2000/svg" width="20" height="15.714" viewBox="0 0 20 15.714">
  <path id="Pfad_317" data-name="Pfad 317" d="M20-9.219V-.357A1.72,1.72,0,0,1,19.475.9a1.72,1.72,0,0,1-1.261.525H1.786A1.72,1.72,0,0,1,.525.9,1.72,1.72,0,0,1,0-.357V-9.219a5.919,5.919,0,0,0,1.127.971Q5.167-5.5,6.674-4.4q.636.469,1.032.731a6.378,6.378,0,0,0,1.055.536,3.216,3.216,0,0,0,1.228.273h.022a3.216,3.216,0,0,0,1.228-.273,6.378,6.378,0,0,0,1.055-.536q.4-.262,1.032-.731,1.9-1.373,5.558-3.85A6.156,6.156,0,0,0,20-9.219ZM20-12.5a2.95,2.95,0,0,1-.547,1.685,5.306,5.306,0,0,1-1.362,1.373L12.868-5.815q-.112.078-.474.34t-.6.424q-.24.162-.58.363a3.381,3.381,0,0,1-.642.3,1.774,1.774,0,0,1-.558.1H9.989a1.774,1.774,0,0,1-.558-.1,3.381,3.381,0,0,1-.642-.3q-.34-.2-.58-.363t-.6-.424q-.363-.262-.474-.34Q6.116-6.529,4.208-7.852T1.92-9.442A5.541,5.541,0,0,1,.614-10.731,2.606,2.606,0,0,1,0-12.254a2.253,2.253,0,0,1,.463-1.451,1.594,1.594,0,0,1,1.323-.58H18.214a1.725,1.725,0,0,1,1.256.525A1.711,1.711,0,0,1,20-12.5Z" transform="translate(0 14.286)" fill="#033202"/>
</svg>
