<svg xmlns="http://www.w3.org/2000/svg" width="230" height="60" viewBox="0 0 230 60">
  <g id="Gruppe_773" data-name="Gruppe 773" transform="translate(-1332 -1207)">
    <g id="Gruppe_750" data-name="Gruppe 750" transform="translate(-5.001 -9.332)">
      <g id="Logovariante_1" data-name="Logovariante 1" transform="translate(1367.35 1245.906)">
        <g id="Gruppe_20" data-name="Gruppe 20" transform="translate(-22.349 -23.573)">
          <g id="Pfad_1" data-name="Pfad 1" transform="translate(-140.53 -114.101)" fill="#fff" stroke-miterlimit="10">
            <path d="M 165.8047485351562 140.4997406005859 L 159.9535980224609 140.4997406005859 C 159.5236663818359 140.4997406005859 159.1637573242188 140.19140625 159.0977783203125 139.7666168212891 L 157.3841094970703 128.7355804443359 C 157.3451538085938 128.4854431152344 157.4174041748047 128.2314605712891 157.5823669433594 128.038818359375 C 157.7472686767578 127.8466110229492 157.9868774414062 127.7364654541016 158.2398986816406 127.7364654541016 L 167.6882781982422 127.7364654541016 C 167.9442443847656 127.7364654541016 168.185546875 127.8486099243164 168.3503112792969 128.0441589355469 C 168.5149383544922 128.2392578125 168.5848693847656 128.4958648681641 168.5420684814453 128.7480621337891 L 166.6584777832031 139.7793579101562 C 166.5872192382812 140.19677734375 166.2281799316406 140.4997406005859 165.8047485351562 140.4997406005859 Z" stroke="none"/>
            <path d="M 158.2398986816406 127.9529724121094 C 158.0501556396484 127.9529724121094 157.8704376220703 128.0355529785156 157.7468109130859 128.1796569824219 C 157.6229553222656 128.3242950439453 157.5688323974609 128.5147247314453 157.5980529785156 128.7023315429688 L 159.3117370605469 139.7333984375 C 159.3612060546875 140.0519866943359 159.6311950683594 140.2832336425781 159.9535980224609 140.2832336425781 L 165.8047485351562 140.2832336425781 C 166.1222839355469 140.2832336425781 166.3916168212891 140.0559692382812 166.4450531005859 139.742919921875 L 168.32861328125 128.7118530273438 C 168.3607482910156 128.5223999023438 168.3082427978516 128.3300476074219 168.1847381591797 128.1836700439453 C 168.0612335205078 128.0370941162109 167.8802185058594 127.9529724121094 167.6882781982422 127.9529724121094 L 158.2398986816406 127.9529724121094 M 158.2398986816406 127.5199584960938 L 167.6882781982422 127.5199584960938 C 168.0082397460938 127.5199584960938 168.3098754882812 127.6601715087891 168.5158843994141 127.9046478271484 C 168.7215881347656 128.1484375 168.8089904785156 128.4691314697266 168.7555389404297 128.7842864990234 L 166.8718872070312 139.8157958984375 C 166.7828369140625 140.3375396728516 166.3340301513672 140.7162475585938 165.8047485351562 140.7162475585938 L 159.9535980224609 140.7162475585938 C 159.4161987304688 140.7162475585938 158.9662933349609 140.3308410644531 158.8838500976562 139.7998504638672 L 157.170166015625 128.768798828125 C 157.1214752197266 128.4561767578125 157.2117614746094 128.1387329101562 157.4179077148438 127.8980102539062 C 157.6241149902344 127.6576385498047 157.9236297607422 127.5199584960938 158.2398986816406 127.5199584960938 Z" stroke="none" fill="#22100e"/>
          </g>
          <path id="Pfad_2" data-name="Pfad 2" d="M45.3,57.918c-10.731,0-19.462-7.824-19.462-17.442S34.565,23.034,45.3,23.034s19.462,7.825,19.462,17.442S56.027,57.918,45.3,57.918Zm0-34.343c-10.433,0-18.921,7.582-18.921,16.9s8.488,16.9,18.921,16.9,18.921-7.582,18.921-16.9S55.729,23.575,45.3,23.575Z" transform="translate(-23.037 -20.54)" fill="#22100e"/>
          <g id="Gruppe_13" data-name="Gruppe 13" transform="translate(17.787)">
            <g id="Gruppe_12" data-name="Gruppe 12">
              <g id="Gruppe_10" data-name="Gruppe 10" transform="translate(4.496)">
                <path id="Pfad_3" data-name="Pfad 3" d="M208.366,2.191c-.378.81,1.529,1.7,1.556.346a1.542,1.542,0,0,0-3.005-.483c-.555,1.786,1.35,3.094,2.6,3.851.663.4,1.294.7,1.5,1.535a3.5,3.5,0,0,1-.1,1.79,1.944,1.944,0,0,1-1.391,1.324,2.157,2.157,0,0,1-1.9-.419,1.412,1.412,0,0,1-.373-1.579c.255-.549.862-.807,1.313-.271.112.133-.122-.233-.162-.281a.764.764,0,0,0-1.365.092A1.58,1.58,0,0,0,207.3,9.82a2.35,2.35,0,0,0,1.954,1.167c1.619.013,2.176-1.527,2.051-2.919-.145-1.614-1.524-2.179-2.759-2.994a2.473,2.473,0,0,1-1.369-2.646,1.622,1.622,0,0,1,1.418-1.1.89.89,0,0,1,1.061.956.566.566,0,0,1-.226.467c-.246.18-.967.161-.8-.189.041-.089-.281-.33-.259-.376Z" transform="translate(-206.711 -0.885)" fill="#22100e"/>
                <path id="Pfad_4" data-name="Pfad 4" d="M208.4,10.212h-.022A2.448,2.448,0,0,1,206.333,9a1.657,1.657,0,0,1-.26-1.842.907.907,0,0,1,.7-.521,1,1,0,0,1,.837.412s.249.311.211.415l-.021.059-.062.012a.137.137,0,0,1-.131-.066.6.6,0,0,0-.545-.252.819.819,0,0,0-.587.5,1.3,1.3,0,0,0,.349,1.455,2.06,2.06,0,0,0,1.8.393,1.842,1.842,0,0,0,1.314-1.253,3.4,3.4,0,0,0,.095-1.729c-.175-.71-.681-1.011-1.267-1.36l-.182-.109c-.893-.541-3.267-1.979-2.646-3.975a1.567,1.567,0,0,1,1.8-1.114,1.622,1.622,0,0,1,1.416,1.631.738.738,0,0,1-.438.759,1.149,1.149,0,0,1-1.149-.353.708.708,0,0,1-.176-.8l.2.091a.09.09,0,0,0,0-.075.947.947,0,0,0,.081.09c.12.125.233.243.177.362-.027.058-.008.073.007.086a.712.712,0,0,0,.636-.03.464.464,0,0,0,.182-.389.73.73,0,0,0-.191-.6.95.95,0,0,0-.754-.241A1.514,1.514,0,0,0,206.4,1.577c-.381,1.238.8,2.177,1.325,2.524.193.128.394.251.587.37,1.076.664,2.093,1.29,2.22,2.7a3.2,3.2,0,0,1-.661,2.424A1.925,1.925,0,0,1,208.4,10.212Zm-1.024-.49a1.929,1.929,0,0,0,1,.273,1.715,1.715,0,0,0,1.339-.543,2.985,2.985,0,0,0,.6-2.258v0a3.735,3.735,0,0,1-.176,1.187,2.054,2.054,0,0,1-1.468,1.395A2.523,2.523,0,0,1,207.371,9.722Zm-.529-2.872-.046,0a.717.717,0,0,0-.536.412,1.168,1.168,0,0,0-.1.916,1.3,1.3,0,0,1,.118-.556A1.034,1.034,0,0,1,207.036,7a.72.72,0,0,1,.224.005A.7.7,0,0,0,206.842,6.85Zm.614-6.633a1.322,1.322,0,0,0-1.314.984,1.96,1.96,0,0,0,0,1.213,1.821,1.821,0,0,1,.05-.9A1.734,1.734,0,0,1,207.709.34a1.373,1.373,0,0,1,.427.033A1.587,1.587,0,0,0,207.7.236,1.541,1.541,0,0,0,207.457.217Zm.456,1.854a.862.862,0,0,0,.724.14.564.564,0,0,0,.3-.561,1.424,1.424,0,0,0-.047-.4,1.184,1.184,0,0,1,0,.163.671.671,0,0,1-.27.545A.978.978,0,0,1,207.913,2.07Zm-.365-.517a.5.5,0,0,0,.068.213.328.328,0,0,1,.023-.1A.79.79,0,0,0,207.548,1.554Z" transform="translate(-205.834 0)" fill="#22100e"/>
              </g>
              <g id="Gruppe_11" data-name="Gruppe 11" transform="translate(0 0.035)">
                <path id="Pfad_5" data-name="Pfad 5" d="M168.117,2.516c.4.8-1.491,1.736-1.548.38a1.542,1.542,0,0,1,2.994-.55c.595,1.773-1.28,3.123-2.512,3.908-.654.416-1.278.734-1.463,1.568a3.5,3.5,0,0,0,.137,1.787,1.944,1.944,0,0,0,1.42,1.292,2.157,2.157,0,0,0,1.885-.462,1.411,1.411,0,0,0,.337-1.587c-.267-.543-.88-.788-1.319-.241-.109.135.117-.236.156-.284a.764.764,0,0,1,1.366.062,1.58,1.58,0,0,1-.216,1.731,2.349,2.349,0,0,1-1.927,1.211c-1.618.049-2.21-1.478-2.116-2.872C165.42,6.842,166.787,6.247,168,5.4a2.473,2.473,0,0,0,1.309-2.676,1.622,1.622,0,0,0-1.442-1.065.89.89,0,0,0-1.039.979.566.566,0,0,0,.236.462c.25.174.971.139.8-.207-.043-.088.273-.336.251-.382Z" transform="translate(-165.194 -1.21)" fill="#22100e"/>
                <path id="Pfad_6" data-name="Pfad 6" d="M166.46,10.557a1.91,1.91,0,0,1-1.433-.581,3.2,3.2,0,0,1-.714-2.408c.095-1.416,1.1-2.065,2.159-2.753.191-.124.388-.251.579-.383.517-.358,1.676-1.324,1.268-2.553a1.513,1.513,0,0,0-1.345-.991.951.951,0,0,0-.748.258.729.729,0,0,0-.178.6.464.464,0,0,0,.19.385.712.712,0,0,0,.636.016c.015-.013.033-.028,0-.086-.058-.117.052-.238.169-.366a.949.949,0,0,0,.078-.092.089.089,0,0,0,0,.075l.194-.1a.708.708,0,0,1-.158.8,1.15,1.15,0,0,1-1.14.378.738.738,0,0,1-.455-.749A1.622,1.622,0,0,1,166.949.355a1.568,1.568,0,0,1,1.826,1.073c.665,1.982-1.676,3.472-2.557,4.033l-.18.113c-.578.361-1.077.674-1.236,1.388a3.392,3.392,0,0,0,.133,1.727,1.842,1.842,0,0,0,1.341,1.223,2.06,2.06,0,0,0,1.786-.433,1.3,1.3,0,0,0,.316-1.462.819.819,0,0,0-.6-.485.6.6,0,0,0-.54.264.136.136,0,0,1-.13.069l-.062-.01-.023-.059c-.04-.1.2-.417.2-.42a1,1,0,0,1,.828-.431.907.907,0,0,1,.715.5,1.657,1.657,0,0,1-.219,1.847,2.5,2.5,0,0,1-2.013,1.258ZM164.529,7.58v0a2.985,2.985,0,0,0,.654,2.244,1.719,1.719,0,0,0,1.35.513,1.929,1.929,0,0,0,1-.3,2.525,2.525,0,0,1-1.3.081,2.054,2.054,0,0,1-1.5-1.362A3.737,3.737,0,0,1,164.529,7.58Zm3.2-.267a.733.733,0,0,1,.08,0,1.034,1.034,0,0,1,.768.6,1.3,1.3,0,0,1,.131.553,1.169,1.169,0,0,0-.117-.913.718.718,0,0,0-.545-.4.678.678,0,0,0-.461.166A.714.714,0,0,1,167.725,7.313ZM166.906.67l.078,0a1.734,1.734,0,0,1,1.539,1.139,1.824,1.824,0,0,1,.071.9,1.961,1.961,0,0,0-.025-1.213,1.344,1.344,0,0,0-1.581-.929,1.591,1.591,0,0,0-.43.146A1.348,1.348,0,0,1,166.906.67Zm-1.082.939a1.426,1.426,0,0,0-.038.4.564.564,0,0,0,.311.554.864.864,0,0,0,.721-.156.976.976,0,0,1-.705-.1.671.671,0,0,1-.282-.539A1.192,1.192,0,0,1,165.824,1.609Zm1.259.384a.323.323,0,0,1,.025.1.506.506,0,0,0,.063-.214A.8.8,0,0,0,167.084,1.993Z" transform="translate(-164.303 -0.327)" fill="#22100e"/>
              </g>
            </g>
            <rect id="Rechteck_21" data-name="Rechteck 21" width="1.102" height="0.609" rx="0.087" transform="matrix(1, -0.011, 0.011, 1, 4.042, 8.035)" fill="#22100e"/>
            <rect id="Rechteck_22" data-name="Rechteck 22" width="1.339" height="0.681" rx="0.101" transform="matrix(1, -0.011, 0.011, 1, 3.896, 2.099)" fill="#22100e"/>
          </g>
          <g id="Gruppe_14" data-name="Gruppe 14" transform="translate(15.799 10.545)">
            <path id="Pfad_7" data-name="Pfad 7" d="M151.257,97.416l-5.308,2.366h12.918l-4.988-2.366Z" transform="translate(-145.948 -97.416)" fill="#22100e"/>
            <path id="Pfad_8" data-name="Pfad 8" d="M158.862,99.779H145.944l5.308-2.366h2.622l4.988,2.366h0Zm-12.915,0H158.86l-4.986-2.365h-2.622Z" transform="translate(-145.944 -97.412)" fill="#22100e"/>
          </g>
          <path id="Pfad_9" data-name="Pfad 9" d="M168.984,142.321h-5.851a.217.217,0,0,1-.214-.183L161.2,131.107a.216.216,0,0,1,.214-.25h9.448a.217.217,0,0,1,.213.253L169.2,142.141A.217.217,0,0,1,168.984,142.321Zm-5.666-.433H168.8l1.81-10.6h-8.939Z" transform="translate(-143.751 -116.691)" fill="#22100e"/>
          <g id="Gruppe_15" data-name="Gruppe 15" transform="translate(18.416 14.382)">
            <rect id="Rechteck_23" data-name="Rechteck 23" width="7.882" height="0.325" transform="translate(0 4.657)" fill="#22100e"/>
            <rect id="Rechteck_24" data-name="Rechteck 24" width="0.325" height="11.031" transform="translate(3.813)" fill="#22100e"/>
          </g>
          <path id="Pfad_10" data-name="Pfad 10" d="M201.17,83.977h-.855a.169.169,0,0,0-.162.176l-.217,1.182a.169.169,0,0,0,.162.176h1.288a.169.169,0,0,0,.162-.176l-.217-1.182A.169.169,0,0,0,201.17,83.977Z" transform="translate(-178.293 -74.886)" fill="#22100e"/>
          <g id="Gruppe_17" data-name="Gruppe 17" transform="translate(6.085 34.889)">
            <g id="Gruppe_16" data-name="Gruppe 16" transform="translate(0 0)">
              <path id="Pfad_11" data-name="Pfad 11" d="M60.674,332.94,58.22,335.9l-.358-.3a.143.143,0,0,1-.055-.091.126.126,0,0,1,.034-.1l1.055-1.272-1.135-.941-1.139,1.373-.358-.3a.119.119,0,0,1-.022-.189l2.454-2.958.358.3a.142.142,0,0,1,.055.091.126.126,0,0,1-.033.1l-.993,1.2,1.135.941,1.077-1.3.358.3A.119.119,0,0,1,60.674,332.94Z" transform="translate(-56.205 -330.171)" fill="#22100e"/>
              <path id="Pfad_12" data-name="Pfad 12" d="M88.762,358.647q.075-.23.149-.464l-1.127-.606q-.181.215-.354.441t-.337.444l-.389-.209q-.111-.06-.038-.184a3.286,3.286,0,0,1,.206-.274q.354-.441.706-.829t.679-.716q.327-.329.622-.594t.537-.46l.505.272a.157.157,0,0,1,.077.074.21.21,0,0,1,.007.108q-.032.315-.1.741t-.179.933q-.113.506-.272,1.069t-.366,1.142l-.429-.231a.13.13,0,0,1-.059-.181Q88.688,358.877,88.762,358.647Zm.041-2.219q-.353.348-.73.77l1,.535q.145-.548.24-1.034t.162-.913Q89.156,356.08,88.8,356.428Z" transform="translate(-83.342 -351.634)" fill="#22100e"/>
              <path id="Pfad_13" data-name="Pfad 13" d="M125.361,369.356a1.266,1.266,0,0,1-1.068.02,2.073,2.073,0,0,1-.519-.248.952.952,0,0,1-.321-.361,1.087,1.087,0,0,1-.1-.509,2.37,2.37,0,0,1,.138-.7l.811-2.439.441.147a.119.119,0,0,1,.089.169l-.79,2.374a2,2,0,0,0-.088.364.744.744,0,0,0,.016.3.5.5,0,0,0,.154.238.93.93,0,0,0,.327.172.892.892,0,0,0,.356.055.507.507,0,0,0,.262-.1.719.719,0,0,0,.195-.231,2.089,2.089,0,0,0,.151-.355l.83-2.494.441.147a.143.143,0,0,1,.085.064.127.127,0,0,1,0,.1L126,368.4A1.679,1.679,0,0,1,125.361,369.356Z" transform="translate(-116.081 -360.484)" fill="#22100e"/>
              <path id="Pfad_14" data-name="Pfad 14" d="M161.167,375.34l-.06.356-1.618-.272-.2,1.205,1.341.225a.116.116,0,0,1,.108.152l-.061.362-1.471-.247-.21,1.25,1.55.26a.142.142,0,0,1,.093.05.126.126,0,0,1,.021.1l-.06.357-2.145-.36a.119.119,0,0,1-.114-.153l.637-3.791,2.082.35A.117.117,0,0,1,161.167,375.34Z" transform="translate(-147.281 -369.149)" fill="#22100e"/>
              <path id="Pfad_15" data-name="Pfad 15" d="M192.371,382.824l.088-3.774q.253-.04.57-.064t.637-.017a1.4,1.4,0,0,1,.991.324,1.215,1.215,0,0,1,.289.916,1.154,1.154,0,0,1-.214.7,1.078,1.078,0,0,1-.534.372,3.716,3.716,0,0,1,.269.4q.135.227.253.465t.213.47q.095.232.148.411l-.5-.011a.18.18,0,0,1-.117-.034.22.22,0,0,1-.058-.1q-.048-.145-.133-.333t-.186-.389q-.1-.2-.223-.4a3.658,3.658,0,0,0-.25-.364l-.614-.014-.037,1.594-.459-.011Q192.368,382.955,192.371,382.824Zm1.272-1.9a1.171,1.171,0,0,0,.279-.025.539.539,0,0,0,.226-.107.512.512,0,0,0,.152-.223,1.123,1.123,0,0,0,.06-.369,1.225,1.225,0,0,0-.037-.368.54.54,0,0,0-.129-.232.467.467,0,0,0-.224-.123,1.445,1.445,0,0,0-.32-.039q-.2,0-.35,0t-.253.023l-.033,1.445Z" transform="translate(-177.631 -372.831)" fill="#22100e"/>
              <path id="Pfad_16" data-name="Pfad 16" d="M225.8,381.259l-.464-3.746q.245-.077.554-.147t.583-.1a1.481,1.481,0,0,1,1.05.17,1.3,1.3,0,0,1,.447.95,1.787,1.787,0,0,1-.014.609,1.034,1.034,0,0,1-.2.429.968.968,0,0,1-.362.273,1.734,1.734,0,0,1-.5.134,2.632,2.632,0,0,1-.316.019q-.168,0-.355-.017l.184,1.486-.455.057A.119.119,0,0,1,225.8,381.259Zm.67-1.872a2.263,2.263,0,0,0,.3-.017,1.235,1.235,0,0,0,.314-.077.471.471,0,0,0,.209-.159.612.612,0,0,0,.1-.27,1.851,1.851,0,0,0-.105-.825.545.545,0,0,0-.176-.23.512.512,0,0,0-.251-.09,1.46,1.46,0,0,0-.32.008q-.171.021-.32.051c-.1.02-.181.04-.244.059l.19,1.537Q226.324,379.385,226.474,379.387Z" transform="translate(-207.03 -371.292)" fill="#22100e"/>
              <path id="Pfad_17" data-name="Pfad 17" d="M258.347,369.391l.1.348-1.582.437.325,1.178,1.311-.362a.117.117,0,0,1,.162.092l.1.354-1.438.4.337,1.222,1.515-.418a.142.142,0,0,1,.106.006.126.126,0,0,1,.062.084l.1.348-2.1.579a.119.119,0,0,1-.168-.091l-1.023-3.706,2.035-.562A.117.117,0,0,1,258.347,369.391Z" transform="translate(-234.504 -364.203)" fill="#22100e"/>
              <path id="Pfad_18" data-name="Pfad 18" d="M285.719,363.756l-1.579-3.429q.21-.147.483-.308t.565-.3a1.394,1.394,0,0,1,1.033-.144,1.215,1.215,0,0,1,.662.7,1.154,1.154,0,0,1,.113.718,1.077,1.077,0,0,1-.316.569,3.677,3.677,0,0,1,.416.238q.222.144.432.306t.4.328q.187.166.314.3l-.453.209a.18.18,0,0,1-.12.02.22.22,0,0,1-.094-.061q-.107-.108-.266-.241t-.338-.268q-.179-.135-.377-.262a3.653,3.653,0,0,0-.385-.218l-.557.257.667,1.449-.417.192A.119.119,0,0,1,285.719,363.756Zm.309-2.265a1.174,1.174,0,0,0,.239-.145.536.536,0,0,0,.156-.2.511.511,0,0,0,.038-.267,1.132,1.132,0,0,0-.108-.358,1.237,1.237,0,0,0-.2-.314.544.544,0,0,0-.218-.152.468.468,0,0,0-.255-.012,1.456,1.456,0,0,0-.305.106q-.177.081-.313.157t-.217.132l.605,1.313Z" transform="translate(-259.465 -355.499)" fill="#22100e"/>
              <path id="Pfad_19" data-name="Pfad 19" d="M314.255,352.992l-2.2-3.153.381-.266a.142.142,0,0,1,.1-.029.126.126,0,0,1,.086.059l1.91,2.738,1.158-.807a.119.119,0,0,1,.188.029l.213.306-1.652,1.152A.119.119,0,0,1,314.255,352.992Z" transform="translate(-284.359 -346.592)" fill="#22100e"/>
              <path id="Pfad_20" data-name="Pfad 20" d="M334.807,322.328l.26.251-1.141,1.179.878.85.946-.977a.117.117,0,0,1,.187,0l.264.255-1.037,1.072.911.882,1.093-1.13a.142.142,0,0,1,.095-.048.126.126,0,0,1,.1.041l.26.251-1.512,1.563a.119.119,0,0,1-.191.007l-2.763-2.673,1.468-1.517A.117.117,0,0,1,334.807,322.328Z" transform="translate(-303.171 -322.283)" fill="#22100e"/>
            </g>
          </g>
          <g id="Gruppe_19" data-name="Gruppe 19" transform="translate(1.251 32.206)">
            <g id="Gruppe_18" data-name="Gruppe 18" transform="translate(1.653)">
              <path id="Pfad_21" data-name="Pfad 21" d="M46.834,312.44a31.787,31.787,0,0,1-9.41-1.43,26.54,26.54,0,0,1-10.533-6.044.216.216,0,0,1,0-.312,69.829,69.829,0,0,0,5.53-5.8.216.216,0,0,1,.314-.021,19.479,19.479,0,0,0,14.43,5.077,20.83,20.83,0,0,0,14-6.344.216.216,0,0,1,.154-.068.214.214,0,0,1,.156.063l.422.422c1.579,1.579,3.212,3.212,4.924,4.717a.217.217,0,0,1,.036.285c-3.6,5.25-9.608,8.552-16.93,9.3A30.5,30.5,0,0,1,46.834,312.44Zm-19.48-7.63a26.206,26.206,0,0,0,10.2,5.787,31.182,31.182,0,0,0,12.327,1.257c7.119-.725,12.973-3.9,16.508-8.954-1.669-1.479-3.26-3.069-4.8-4.609l-.265-.265a21.288,21.288,0,0,1-14.136,6.318,19.929,19.929,0,0,1-14.578-5.037A70.094,70.094,0,0,1,27.354,304.81Z" transform="translate(-26.825 -297.5)" fill="#22100e"/>
            </g>
            <path id="Pfad_22" data-name="Pfad 22" d="M12.468,341.518c-.22.4.2.671.588.6a1.213,1.213,0,0,0,.57-.334.905.905,0,0,0-.782-1.493,1.914,1.914,0,0,0-1.189,1.038,1.2,1.2,0,0,0,.306,1.384,1.89,1.89,0,0,0,1.411.2l.455-.35a2.508,2.508,0,0,0-1.382.809c-.3.419-.495,1.225.108,1.479a.975.975,0,0,0,.985-.276,1.034,1.034,0,0,0,.375-.409.432.432,0,0,0-.592-.561c-.161.068-.348.3-.455.35.379-.161.842.378.557.588-.143.105-.48-.07-.583-.166a.718.718,0,0,1-.2-.611,1.167,1.167,0,0,1,.228-.645,1.109,1.109,0,0,1,.505-.208c.145-.04.376-.341.455-.35a1.871,1.871,0,0,1-1.386-.206,1.176,1.176,0,0,1-.352-1.246c.072-.261.151-.466.429-.478a.753.753,0,0,1,.559.215.935.935,0,0,1,.136,1.207l.462-.339c-.33.1-1.017-.018-.736-.529-.048.086-.388.182-.47.329Z" transform="translate(-11.56 -335.641)" fill="#22100e"/>
            <path id="Pfad_23" data-name="Pfad 23" d="M391.927,327.315c.119.216-.06.321-.264.187-.154-.1-.169-.391-.162-.553.011-.246.066-.46.253-.52a.715.715,0,0,1,.614.169,1.31,1.31,0,0,1,.463,1.058c-.01.293-.088.618-.4.7a2.631,2.631,0,0,1-.92,0c-.141-.016-.4.375-.479.352a1.373,1.373,0,0,1,1.044.694,1.536,1.536,0,0,1,.156.509c.013.152-.086.317-.075.446q-.129.175.114-.05a.7.7,0,0,1-.208.039.954.954,0,0,1-.288-.054.528.528,0,0,1-.237-.835l-.344.27a.344.344,0,0,1,.344.022c.118.05.418-.378.479-.352-.341-.145-.867.181-1.034.5-.3.564.426.913.868.744a1.561,1.561,0,0,0,.811-.69,1.048,1.048,0,0,0-.046-.763,1.356,1.356,0,0,0-1.105-.834l-.479.352a2.129,2.129,0,0,0,2.033-.7c.6-.753-.055-2.348-1.113-1.841-.493.236-1.326,1.012-.837,1.619.367.455,1.592-.267,1.291-.813,0-.009-.508.3-.479.352Z" transform="translate(-349.847 -322.968)" fill="#22100e"/>
          </g>
          <rect id="Rechteck_25" data-name="Rechteck 25" width="0.975" height="1.783" transform="matrix(0.815, -0.58, 0.58, 0.815, 32.802, 34.135)" fill="#22100e"/>
          <rect id="Rechteck_26" data-name="Rechteck 26" width="0.975" height="1.783" transform="translate(12.761 36.678) rotate(-150)" fill="#22100e"/>
          <path id="Pfad_24" data-name="Pfad 24" d="M157.249,119.351a.217.217,0,0,0-.163-.074H144.169a.216.216,0,0,0-.215.245l.65,4.857a.217.217,0,0,0,.215.188h1.744a.216.216,0,0,0,.214-.25l-.487-3.138h8.939l-.536,3.136a.217.217,0,0,0,.213.253h1.531a.216.216,0,0,0,.215-.188l.65-4.86A.216.216,0,0,0,157.249,119.351Zm-.812,5h-1.531l.579-3.389h-9.448l.526,3.387h-1.744l-.65-4.857h12.917Z" transform="translate(-128.369 -106.365)" fill="#22100e"/>
          <path id="Pfad_25" data-name="Pfad 25" d="M49.619,61.293c.105-.046.194-.119.381-.217a.539.539,0,0,1,.821.235c-.083.026-.217.071-.217.071a.681.681,0,0,1,.237.522,2.345,2.345,0,0,1-.148.6s-.243-.432-.344-.272.032.613-.311,1.078l-.142-.172a.7.7,0,0,1-.322.431,1.379,1.379,0,0,0-.414.379,2.481,2.481,0,0,1-.258-.609c-.038-.242-.113-.41-.231-.4s-.186.481-.614.669c-.041-.129-.018-.209-.315-.157s-.82.095-.94.268a3.021,3.021,0,0,1-.088-.711c.014-.347.171-.667.129-.787s-.222-.123-.222-.123.217-.2.293-.261.164-.161.139-.258-.317-.2-.445-.242c.059-.145.077-.207.077-.207a1.323,1.323,0,0,0-.453-.129,1.227,1.227,0,0,1,1.083-.783,1.782,1.782,0,0,0-.063-.208.969.969,0,0,1,.452.007c.263.058.348.069.361.008s.063-.2-.141-.527a2.081,2.081,0,0,1,.818.077,1.24,1.24,0,0,1,.68.443c.158-.193.206-.244.206-.244a.926.926,0,0,1-.032.966,2.853,2.853,0,0,0-.209.341,1.3,1.3,0,0,0-.669-.815,1.481,1.481,0,0,1,.5.846,3.38,3.38,0,0,0-1.8-.331,5.448,5.448,0,0,1,1.786.485,4.825,4.825,0,0,0-1.561,1.3,4.311,4.311,0,0,1,1.688-1.146c.307.423.031,1.622.031,1.622a2.4,2.4,0,0,0,.17-1.6,2.132,2.132,0,0,1,.731.206,1.09,1.09,0,0,0-.375-.251C49.835,61.387,49.619,61.293,49.619,61.293Z" transform="translate(-41.224 -53.053)" fill="#0b2b13"/>
          <path id="Pfad_26" data-name="Pfad 26" d="M126.035,23.062c.105-.046.194-.119.381-.217a.539.539,0,0,1,.821.235c-.083.026-.217.071-.217.071a.681.681,0,0,1,.237.522,2.349,2.349,0,0,1-.148.6s-.243-.432-.344-.272.032.613-.311,1.078l-.142-.172a.7.7,0,0,1-.323.431,1.379,1.379,0,0,0-.414.379,2.477,2.477,0,0,1-.258-.609c-.038-.242-.113-.41-.232-.4s-.186.481-.614.669c-.041-.129-.018-.209-.315-.157s-.82.095-.94.268a3.021,3.021,0,0,1-.088-.711c.014-.347.171-.667.129-.787s-.222-.123-.222-.123.217-.2.293-.261.164-.161.139-.258-.317-.2-.445-.242c.059-.145.077-.207.077-.207a1.323,1.323,0,0,0-.453-.129,1.227,1.227,0,0,1,1.083-.783,1.8,1.8,0,0,0-.063-.208.97.97,0,0,1,.452.007c.263.058.348.069.361.008s.063-.2-.141-.527a2.081,2.081,0,0,1,.818.077,1.241,1.241,0,0,1,.681.443c.158-.193.206-.244.206-.244a.926.926,0,0,1-.032.966,2.858,2.858,0,0,0-.209.341,1.3,1.3,0,0,0-.669-.815,1.481,1.481,0,0,1,.495.845,3.379,3.379,0,0,0-1.8-.331,5.446,5.446,0,0,1,1.786.485,4.824,4.824,0,0,0-1.561,1.3,4.311,4.311,0,0,1,1.688-1.146c.307.423.031,1.622.031,1.622a2.4,2.4,0,0,0,.171-1.6,2.133,2.133,0,0,1,.731.206,1.089,1.089,0,0,0-.375-.251C126.251,23.155,126.035,23.062,126.035,23.062Z" transform="translate(-109.367 -18.959)" fill="#0b2b13"/>
          <path id="Pfad_27" data-name="Pfad 27" d="M21.838,91.325c.109-.285.2-1.023,1.2-1.02a3.231,3.231,0,0,0-.13.481.831.831,0,0,1,.964.39c.407.61.4.82.49.866-.233,0-.777.078-.756.279a5.211,5.211,0,0,1,.438,2.115c-.145-.082-.244-.184-.416-.093s-.111.528-.321.907a1.884,1.884,0,0,1-.423.545s-.321-1.17-.738-.965c-.292.134.043.9-.661,1.321,0,0-.131-.446-.372-.355a3.516,3.516,0,0,1-1.643.992c0-.522.025-1.528-.65-1.451,0,0,.349-.88.157-1a1.7,1.7,0,0,0-1.364.071,2.2,2.2,0,0,1,.177-.845,3.315,3.315,0,0,0,.22-.752c0-.154-.228-.356-.228-.356a1.326,1.326,0,0,1,.687-.609c.528-.239.461-.4.457-.42s-.138-.227-.539-.269c0,0,.117-.8,1.567-.7.007-.186.019-.419.019-.419a1.532,1.532,0,0,1,.854.433,3.442,3.442,0,0,1,.5,1.222,2.767,2.767,0,0,0-1.152-.427,2.427,2.427,0,0,1,1.038.729,5.345,5.345,0,0,0-2.406,1.25,10.6,10.6,0,0,1,2.408-.956,7.2,7.2,0,0,1-.752,2.783,7.245,7.245,0,0,0,1.087-2.678,3.41,3.41,0,0,1,1.217,1.856,3.775,3.775,0,0,0-1.016-2.113A3.936,3.936,0,0,1,22.8,91.7a6.194,6.194,0,0,0-1.187.118A1.754,1.754,0,0,0,21.838,91.325Z" transform="translate(-15.705 -80.285)" fill="#0b2b13"/>
          <path id="Pfad_28" data-name="Pfad 28" d="M3.178,187.277a1.145,1.145,0,0,1,.608-1.451,3.235,3.235,0,0,0,.1.488.831.831,0,0,1,1.036-.087c.639.361.728.551.828.552-.207.107-.658.421-.549.59a5.211,5.211,0,0,1,1.345,1.689c-.167-.008-.3-.054-.413.1s.139.521.123.954a1.883,1.883,0,0,1-.131.677s-.814-.9-1.094-.529c-.2.251.446.787.007,1.477,0,0-.318-.339-.492-.149a3.516,3.516,0,0,1-1.018,1.627c-.237-.465-.668-1.375-1.235-1,0,0-.086-.942-.313-.966a1.7,1.7,0,0,0-1.185.679,2.2,2.2,0,0,1-.224-.834,3.317,3.317,0,0,0-.143-.771c-.067-.139-.364-.215-.364-.215a1.325,1.325,0,0,1,.339-.853c.364-.452.233-.562.218-.581s-.225-.14-.6,0c0,0-.258-.769,1.081-1.334-.078-.17-.173-.383-.173-.383a1.532,1.532,0,0,1,.957,0,3.443,3.443,0,0,1,1,.863,2.77,2.77,0,0,0-1.221.139,2.426,2.426,0,0,1,1.255.182,5.344,5.344,0,0,0-1.583,2.2,10.6,10.6,0,0,1,1.717-1.94,7.2,7.2,0,0,1,.585,2.823,7.243,7.243,0,0,0-.239-2.88,3.41,3.41,0,0,1,1.924,1.107,3.776,3.776,0,0,0-1.86-1.427,3.938,3.938,0,0,1,.743-.859,6.209,6.209,0,0,0-1.006.641A1.752,1.752,0,0,0,3.178,187.277Z" transform="translate(0 -165.709)" fill="#0b2b13"/>
          <path id="Pfad_29" data-name="Pfad 29" d="M75.833,39.1a1.254,1.254,0,0,1,.682-.8.845.845,0,0,1,.032-.253.858.858,0,0,1,1.238-.517,1.381,1.381,0,0,1,.634-.332h0A1.369,1.369,0,0,1,79,37.194a2.177,2.177,0,0,0,.036-1.368c-.23-.6-.45-.524-.338-.7a.369.369,0,0,1,.3-.165,1.823,1.823,0,0,0-1.5-.535,4.262,4.262,0,0,0-1.16.416,3.407,3.407,0,0,1,1.985,1.293,5.522,5.522,0,0,0-2.016-1,8.665,8.665,0,0,0,.075,3.093,7.417,7.417,0,0,1-.43-2.963,7.1,7.1,0,0,0-1.918,3.4,6.988,6.988,0,0,1,1.735-3.7,5.921,5.921,0,0,0-2.387.874,4.478,4.478,0,0,1,2.388-1.166,3.185,3.185,0,0,0-.954-1.07,2.391,2.391,0,0,1,1.3,1.05,1.724,1.724,0,0,0,.3-.846,1.067,1.067,0,0,0-.643-.952.82.82,0,0,1-.126.316,2.036,2.036,0,0,0-1.672.077,4.132,4.132,0,0,1,.311.584,2.206,2.206,0,0,0-1.794.75,1.853,1.853,0,0,1,.4.158,2.39,2.39,0,0,0-1,2.426c.2-.2,1.033-.73,1.14-.42s-.472.529-.372,1.353a3.034,3.034,0,0,1,.424-.2,2.672,2.672,0,0,0,.687,2.03,10.682,10.682,0,0,1,.865-.7l.147.341s.322-.677.683-.638a.494.494,0,0,1,.355.27Q75.818,39.149,75.833,39.1Z" transform="translate(-64.062 -29.296)" fill="#0b2b13"/>
          <path id="Pfad_30" data-name="Pfad 30" d="M31.26,237.695a1.255,1.255,0,0,1-.273-1.012.845.845,0,0,1-.19-.169.857.857,0,0,1,.27-1.314,1.381,1.381,0,0,1,.083-.712h0a1.372,1.372,0,0,1,.319-.478,2.178,2.178,0,0,0-1.11-.8c-.629-.15-.687.076-.768-.115a.369.369,0,0,1,.031-.337,1.823,1.823,0,0,0-1.288.939,4.259,4.259,0,0,0-.31,1.193,3.407,3.407,0,0,1,2.187-.911,5.522,5.522,0,0,0-1.964,1.1,8.667,8.667,0,0,0,2.6,1.681,7.417,7.417,0,0,1-2.69-1.314,7.1,7.1,0,0,0,1.726,3.5,6.988,6.988,0,0,1-2.079-3.519,5.921,5.921,0,0,0-.623,2.464,4.479,4.479,0,0,1,.383-2.63,3.185,3.185,0,0,0-1.421.185,2.391,2.391,0,0,1,1.6-.48,1.725,1.725,0,0,0-.528-.728,1.067,1.067,0,0,0-1.149,0,.821.821,0,0,1,.19.282,2.036,2.036,0,0,0-.879,1.424,4.116,4.116,0,0,1,.658.072,2.206,2.206,0,0,0-.392,1.9,1.855,1.855,0,0,1,.354-.239,2.39,2.39,0,0,0,1.442,2.191c-.058-.277-.021-1.265.3-1.178s.171.688.908,1.07a3.039,3.039,0,0,1,.076-.461,2.673,2.673,0,0,0,2.064.577,10.689,10.689,0,0,1-.092-1.109l.364.071s-.378-.647-.142-.923a.494.494,0,0,1,.423-.141Q31.293,237.735,31.26,237.695Z" transform="translate(-22.624 -207.56)" fill="#0b2b13"/>
          <path id="Pfad_31" data-name="Pfad 31" d="M5.26,145.276a1.169,1.169,0,0,1,.34-.916.788.788,0,0,1-.053-.231.8.8,0,0,1,.736-.858.789.789,0,0,1,.179.007,1.286,1.286,0,0,1,.447-.5h0a1.279,1.279,0,0,1,.5-.191A2.028,2.028,0,0,0,7,141.383c-.4-.454-.562-.313-.521-.5a.344.344,0,0,1,.205-.239,1.7,1.7,0,0,0-1.485.017,3.967,3.967,0,0,0-.88.738,3.174,3.174,0,0,1,2.153.49,5.145,5.145,0,0,0-2.086-.225,8.072,8.072,0,0,0,1.064,2.68,6.91,6.91,0,0,1-1.332-2.451,6.617,6.617,0,0,0-.58,3.589,6.511,6.511,0,0,1,.323-3.794,5.517,5.517,0,0,0-1.8,1.534,4.172,4.172,0,0,1,1.711-1.79,2.968,2.968,0,0,0-1.179-.627,2.227,2.227,0,0,1,1.472.5,1.608,1.608,0,0,0-.008-.838.994.994,0,0,0-.87-.624.764.764,0,0,1-.008.317,1.9,1.9,0,0,0-1.437.606,3.842,3.842,0,0,1,.46.41s-1.113.343-1.326,1.234a1.73,1.73,0,0,1,.4.01,2.227,2.227,0,0,0-.089,2.442c.106-.242.667-.972.861-.735s-.242.615.112,1.3a2.826,2.826,0,0,1,.307-.309s.089.781,1.255,1.553a9.951,9.951,0,0,1,.53-.892l.238.251s.063-.7.391-.778a.46.46,0,0,1,.4.122C5.266,145.34,5.262,145.308,5.26,145.276Z" transform="translate(-0.762 -124.7)" fill="#0b2b13"/>
          <path id="Pfad_32" data-name="Pfad 32" d="M323.54,58.031c-.105-.046-.194-.119-.381-.217a.539.539,0,0,0-.821.235c.083.026.217.072.217.072a.681.681,0,0,0-.237.522,2.349,2.349,0,0,0,.148.6s.243-.432.344-.272-.032.613.311,1.078l.142-.172a.7.7,0,0,0,.323.431,1.379,1.379,0,0,1,.414.38,2.479,2.479,0,0,0,.258-.61c.038-.242.113-.41.232-.4s.186.481.614.669c.041-.129.018-.209.315-.157s.82.095.94.268a3.022,3.022,0,0,0,.088-.711c-.014-.347-.171-.667-.129-.787s.222-.123.222-.123-.217-.2-.293-.261-.164-.161-.139-.258.317-.2.445-.242c-.059-.145-.077-.207-.077-.207a1.323,1.323,0,0,1,.453-.13,1.228,1.228,0,0,0-1.083-.783,1.812,1.812,0,0,1,.063-.208.97.97,0,0,0-.452.007c-.263.058-.348.069-.361.008s-.063-.2.141-.528a2.079,2.079,0,0,0-.818.077,1.24,1.24,0,0,0-.681.443c-.158-.193-.206-.244-.206-.244a.926.926,0,0,0,.033.966,2.855,2.855,0,0,1,.209.341,1.3,1.3,0,0,1,.669-.815,1.481,1.481,0,0,0-.495.845,3.379,3.379,0,0,1,1.8-.331,5.444,5.444,0,0,0-1.786.485,4.825,4.825,0,0,1,1.561,1.3,4.311,4.311,0,0,0-1.688-1.146c-.307.423-.031,1.622-.031,1.622a2.4,2.4,0,0,1-.171-1.6,2.133,2.133,0,0,0-.731.206,1.09,1.09,0,0,1,.375-.251C323.324,58.125,323.54,58.031,323.54,58.031Z" transform="translate(-287.425 -50.143)" fill="#0b2b13"/>
          <path id="Pfad_33" data-name="Pfad 33" d="M247.124,19.8c-.105-.046-.194-.119-.381-.217a.539.539,0,0,0-.821.235c.083.026.217.072.217.072a.68.68,0,0,0-.237.522,2.345,2.345,0,0,0,.148.6s.243-.432.344-.272-.032.613.311,1.078l.142-.172a.7.7,0,0,0,.322.431,1.381,1.381,0,0,1,.414.38,2.482,2.482,0,0,0,.258-.61c.038-.242.113-.41.231-.4s.186.481.614.669c.041-.129.018-.209.315-.157s.82.095.94.268a3.021,3.021,0,0,0,.088-.711c-.014-.347-.171-.667-.129-.787s.223-.123.223-.123-.217-.2-.293-.261-.164-.161-.139-.258.317-.2.445-.242c-.059-.145-.077-.207-.077-.207a1.323,1.323,0,0,1,.453-.13,1.227,1.227,0,0,0-1.083-.783,1.773,1.773,0,0,1,.063-.208.97.97,0,0,0-.452.007c-.263.058-.348.069-.361.008s-.063-.2.141-.528a2.08,2.08,0,0,0-.818.077,1.239,1.239,0,0,0-.68.443c-.158-.193-.206-.244-.206-.244a.926.926,0,0,0,.032.966,2.847,2.847,0,0,1,.209.341,1.3,1.3,0,0,1,.669-.815,1.481,1.481,0,0,0-.5.846,3.379,3.379,0,0,1,1.8-.331,5.445,5.445,0,0,0-1.786.485,4.825,4.825,0,0,1,1.561,1.3,4.309,4.309,0,0,0-1.688-1.146c-.306.423-.031,1.622-.031,1.622a2.4,2.4,0,0,1-.17-1.6,2.133,2.133,0,0,0-.731.206,1.089,1.089,0,0,1,.375-.251C246.908,19.893,247.124,19.8,247.124,19.8Z" transform="translate(-219.281 -16.05)" fill="#0b2b13"/>
          <path id="Pfad_34" data-name="Pfad 34" d="M333.734,88.062c-.109-.285-.2-1.023-1.2-1.021a3.234,3.234,0,0,1,.13.481.831.831,0,0,0-.964.39c-.408.61-.4.82-.49.866.233,0,.777.079.756.279a5.209,5.209,0,0,0-.438,2.115c.145-.082.244-.184.416-.093s.111.528.321.907a1.884,1.884,0,0,0,.423.545s.321-1.17.738-.965c.292.134-.043.9.661,1.321,0,0,.131-.446.372-.355a3.516,3.516,0,0,0,1.643.992c0-.522-.025-1.528.65-1.451,0,0-.349-.88-.157-1a1.7,1.7,0,0,1,1.364.071,2.2,2.2,0,0,0-.177-.845,3.319,3.319,0,0,1-.22-.753c0-.154.228-.356.228-.356a1.325,1.325,0,0,0-.687-.609c-.528-.239-.461-.4-.457-.42s.138-.227.539-.269c0,0-.117-.8-1.567-.7-.007-.186-.019-.419-.019-.419a1.533,1.533,0,0,0-.854.433,3.443,3.443,0,0,0-.5,1.222A2.769,2.769,0,0,1,335.4,88a2.424,2.424,0,0,0-1.038.729,5.345,5.345,0,0,1,2.406,1.25,10.6,10.6,0,0,0-2.408-.957,7.2,7.2,0,0,0,.752,2.783,7.244,7.244,0,0,1-1.087-2.678,3.41,3.41,0,0,0-1.217,1.856,3.777,3.777,0,0,1,1.016-2.113,3.935,3.935,0,0,0-1.05-.431,6.205,6.205,0,0,1,1.187.118A1.751,1.751,0,0,1,333.734,88.062Z" transform="translate(-295.357 -77.375)" fill="#0b2b13"/>
          <path id="Pfad_35" data-name="Pfad 35" d="M354.047,184.015a1.145,1.145,0,0,0-.608-1.451,3.226,3.226,0,0,1-.1.488.831.831,0,0,0-1.036-.087c-.639.361-.727.551-.828.552.207.107.658.421.549.59a5.211,5.211,0,0,0-1.346,1.69c.167-.008.3-.054.413.1s-.139.521-.123.954a1.881,1.881,0,0,0,.131.677s.814-.9,1.094-.529c.2.251-.446.787-.007,1.477,0,0,.318-.339.492-.149a3.515,3.515,0,0,0,1.018,1.627c.236-.465.667-1.375,1.235-1,0,0,.086-.943.313-.966a1.7,1.7,0,0,1,1.185.679,2.2,2.2,0,0,0,.224-.834,3.313,3.313,0,0,1,.143-.771c.067-.138.364-.215.364-.215a1.325,1.325,0,0,0-.339-.853c-.364-.452-.233-.562-.218-.581s.225-.14.6,0c0,0,.258-.769-1.081-1.334.078-.17.173-.383.173-.383a1.532,1.532,0,0,0-.957,0,3.443,3.443,0,0,0-1,.863,2.768,2.768,0,0,1,1.221.139,2.426,2.426,0,0,0-1.255.182,5.346,5.346,0,0,1,1.583,2.2,10.6,10.6,0,0,0-1.717-1.94,7.2,7.2,0,0,0-.585,2.823,7.245,7.245,0,0,1,.239-2.88A3.41,3.41,0,0,0,351.9,186.2a3.776,3.776,0,0,1,1.86-1.427,3.936,3.936,0,0,0-.743-.859,6.2,6.2,0,0,1,1.006.641A1.758,1.758,0,0,1,354.047,184.015Z" transform="translate(-312.714 -162.801)" fill="#0b2b13"/>
          <path id="Pfad_36" data-name="Pfad 36" d="M275.271,35.836a1.255,1.255,0,0,0-.682-.8.847.847,0,0,0-.033-.252.859.859,0,0,0-1.06-.59.85.85,0,0,0-.178.073,1.38,1.38,0,0,0-.634-.332h0a1.372,1.372,0,0,0-.575-.006,2.178,2.178,0,0,1-.036-1.368c.23-.6.45-.524.338-.7a.369.369,0,0,0-.3-.165,1.823,1.823,0,0,1,1.5-.535,4.261,4.261,0,0,1,1.16.416,3.407,3.407,0,0,0-1.985,1.293,5.522,5.522,0,0,1,2.016-1,8.666,8.666,0,0,1-.075,3.093,7.414,7.414,0,0,0,.43-2.963,7.1,7.1,0,0,1,1.918,3.4,6.987,6.987,0,0,0-1.735-3.7,5.922,5.922,0,0,1,2.387.874,4.478,4.478,0,0,0-2.388-1.166,3.184,3.184,0,0,1,.954-1.07,2.39,2.39,0,0,0-1.3,1.05,1.726,1.726,0,0,1-.3-.846,1.067,1.067,0,0,1,.644-.952.819.819,0,0,0,.126.316,2.036,2.036,0,0,1,1.672.077,4.117,4.117,0,0,0-.311.584,2.206,2.206,0,0,1,1.794.75,1.849,1.849,0,0,0-.4.158,2.39,2.39,0,0,1,1,2.426c-.2-.2-1.033-.73-1.14-.42s.472.529.372,1.353a3.042,3.042,0,0,0-.424-.2,2.673,2.673,0,0,1-.687,2.03,10.689,10.689,0,0,0-.865-.7l-.147.341s-.322-.677-.683-.638a.5.5,0,0,0-.355.27C275.288,35.9,275.28,35.87,275.271,35.836Z" transform="translate(-242.532 -26.386)" fill="#0b2b13"/>
          <path id="Pfad_37" data-name="Pfad 37" d="M329.664,234.432a1.255,1.255,0,0,0,.273-1.012.844.844,0,0,0,.19-.169.858.858,0,0,0-.27-1.314,1.382,1.382,0,0,0-.083-.712h0a1.369,1.369,0,0,0-.319-.478,2.178,2.178,0,0,1,1.109-.8c.629-.15.687.076.769-.115a.369.369,0,0,0-.031-.337,1.823,1.823,0,0,1,1.288.939,4.258,4.258,0,0,1,.31,1.193,3.407,3.407,0,0,0-2.187-.911,5.523,5.523,0,0,1,1.964,1.1,8.664,8.664,0,0,1-2.6,1.681,7.417,7.417,0,0,0,2.69-1.315,7.1,7.1,0,0,1-1.726,3.5,6.988,6.988,0,0,0,2.079-3.519,5.922,5.922,0,0,1,.623,2.464,4.478,4.478,0,0,0-.383-2.63,3.185,3.185,0,0,1,1.422.185,2.391,2.391,0,0,0-1.6-.48,1.726,1.726,0,0,1,.528-.728,1.067,1.067,0,0,1,1.149,0,.82.82,0,0,0-.19.282,2.036,2.036,0,0,1,.879,1.424,4.124,4.124,0,0,0-.658.072,2.206,2.206,0,0,1,.392,1.9,1.855,1.855,0,0,0-.354-.239,2.39,2.39,0,0,1-1.442,2.191c.058-.277.021-1.265-.3-1.178s-.171.688-.909,1.07a3.019,3.019,0,0,0-.076-.461,2.672,2.672,0,0,1-2.064.577,10.675,10.675,0,0,0,.092-1.109l-.364.071s.378-.647.142-.923a.5.5,0,0,0-.423-.141C329.619,234.484,329.642,234.459,329.664,234.432Z" transform="translate(-293.79 -204.65)" fill="#0b2b13"/>
          <path id="Pfad_38" data-name="Pfad 38" d="M351.91,142.013a1.169,1.169,0,0,0-.34-.916.786.786,0,0,0,.053-.231.8.8,0,0,0-.736-.858.79.79,0,0,0-.179.007,1.286,1.286,0,0,0-.447-.5h0a1.276,1.276,0,0,0-.5-.191,2.029,2.029,0,0,1,.41-1.207c.4-.454.563-.313.521-.5a.344.344,0,0,0-.205-.239,1.7,1.7,0,0,1,1.485.017,3.97,3.97,0,0,1,.88.738,3.174,3.174,0,0,0-2.152.49,5.147,5.147,0,0,1,2.086-.225,8.076,8.076,0,0,1-1.064,2.68,6.91,6.91,0,0,0,1.332-2.451,6.616,6.616,0,0,1,.58,3.589,6.51,6.51,0,0,0-.323-3.794,5.518,5.518,0,0,1,1.8,1.534,4.172,4.172,0,0,0-1.711-1.79,2.967,2.967,0,0,1,1.179-.627,2.227,2.227,0,0,0-1.472.5,1.607,1.607,0,0,1,.008-.838.994.994,0,0,1,.87-.624.765.765,0,0,0,.008.317,1.9,1.9,0,0,1,1.437.606,3.832,3.832,0,0,0-.46.41s1.113.343,1.326,1.234a1.723,1.723,0,0,0-.4.01,2.226,2.226,0,0,1,.089,2.442c-.106-.242-.667-.972-.861-.735s.242.615-.112,1.3a2.82,2.82,0,0,0-.307-.309s-.089.781-1.255,1.553a9.97,9.97,0,0,0-.53-.892l-.238.25s-.063-.7-.391-.778a.46.46,0,0,0-.4.122C351.9,142.077,351.907,142.045,351.91,142.013Z" transform="translate(-311.897 -121.79)" fill="#0b2b13"/>
        </g>
      </g>
      <path id="Pfad_201" data-name="Pfad 201" d="M7.856,15H12.24a.2.2,0,0,0,.224-.224V13.368a.2.2,0,0,0-.224-.224h-1.1V5.368h1.1a.2.2,0,0,0,.224-.224V3.736a.2.2,0,0,0-.224-.224H7.856a.2.2,0,0,0-.224.224V5.144a.2.2,0,0,0,.224.224h1.1V8.36H4.224V5.368h1.1c.144,0,.24-.064.24-.224V3.736c0-.144-.08-.224-.24-.224H.944a.2.2,0,0,0-.224.224V5.144a.2.2,0,0,0,.224.224h1.1v7.776H.944a.2.2,0,0,0-.224.224v1.408A.2.2,0,0,0,.944,15H5.328a.215.215,0,0,0,.24-.224V13.368c0-.144-.08-.224-.24-.224h-1.1V10.168H8.96v2.976h-1.1a.2.2,0,0,0-.224.224v1.408A.2.2,0,0,0,7.856,15Zm8.032-3.6h5.248a.253.253,0,0,0,.256-.256c0-2.624-1.248-4.128-3.744-4.128A3.921,3.921,0,0,0,13.7,11.048a3.925,3.925,0,0,0,4.144,4.064,4.3,4.3,0,0,0,3.552-1.664.256.256,0,0,0-.048-.352l-.768-.832a.2.2,0,0,0-.336.032,2.988,2.988,0,0,1-2.224,1.024A2.038,2.038,0,0,1,15.888,11.4Zm3.472-1.232H15.936A1.653,1.653,0,0,1,17.728,8.7,1.492,1.492,0,0,1,19.36,10.168ZM29.424,15h1.888a.2.2,0,0,0,.224-.224V13.512c0-.144-.08-.208-.224-.208h-.784V7.352a.2.2,0,0,0-.224-.224H27.712a.21.21,0,0,0-.224.224V8.616c0,.144.08.208.224.208H28.4v3.392a1.365,1.365,0,0,1-1.392,1.04c-1.024,0-1.312-.672-1.312-1.648V7.864a.658.658,0,0,0-.752-.736H22.768a.2.2,0,0,0-.208.224V8.616c0,.144.064.208.208.208h.8V12.3a2.662,2.662,0,0,0,2.816,2.816,2.188,2.188,0,0,0,2.256-1.36h.048v.512A.653.653,0,0,0,29.424,15Zm3.616,0h3.6a.2.2,0,0,0,.208-.224V13.512c0-.144-.064-.208-.208-.208h-.688V11.352A2.364,2.364,0,0,1,38.4,9.176h.56a.24.24,0,0,0,.24-.256V7.3a.24.24,0,0,0-.24-.256,3.252,3.252,0,0,0-3.248,2.08h-.064V7.352c0-.144-.064-.224-.208-.224h-2.4a.2.2,0,0,0-.224.224V8.616a.2.2,0,0,0,.224.208h.784V13.3H33.04c-.144,0-.224.064-.224.208v1.264A.21.21,0,0,0,33.04,15ZM43.456,4.456a1.36,1.36,0,1,0-2.72,0,1.36,1.36,0,0,0,2.72,0ZM40.5,15h3.6a.21.21,0,0,0,.224-.224V13.512c0-.144-.08-.208-.224-.208h-.688V7.352a.2.2,0,0,0-.224-.224H40.5c-.144,0-.208.08-.208.224V8.616a.186.186,0,0,0,.208.208h.784V13.3H40.5c-.144,0-.208.064-.208.208v1.264A.2.2,0,0,0,40.5,15Zm8.88,3.776c2.288,0,4.128-1.152,4.128-3.648v-6.3h.736a.186.186,0,0,0,.208-.208V7.352c0-.144-.064-.224-.208-.224h-2.4a.2.2,0,0,0-.224.224l.016.816H51.6A2.65,2.65,0,0,0,49.232,7c-2.08,0-3.6,1.488-3.6,4.08,0,2.368,1.36,4.048,3.568,4.048a2.463,2.463,0,0,0,2.272-1.2v1.2c0,1.232-.848,1.792-2.192,1.792a3.044,3.044,0,0,1-2.208-.752c-.112-.1-.24-.112-.32.016L46,17.256c-.1.112-.016.256.08.336A4.6,4.6,0,0,0,49.376,18.776Zm.24-5.456a1.957,1.957,0,0,1-1.888-2.208c0-1.392.752-2.288,1.888-2.288,1.024,0,1.856.768,1.856,2.272C51.472,12.584,50.608,13.32,49.616,13.32ZM57.9,11.4h5.248a.253.253,0,0,0,.256-.256c0-2.624-1.248-4.128-3.744-4.128a3.921,3.921,0,0,0-3.952,4.032,3.925,3.925,0,0,0,4.144,4.064,4.3,4.3,0,0,0,3.552-1.664.256.256,0,0,0-.048-.352l-.768-.832a.2.2,0,0,0-.336.032,2.988,2.988,0,0,1-2.224,1.024A2.038,2.038,0,0,1,57.9,11.4Zm3.472-1.232H57.952A1.653,1.653,0,0,1,59.744,8.7,1.492,1.492,0,0,1,61.376,10.168ZM71.472,15h2.16a.2.2,0,0,0,.224-.224V13.512c0-.144-.08-.208-.224-.208h-.784V9.832a2.584,2.584,0,0,0-2.7-2.816,2.483,2.483,0,0,0-2.384,1.36h-.048V7.352c0-.144-.064-.224-.208-.224H65.1a.2.2,0,0,0-.224.224V8.616a.2.2,0,0,0,.224.208h.784V13.3H65.1c-.144,0-.224.064-.224.208v1.264A.21.21,0,0,0,65.1,15h3.6a.2.2,0,0,0,.208-.224V13.512c0-.144-.064-.208-.208-.208h-.688V9.912a1.379,1.379,0,0,1,1.392-1.04c1.024,0,1.312.672,1.312,1.648v3.744A.658.658,0,0,0,71.472,15Zm3.776,0h3.6a.2.2,0,0,0,.208-.224V13.512c0-.144-.064-.208-.208-.208H78.16V11.352a2.364,2.364,0,0,1,2.448-2.176h.56a.24.24,0,0,0,.24-.256V7.3a.24.24,0,0,0-.24-.256,3.252,3.252,0,0,0-3.248,2.08h-.064V7.352c0-.144-.064-.224-.208-.224h-2.4a.2.2,0,0,0-.224.224V8.616a.2.2,0,0,0,.224.208h.784V13.3h-.784c-.144,0-.224.064-.224.208v1.264A.21.21,0,0,0,75.248,15Zm9.168-3.6h5.248a.253.253,0,0,0,.256-.256c0-2.624-1.248-4.128-3.744-4.128a3.921,3.921,0,0,0-3.952,4.032,3.925,3.925,0,0,0,4.144,4.064,4.3,4.3,0,0,0,3.552-1.664.256.256,0,0,0-.048-.352l-.768-.832a.2.2,0,0,0-.336.032,2.988,2.988,0,0,1-2.224,1.024A2.038,2.038,0,0,1,84.416,11.4Zm3.472-1.232H84.464A1.653,1.653,0,0,1,86.256,8.7,1.492,1.492,0,0,1,87.888,10.168Zm7.392,4.96c2.288,0,3.088-1.2,3.088-2.32,0-2.9-4.592-1.936-4.592-3.328,0-.512.464-.784,1.072-.784,1.056,0,1.584.544,1.584.976v.144a.253.253,0,0,0,.256.256h1.168a.257.257,0,0,0,.272-.256v-2.4a.243.243,0,0,0-.256-.256H96.96a.248.248,0,0,0-.272.256l.048.464H96.7a2.679,2.679,0,0,0-2.192-.864c-1.792,0-2.832,1.008-2.832,2.416,0,2.848,4.4,2.1,4.4,3.264,0,.5-.432.752-1.184.752a1.773,1.773,0,0,1-1.792-.992V12.3a.243.243,0,0,0-.256-.256H91.664a.253.253,0,0,0-.256.256l-.016,2.448a.257.257,0,0,0,.272.256h1.008a.253.253,0,0,0,.256-.256c0-.1-.032-.592-.032-.592h.032A2.986,2.986,0,0,0,95.28,15.128Zm8.224-.016a3.038,3.038,0,0,0,2.176-.88c.112-.128.144-.288.048-.384l-.688-.928a.271.271,0,0,0-.368-.032,1.2,1.2,0,0,1-.928.368c-.752,0-1.056-.5-1.056-1.2V8.824h1.984a.248.248,0,0,0,.272-.256V7.384a.257.257,0,0,0-.272-.256h-1.984V5.336a.267.267,0,0,0-.272-.256H100.8a.253.253,0,0,0-.256.256V7.128h-.768a.253.253,0,0,0-.256.256V8.568a.243.243,0,0,0,.256.256h.768v3.248A2.692,2.692,0,0,0,103.5,15.112ZM112.752,15h1.872a.2.2,0,0,0,.224-.224V13.512c0-.144-.064-.208-.224-.208h-.784V10.312c0-2.4-1.472-3.3-3.536-3.3a4.7,4.7,0,0,0-3.344,1.1.173.173,0,0,0-.016.272l.8,1.024a.24.24,0,0,0,.24.08,3.866,3.866,0,0,1,2.176-.624c.992,0,1.552.432,1.552,1.392v.128h-1.12c-2.56,0-4.1.8-4.1,2.448,0,1.392,1.056,2.3,2.656,2.3a3.161,3.161,0,0,0,2.816-1.5H112v.624A.664.664,0,0,0,112.752,15Zm-1.04-3.408v.816a2.286,2.286,0,0,1-1.792.928c-.72,0-1.2-.3-1.2-.864,0-.656.832-.88,2.016-.88ZM122.464,15h1.888a.2.2,0,0,0,.224-.224V13.512c0-.144-.08-.208-.224-.208h-.784V7.352a.2.2,0,0,0-.224-.224h-2.592a.21.21,0,0,0-.224.224V8.616c0,.144.08.208.224.208h.688v3.392a1.365,1.365,0,0,1-1.392,1.04c-1.024,0-1.312-.672-1.312-1.648V7.864a.658.658,0,0,0-.752-.736h-2.176a.2.2,0,0,0-.208.224V8.616c0,.144.064.208.208.208h.8V12.3a2.662,2.662,0,0,0,2.816,2.816,2.188,2.188,0,0,0,2.256-1.36h.048v.512A.653.653,0,0,0,122.464,15Zm3.616,0h3.6a.2.2,0,0,0,.208-.224V13.512c0-.144-.064-.208-.208-.208h-.688V11.352a2.364,2.364,0,0,1,2.448-2.176H132a.24.24,0,0,0,.24-.256V7.3a.24.24,0,0,0-.24-.256,3.252,3.252,0,0,0-3.248,2.08h-.064V7.352c0-.144-.064-.224-.208-.224h-2.4a.2.2,0,0,0-.224.224V8.616a.2.2,0,0,0,.224.208h.784V13.3h-.784c-.144,0-.224.064-.224.208v1.264A.21.21,0,0,0,126.08,15ZM138.9,15h1.872a.2.2,0,0,0,.224-.224V13.512c0-.144-.064-.208-.224-.208h-.784V10.312c0-2.4-1.472-3.3-3.536-3.3a4.7,4.7,0,0,0-3.344,1.1.173.173,0,0,0-.016.272l.8,1.024a.24.24,0,0,0,.24.08,3.866,3.866,0,0,1,2.176-.624c.992,0,1.552.432,1.552,1.392v.128h-1.12c-2.56,0-4.1.8-4.1,2.448,0,1.392,1.056,2.3,2.656,2.3a3.161,3.161,0,0,0,2.816-1.5h.032v.624A.664.664,0,0,0,138.9,15Zm-1.04-3.408v.816a2.286,2.286,0,0,1-1.792.928c-.72,0-1.2-.3-1.2-.864,0-.656.832-.88,2.016-.88ZM148.64,15h2.16a.2.2,0,0,0,.224-.224V13.512c0-.144-.08-.208-.224-.208h-.784V9.832a2.584,2.584,0,0,0-2.7-2.816,2.483,2.483,0,0,0-2.384,1.36h-.048V7.352c0-.144-.064-.224-.208-.224h-2.4a.2.2,0,0,0-.224.224V8.616a.2.2,0,0,0,.224.208h.784V13.3h-.784c-.144,0-.224.064-.224.208v1.264a.21.21,0,0,0,.224.224h3.6a.2.2,0,0,0,.208-.224V13.512c0-.144-.064-.208-.208-.208h-.688V9.912a1.379,1.379,0,0,1,1.392-1.04c1.024,0,1.312.672,1.312,1.648v3.744A.658.658,0,0,0,148.64,15Zm7.2.112a3.039,3.039,0,0,0,2.176-.88c.112-.128.144-.288.048-.384l-.688-.928a.271.271,0,0,0-.368-.032,1.2,1.2,0,0,1-.928.368c-.752,0-1.056-.5-1.056-1.2V8.824h1.984a.248.248,0,0,0,.272-.256V7.384a.257.257,0,0,0-.272-.256h-1.984V5.336a.267.267,0,0,0-.272-.256h-1.616a.253.253,0,0,0-.256.256V7.128h-.768a.253.253,0,0,0-.256.256V8.568a.243.243,0,0,0,.256.256h.768v3.248A2.692,2.692,0,0,0,155.84,15.112ZM7.856,35H12.24a.2.2,0,0,0,.224-.224V33.368a.2.2,0,0,0-.224-.224h-1.1V25.368h1.1a.2.2,0,0,0,.224-.224V23.736a.2.2,0,0,0-.224-.224H7.856a.2.2,0,0,0-.224.224v1.408a.2.2,0,0,0,.224.224h1.1V28.36H4.224V25.368h1.1c.144,0,.24-.064.24-.224V23.736c0-.144-.08-.224-.24-.224H.944a.2.2,0,0,0-.224.224v1.408a.2.2,0,0,0,.224.224h1.1v7.776H.944a.2.2,0,0,0-.224.224v1.408A.2.2,0,0,0,.944,35H5.328a.215.215,0,0,0,.24-.224V33.368c0-.144-.08-.224-.24-.224h-1.1V30.168H8.96v2.976h-1.1a.2.2,0,0,0-.224.224v1.408A.2.2,0,0,0,7.856,35Zm12.256,0h1.872a.2.2,0,0,0,.224-.224V33.512c0-.144-.064-.208-.224-.208H21.2V30.312c0-2.4-1.472-3.3-3.536-3.3a4.7,4.7,0,0,0-3.344,1.1.173.173,0,0,0-.016.272l.8,1.024a.24.24,0,0,0,.24.08,3.866,3.866,0,0,1,2.176-.624c.992,0,1.552.432,1.552,1.392v.128h-1.12c-2.56,0-4.1.8-4.1,2.448,0,1.392,1.056,2.3,2.656,2.3a3.161,3.161,0,0,0,2.816-1.5h.032v.624A.664.664,0,0,0,20.112,35Zm-1.04-3.408v.816a2.286,2.286,0,0,1-1.792.928c-.72,0-1.2-.3-1.2-.864,0-.656.832-.88,2.016-.88ZM29.824,35h1.888a.2.2,0,0,0,.224-.224V33.512c0-.144-.08-.208-.224-.208h-.784V27.352a.2.2,0,0,0-.224-.224H28.112a.21.21,0,0,0-.224.224v1.264c0,.144.08.208.224.208H28.8v3.392a1.365,1.365,0,0,1-1.392,1.04c-1.024,0-1.312-.672-1.312-1.648V27.864a.658.658,0,0,0-.752-.736H23.168a.2.2,0,0,0-.208.224v1.264c0,.144.064.208.208.208h.8V32.3a2.662,2.662,0,0,0,2.816,2.816,2.188,2.188,0,0,0,2.256-1.36h.048v.512A.653.653,0,0,0,29.824,35Zm5.52-3.6h5.248a.253.253,0,0,0,.256-.256c0-2.624-1.248-4.128-3.744-4.128a4.049,4.049,0,0,0,.192,8.1,4.3,4.3,0,0,0,3.552-1.664A.256.256,0,0,0,40.8,33.1l-.768-.832a.2.2,0,0,0-.336.032,2.988,2.988,0,0,1-2.224,1.024A2.038,2.038,0,0,1,35.344,31.4Zm3.472-1.232H35.392A1.653,1.653,0,0,1,37.184,28.7,1.492,1.492,0,0,1,38.816,30.168ZM42.544,35h3.6a.2.2,0,0,0,.208-.224V33.512c0-.144-.064-.208-.208-.208h-.688V31.352A2.364,2.364,0,0,1,47.9,29.176h.56a.24.24,0,0,0,.24-.256V27.3a.24.24,0,0,0-.24-.256,3.252,3.252,0,0,0-3.248,2.08h-.064V27.352c0-.144-.064-.224-.208-.224h-2.4a.2.2,0,0,0-.224.224v1.264a.2.2,0,0,0,.224.208h.784V33.3h-.784c-.144,0-.224.064-.224.208v1.264A.21.21,0,0,0,42.544,35Zm7.248,3.616h3.936a.2.2,0,0,0,.208-.224V37.128c0-.144-.064-.224-.208-.224h-1.1V34.728c0-.192-.048-.672-.048-.672h.048a2.391,2.391,0,0,0,2.256,1.056c2.224,0,3.584-1.664,3.584-4.032,0-2.592-1.52-4.064-3.6-4.064A2.625,2.625,0,0,0,52.5,28.168h-.048l.016-.816c0-.144-.064-.224-.208-.224h-2.4a.2.2,0,0,0-.224.224v1.264a.2.2,0,0,0,.224.208h.7V36.9h-.768a.2.2,0,0,0-.224.224v1.264A.2.2,0,0,0,49.792,38.616Zm4.672-5.3a1.922,1.922,0,0,1-1.84-2.176c0-1.6.864-2.32,1.84-2.32,1.136,0,1.888.9,1.888,2.288A1.949,1.949,0,0,1,54.464,33.32Zm7.568-1.92H67.28a.253.253,0,0,0,.256-.256c0-2.624-1.248-4.128-3.744-4.128a4.049,4.049,0,0,0,.192,8.1,4.3,4.3,0,0,0,3.552-1.664.256.256,0,0,0-.048-.352l-.768-.832a.2.2,0,0,0-.336.032A2.988,2.988,0,0,1,64.16,33.32,2.038,2.038,0,0,1,62.032,31.4ZM65.5,30.168H62.08A1.653,1.653,0,0,1,63.872,28.7,1.492,1.492,0,0,1,65.5,30.168ZM69.232,35h3.6a.2.2,0,0,0,.208-.224V33.512c0-.144-.064-.208-.208-.208h-.688V31.352a2.364,2.364,0,0,1,2.448-2.176h.56a.24.24,0,0,0,.24-.256V27.3a.24.24,0,0,0-.24-.256,3.252,3.252,0,0,0-3.248,2.08H71.84V27.352c0-.144-.064-.224-.208-.224h-2.4a.2.2,0,0,0-.224.224v1.264a.2.2,0,0,0,.224.208h.784V33.3h-.784c-.144,0-.224.064-.224.208v1.264A.21.21,0,0,0,69.232,35Zm7.184,0h3.6a.2.2,0,0,0,.224-.224V33.512c0-.144-.08-.208-.224-.208h-.688V23.816c0-.208-.1-.3-.32-.3H76.416a.2.2,0,0,0-.224.224v1.248a.21.21,0,0,0,.224.224H77.2v8.1h-.784c-.144,0-.224.064-.224.208v1.264A.21.21,0,0,0,76.416,35Zm7.376-3.6H89.04a.253.253,0,0,0,.256-.256c0-2.624-1.248-4.128-3.744-4.128a4.049,4.049,0,0,0,.192,8.1A4.3,4.3,0,0,0,89.3,33.448a.256.256,0,0,0-.048-.352l-.768-.832a.2.2,0,0,0-.336.032A2.988,2.988,0,0,1,85.92,33.32,2.038,2.038,0,0,1,83.792,31.4Zm3.472-1.232H83.84A1.653,1.653,0,0,1,85.632,28.7,1.492,1.492,0,0,1,87.264,30.168Z" transform="translate(1401 1227)" fill="#033202"/>
    </g>
    <rect id="Rechteck_423" data-name="Rechteck 423" width="230" height="60" transform="translate(1332 1207)" fill="none"/>
  </g>
</svg>
