<?xml version="1.0" encoding="UTF-8"?><svg id="Text" xmlns="http://www.w3.org/2000/svg" viewBox="0 0 512 512"><path d="m228.97,282.1c-3.97,0-7.29-2.85-7.9-6.77l-15.83-101.9c-.36-2.31.31-4.66,1.83-6.44,1.52-1.78,3.74-2.79,6.07-2.79h87.28c2.36,0,4.59,1.04,6.11,2.84,1.52,1.8,2.17,4.17,1.77,6.5l-17.4,101.9c-.66,3.86-3.98,6.65-7.89,6.65h-54.05Z" fill="#fff"/><path d="m300.42,166.2c1.77,0,3.44.78,4.59,2.13,1.14,1.35,1.63,3.13,1.33,4.88l-17.4,101.9c-.49,2.89-2.98,4.99-5.91,4.99h-54.05c-2.98,0-5.47-2.14-5.93-5.08l-15.83-101.9c-.27-1.73.23-3.49,1.37-4.83,1.14-1.33,2.8-2.09,4.55-2.09h87.28m0-4h-87.28c-2.92,0-5.69,1.27-7.59,3.49-1.91,2.23-2.74,5.16-2.29,8.05l15.83,101.9c.76,4.9,4.92,8.46,9.88,8.46h54.05c4.89,0,9.03-3.5,9.86-8.32l17.4-101.9c.49-2.92-.31-5.88-2.21-8.13-1.9-2.26-4.69-3.55-7.64-3.55h0Z" fill="#370e04"/><path d="m255.17,383.52c-99.13,0-179.78-72.28-179.78-161.12S156.04,61.28,255.17,61.28s179.78,72.28,179.78,161.12-80.65,161.12-179.78,161.12Zm0-317.24c-96.37,0-174.78,70.04-174.78,156.12s78.41,156.12,174.78,156.12,174.78-70.04,174.78-156.12-78.41-156.12-174.78-156.12Z" fill="#370e04"/><path d="m270.68,50.31c-3.49,7.48,14.13,15.72,14.37,3.19.3-15.51-22.82-20.36-27.76-4.47-5.13,16.5,12.47,28.58,24.01,35.57,6.12,3.71,11.95,6.51,13.84,14.18,1.23,5.01.74,11.64-.9,16.53-2.03,6.08-6.54,10.71-12.85,12.23-5.72,1.38-13.1.27-17.51-3.87-3.88-3.65-5.75-9.63-3.44-14.59,2.36-5.07,7.96-7.45,12.13-2.5,1.03,1.23-1.13-2.16-1.5-2.59-3.86-4.59-9.29-4.96-12.61.85-3.09,5.43-.98,11.26,2.35,15.94,4.49,6.31,9.89,10.72,18.05,10.78,14.96.12,20.1-14.1,18.95-26.96-1.33-14.91-14.07-20.13-25.48-27.65-8.06-5.32-15.82-14.11-12.64-24.44,1.73-5.64,7.21-9.69,13.1-10.13,5.31-.4,10.35,2.61,9.8,8.83-.16,1.84-.55,3.2-2.08,4.31-2.28,1.66-8.94,1.49-7.43-1.74.38-.82-2.59-3.05-2.4-3.48h0Z" fill="#370e04"/><path d="m279.05,132.57c-.07,0-.13,0-.2,0-7.47-.06-13.46-3.62-18.85-11.2-4.39-6.18-5.23-12.06-2.41-17.01,2.09-3.68,4.69-4.64,6.5-4.81,2.72-.25,5.46,1.11,7.74,3.81.02.03,2.3,2.87,1.95,3.84l-.2.54-.58.11c-.61.11-.97-.32-1.21-.61-1.48-1.76-3.22-2.57-5.04-2.33-2.16.29-4.23,2.05-5.42,4.6-1.98,4.26-.66,9.79,3.22,13.44,4.43,4.17,11.7,4.81,16.59,3.63,5.71-1.38,10.13-5.6,12.14-11.57,1.66-4.95,2.01-11.37.87-15.98-1.61-6.56-6.29-9.34-11.7-12.56-.56-.33-1.12-.67-1.68-1.01-8.25-5-30.18-18.28-24.44-36.72,2.65-8.54,10.27-11.32,16.64-10.29,6.42,1.04,13.25,6.2,13.08,15.07-.09,4.79-2.58,6.45-4.05,7.01-3.63,1.39-8.17-.64-10.61-3.26-2.15-2.3-2.74-5-1.62-7.39l1.81.84c.15-.33.06-.62.01-.7.08.14.46.54.74.83,1.11,1.16,2.15,2.25,1.64,3.34-.25.53-.08.68.06.79,1.06.87,4.52.71,5.87-.28,1.22-.89,1.53-1.95,1.68-3.59.2-2.24-.41-4.15-1.77-5.52-1.61-1.63-4.14-2.44-6.96-2.23-5.62.42-10.64,4.3-12.22,9.43-3.52,11.44,7.39,20.11,12.24,23.32,1.79,1.18,3.64,2.32,5.42,3.42,9.94,6.13,19.34,11.92,20.5,24.98.81,9-1.48,17.37-6.1,22.39-3.46,3.76-8.06,5.66-13.65,5.66Zm-9.46-4.52c2.81,1.69,5.85,2.5,9.28,2.52,5.11.05,9.26-1.65,12.37-5.02,4.25-4.61,6.34-12.41,5.58-20.85,0,0,0-.02,0-.02.04,3.7-.52,7.65-1.63,10.96-2.22,6.65-7.17,11.34-13.56,12.88-3.42.83-7.92.83-12.03-.48Zm-4.88-26.53c-.14,0-.29,0-.43.02-1.92.17-3.63,1.49-4.95,3.81-1.61,2.83-1.64,5.76-.9,8.46,0-1.78.35-3.53,1.09-5.14,1.47-3.17,4.14-5.37,6.97-5.74.7-.09,1.39-.07,2.07.05-1.25-.95-2.58-1.45-3.86-1.45Zm5.68-61.27c-4.7,0-10.03,2.32-12.14,9.09-1.24,4-1.11,7.73.02,11.21-.51-2.57-.45-5.36.47-8.32,1.81-5.9,7.56-10.35,13.98-10.83,1.38-.1,2.71,0,3.95.3-1.29-.62-2.66-1.05-4-1.26-.73-.12-1.49-.18-2.27-.18Zm4.22,17.12c2.17,1.42,4.85,2,6.69,1.3,2.21-.85,2.72-3.28,2.76-5.18.03-1.33-.13-2.56-.43-3.69.02.49.01.99-.03,1.51-.18,2.06-.67,3.71-2.49,5.03-1.46,1.06-4.34,1.53-6.49,1.03Zm-3.37-4.77c.05.73.3,1.39.63,1.96.01-.31.08-.63.21-.96-.15-.25-.51-.66-.84-1.01Z" fill="#370e04"/><path d="m240.86,50.64c3.66,7.4-13.77,16.04-14.3,3.51-.65-15.5,22.36-20.87,27.65-5.08,5.49,16.38-11.83,28.85-23.21,36.1-6.04,3.84-11.8,6.78-13.52,14.49-1.12,5.03-.48,11.65,1.27,16.51,2.17,6.03,6.78,10.56,13.12,11.94,5.75,1.25,13.1-.02,17.42-4.26,3.79-3.74,5.54-9.75,3.12-14.66-2.47-5.02-8.13-7.27-12.18-2.23-1.01,1.25,1.08-2.18,1.44-2.63,3.76-4.68,9.18-5.17,12.62.57,3.22,5.36,1.23,11.23-1.99,15.99-4.34,6.41-9.65,10.94-17.8,11.18-14.95.45-20.41-13.65-19.55-26.53,1-14.94,13.62-20.44,24.86-28.21,7.94-5.5,15.5-14.46,12.09-24.72-1.86-5.6-7.42-9.52-13.32-9.84-5.31-.28-10.29,2.84-9.6,9.05.2,1.84.62,3.18,2.18,4.27,2.31,1.61,8.97,1.29,7.39-1.91-.4-.81,2.53-3.11,2.32-3.53h0Z" fill="#370e04"/><path d="m233.78,133.08c-5.35,0-9.8-1.8-13.23-5.36-4.74-4.91-7.2-13.23-6.6-22.25.88-13.08,10.14-19.08,19.94-25.43,1.76-1.14,3.58-2.32,5.34-3.54,4.78-3.31,15.49-12.23,11.71-23.58-1.69-5.09-6.8-8.85-12.43-9.15-2.83-.14-5.34.72-6.91,2.38-1.32,1.4-1.89,3.32-1.64,5.56.18,1.64.51,2.69,1.76,3.55,1.38.96,4.84,1.04,5.88.15.14-.12.3-.26.04-.79-.54-1.08.48-2.2,1.56-3.38.27-.3.65-.71.72-.85-.04.08-.13.37.03.7l1.79-.89c1.17,2.37.64,5.07-1.46,7.42-2.38,2.67-6.88,4.8-10.53,3.5-1.48-.53-4-2.13-4.2-6.92-.37-8.87,6.34-14.18,12.74-15.36,6.34-1.17,14.02,1.44,16.87,9.92,6.14,18.31-15.48,32.08-23.62,37.26-.56.35-1.11.7-1.66,1.04-5.34,3.34-9.95,6.22-11.42,12.82-1.03,4.63-.54,11.04,1.23,15.95,2.13,5.93,6.65,10.05,12.39,11.3,4.91,1.07,12.17.27,16.5-4,3.8-3.74,5-9.29,2.92-13.51-1.24-2.53-3.36-4.24-5.52-4.48-1.82-.2-3.54.64-4.98,2.44-.23.29-.58.73-1.2.63l-.57-.09-.22-.54c-.37-.96,1.84-3.85,1.86-3.88,2.21-2.75,4.92-4.16,7.65-3.98,1.81.12,4.43,1.03,6.61,4.66,2.93,4.89,2.23,10.79-2.02,17.06-3.29,4.85-8.79,11.32-18.6,11.62-.25,0-.5.01-.74.01Zm-17.84-27.5s0,.02,0,.03c-.57,8.46,1.69,16.21,6.04,20.72,3.18,3.3,7.38,4.9,12.48,4.74,3.42-.1,6.44-.98,9.22-2.73-4.07,1.4-8.57,1.49-12.01.74-6.43-1.4-11.48-5.99-13.85-12.58-1.18-3.29-1.83-7.23-1.87-10.93Zm29.53-2.47c.24,0,.49.01.74.04,2.83.31,5.55,2.45,7.1,5.59.78,1.59,1.18,3.33,1.21,5.11.68-2.71.59-5.64-1.08-8.44-1.37-2.29-3.11-3.56-5.03-3.7-1.41-.1-2.89.45-4.26,1.53.44-.09.88-.14,1.33-.14Zm-7.57-61.36c.24,0,.48,0,.72.02,6.43.34,12.28,4.67,14.22,10.52.98,2.95,1.1,5.73.65,8.31,1.05-3.5,1.1-7.24-.23-11.21-2.63-7.84-9.52-9.52-14.61-8.58-1.34.25-2.69.7-3.97,1.35,1.01-.27,2.09-.41,3.21-.41Zm-9.99,8.67c-.28,1.14-.41,2.37-.35,3.7.08,1.9.64,4.32,2.88,5.12,1.86.66,4.53.03,6.66-1.45-2.14.55-5.03.14-6.52-.89-1.85-1.28-2.38-2.92-2.6-4.98-.06-.51-.08-1.02-.07-1.5Zm11.63,3.55c.13.32.21.64.23.95.31-.58.55-1.25.58-1.98-.32.35-.67.77-.81,1.03Z" fill="#370e04"/><rect x="251.22" y="112.41" width="10.18" height="5.63" rx=".8" ry=".8" transform="translate(-1.27 2.87) rotate(-.64)" fill="#370e04"/><rect x="249.88" y="57.56" width="12.36" height="6.29" rx=".94" ry=".94" transform="translate(-.66 2.86) rotate(-.64)" fill="#370e04"/><polygon points="244.53 135.66 195.5 157.52 314.83 157.52 268.75 135.66 244.53 135.66" fill="#370e04"/><path d="m314.83,157.52h-119.33s0,0,0,0,0,0,0,0l49.03-21.86s0,0,0,0h24.22l46.08,21.86s0,0,0,0c0,0,0,0,0,0Zm-119.3,0h119.28l-46.06-21.85h-24.22s-49.01,21.85-49.01,21.85Z" fill="#370e04"/><path d="m282.64,275h-54.05c-.99,0-1.82-.72-1.98-1.69l-15.83-101.9c-.09-.58.08-1.16.46-1.61.38-.44.94-.7,1.52-.7h87.28c.59,0,1.15.26,1.53.71.38.45.54,1.05.44,1.63l-17.4,101.9c-.16.96-1,1.66-1.97,1.66Zm-52.34-4h50.65l16.72-97.9h-82.57l15.21,97.9Z" fill="#370e04"/><rect x="219.67" y="214.12" width="72.81" height="3" fill="#370e04"/><rect x="254.9" y="171.1" width="3" height="101.9" fill="#370e04"/><path d="m260.89,122.22h-7.9c-.82,0-1.49.73-1.49,1.62l-2,10.91c0,.9.67,1.62,1.49,1.62h11.9c.82,0,1.49-.73,1.49-1.62l-2-10.91c0-.9-.67-1.62-1.49-1.62Z" fill="#370e04"/><path d="m147.04,386.11l-22.67,27.33-3.3-2.74c-.3-.25-.47-.53-.51-.84-.04-.31.06-.61.31-.91l9.74-11.75-10.48-8.69-10.52,12.68-3.3-2.74c-.65-.54-.72-1.13-.2-1.75l22.67-27.33,3.3,2.74c.3.25.47.53.51.84.04.31-.06.61-.31.91l-9.17,11.05,10.48,8.7,9.95-11.99,3.3,2.74c.65.54.72,1.12.2,1.75Z" fill="#370e04"/><path d="m155.83,425.31c.46-1.42.92-2.85,1.37-4.29l-10.41-5.6c-1.11,1.33-2.21,2.69-3.27,4.08-1.07,1.39-2.11,2.76-3.11,4.1l-3.59-1.93c-.68-.37-.8-.93-.35-1.69.6-.88,1.23-1.73,1.9-2.53,2.18-2.72,4.36-5.27,6.52-7.66,2.17-2.39,4.25-4.59,6.27-6.62s3.93-3.85,5.75-5.48c1.82-1.63,3.47-3.05,4.96-4.25l4.67,2.51c.37.2.61.43.71.69.1.26.12.59.07,1-.2,1.94-.5,4.22-.92,6.85-.41,2.63-.96,5.5-1.66,8.62s-1.53,6.41-2.51,9.87c-.98,3.46-2.11,6.98-3.38,10.54l-3.97-2.13c-.65-.35-.83-.91-.54-1.68.54-1.52,1.03-2.98,1.49-4.4Zm.37-20.5c-2.17,2.14-4.42,4.51-6.74,7.11l9.19,4.95c.89-3.37,1.63-6.55,2.22-9.55.59-2.99,1.09-5.81,1.5-8.43-1.93,1.81-3.99,3.78-6.16,5.92Z" fill="#370e04"/><path d="m191.48,442.49c-2.49,1.48-5.77,1.54-9.86.18-1.88-.62-3.48-1.39-4.79-2.29-1.32-.9-2.31-2.02-2.97-3.33s-.98-2.89-.95-4.7c.03-1.82.45-3.96,1.28-6.45l7.5-22.53,4.07,1.36c.81.27,1.08.79.82,1.56l-7.29,21.93c-.4,1.21-.67,2.33-.81,3.36-.14,1.03-.09,1.97.15,2.82.24.84.71,1.58,1.42,2.2s1.71,1.16,3.02,1.59c1.27.42,2.37.59,3.29.51.92-.08,1.73-.38,2.42-.9.69-.51,1.29-1.23,1.8-2.14s.97-2,1.4-3.28l7.66-23.03,4.07,1.36c.37.12.63.32.78.59.15.27.17.6.04.96l-7.11,21.37c-1.47,4.43-3.45,7.38-5.94,8.86Z" fill="#370e04"/><path d="m234.03,417.72l-.55,3.29-14.95-2.51-1.87,11.13,12.39,2.08c.8.13,1.14.6,1,1.4l-.56,3.34-13.59-2.28-1.94,11.55,14.32,2.4c.38.06.67.22.86.47s.25.56.19.95l-.55,3.29-19.81-3.33c-.84-.14-1.19-.61-1.05-1.41l5.88-35.02,19.23,3.23c.8.13,1.13.6,1,1.4Z" fill="#370e04"/><path d="m241.93,452.84l.81-34.86c1.56-.25,3.31-.44,5.26-.59,1.95-.15,3.91-.2,5.89-.16,4.24.1,7.29,1.1,9.15,3s2.75,4.72,2.67,8.46c-.06,2.65-.72,4.79-1.98,6.42s-2.9,2.78-4.93,3.44c.82,1.04,1.65,2.26,2.49,3.66.83,1.4,1.61,2.83,2.34,4.29.73,1.47,1.38,2.91,1.97,4.34.58,1.43,1.04,2.69,1.37,3.79l-4.61-.11c-.49-.01-.85-.12-1.08-.32-.22-.2-.4-.5-.54-.89-.3-.89-.71-1.92-1.23-3.08-.52-1.16-1.09-2.36-1.72-3.59-.62-1.23-1.31-2.47-2.06-3.71-.75-1.24-1.52-2.36-2.31-3.37l-5.67-.13-.34,14.73-4.24-.1c-.85-.02-1.26-.44-1.24-1.25Zm11.75-17.54c.92.02,1.78-.06,2.58-.23.8-.18,1.5-.5,2.09-.99.59-.48,1.06-1.17,1.4-2.06s.52-2.03.56-3.41c.03-1.38-.08-2.51-.34-3.4-.26-.89-.66-1.61-1.2-2.15-.54-.54-1.22-.92-2.07-1.13-.84-.21-1.83-.33-2.96-.36-1.2-.03-2.28-.02-3.23.03-.96.05-1.73.12-2.34.21l-.31,13.35,5.83.13Z" fill="#370e04"/><path d="m279.18,452.6l-4.29-34.6c1.51-.47,3.21-.92,5.12-1.36s3.7-.75,5.38-.96c4.24-.53,7.48,0,9.7,1.57,2.22,1.58,3.6,4.5,4.13,8.78.27,2.17.23,4.05-.13,5.62-.36,1.57-.97,2.9-1.83,3.96-.86,1.07-1.98,1.91-3.34,2.53-1.37.61-2.91,1.03-4.63,1.24-.91.11-1.88.17-2.92.17-1.03,0-2.12-.05-3.28-.15l1.7,13.73-4.21.52c-.84.1-1.31-.25-1.41-1.05Zm6.19-17.29c.93,0,1.85-.04,2.76-.16,1.12-.14,2.09-.38,2.9-.71.81-.33,1.46-.82,1.93-1.47.47-.65.79-1.48.95-2.49s.15-2.28-.04-3.79c-.2-1.61-.51-2.89-.93-3.83-.42-.95-.96-1.65-1.62-2.12-.66-.47-1.44-.75-2.32-.83s-1.87-.06-2.95.07c-1.05.13-2.04.29-2.96.47-.92.18-1.67.37-2.25.55l1.76,14.2c.93.06,1.86.1,2.79.11Z" fill="#370e04"/><path d="m326,408.46l.89,3.22-14.61,4.03,3,10.88,12.11-3.34c.78-.22,1.28.07,1.5.85l.9,3.27-13.28,3.67,3.12,11.29,14-3.86c.38-.1.7-.08.98.06.28.14.47.4.57.78l.89,3.22-19.36,5.35c-.82.23-1.33-.05-1.55-.84l-9.45-34.23,18.8-5.19c.78-.22,1.28.07,1.5.85Z" fill="#370e04"/><path d="m348.28,436.8l-14.59-31.67c1.29-.91,2.78-1.86,4.46-2.85,1.68-.99,3.42-1.9,5.22-2.73,3.85-1.77,7.03-2.22,9.54-1.33s4.55,3.03,6.11,6.43c1.11,2.41,1.46,4.62,1.04,6.64-.41,2.02-1.39,3.77-2.92,5.25,1.2.58,2.48,1.31,3.84,2.2,1.36.89,2.69,1.83,3.99,2.83s2.52,2.01,3.67,3.03,2.12,1.96,2.9,2.81l-4.19,1.93c-.45.21-.82.27-1.11.19-.29-.08-.58-.27-.87-.56-.66-.67-1.48-1.41-2.45-2.22-.98-.81-2.02-1.64-3.12-2.47-1.1-.83-2.26-1.64-3.48-2.42-1.22-.78-2.4-1.45-3.55-2.01l-5.15,2.37,6.16,13.38-3.85,1.77c-.77.36-1.33.16-1.67-.57Zm2.85-20.92c.83-.38,1.57-.83,2.21-1.34s1.12-1.11,1.45-1.8c.32-.69.44-1.52.35-2.47-.09-.95-.42-2.05-1-3.3-.58-1.25-1.18-2.22-1.8-2.9-.63-.68-1.3-1.15-2.02-1.4-.72-.25-1.5-.29-2.36-.11-.85.18-1.79.5-2.82.98-1.09.5-2.05.99-2.89,1.45-.84.46-1.51.87-2.01,1.22l5.59,12.13,5.29-2.44Z" fill="#370e04"/><path d="m381.92,419.65l-20.31-29.12,3.52-2.46c.32-.22.63-.31.94-.27.31.04.58.22.8.54l17.64,25.3,10.69-7.46c.69-.48,1.27-.4,1.74.27l1.97,2.83-15.26,10.64c-.7.49-1.28.39-1.74-.27Z" fill="#370e04"/><path d="m397.99,360.95l2.4,2.32-10.54,10.89,8.11,7.85,8.73-9.03c.57-.58,1.14-.59,1.72-.03l2.44,2.36-9.58,9.9,8.42,8.14,10.1-10.44c.27-.28.56-.43.87-.45.31-.02.61.11.89.38l2.4,2.32-13.97,14.44c-.59.61-1.18.63-1.76.07l-25.52-24.69,13.56-14.02c.57-.58,1.14-.59,1.72-.03Z" fill="#370e04"/><path d="m261.21,473.75c-29.27,0-58.86-4.47-86.93-13.21-38.08-11.87-71.73-31.17-97.29-55.83-.39-.38-.61-.9-.61-1.44s.22-1.06.61-1.44c16.99-16.36,34.92-33.97,51.08-53.57.35-.43.86-.69,1.41-.72.55-.04,1.09.16,1.49.53,35.28,32.83,82.63,49.49,133.29,46.9,49.4-2.53,96.53-23.88,129.3-58.6.37-.39.88-.62,1.42-.63.55,0,1.06.2,1.44.58l3.9,3.9c14.59,14.59,29.67,29.67,45.48,43.58.76.67.9,1.8.33,2.63-33.22,48.5-88.76,79-156.39,85.88-9.44.96-18.97,1.44-28.54,1.44Zm-179.94-70.48c24.93,23.54,57.46,42,94.21,53.45,36.72,11.44,76.1,15.46,113.87,11.61,65.76-6.7,119.84-36.05,152.49-82.71-15.42-13.66-30.11-28.35-44.33-42.57l-2.45-2.45c-33.41,34.58-80.87,55.82-130.58,58.36-51.02,2.61-98.75-13.91-134.66-46.53-15.46,18.53-32.39,35.26-48.54,50.84Z" fill="#370e04"/><path d="m69.5,390.03c-2.03,3.69,1.89,6.2,5.43,5.52,1.92-.37,3.89-1.73,5.26-3.09,5.16-5.1.14-15.32-7.22-13.79-4.37.91-9.42,5.56-10.99,9.59-1.69,4.34-1.01,9.8,2.82,12.78s8.67,2.37,13.03,1.88l4.2-3.23c-4.56,1.26-9.91,3.46-12.77,7.47-2.76,3.87-4.57,11.32,1,13.66,3.42,1.44,6.46-.5,9.1-2.55,1.33-1.03,2.86-2.15,3.46-3.78,1.42-3.81-2.08-6.62-5.47-5.18-1.48.63-3.22,2.81-4.2,3.23,3.5-1.49,7.78,3.49,5.15,5.43-1.32.97-4.43-.65-5.38-1.53-1.59-1.47-2.05-3.55-1.86-5.65.16-1.82.8-4.69,2.11-5.96,1.22-1.19,3-1.46,4.67-1.92,1.34-.37,3.47-3.15,4.2-3.23-4.3.48-9.14.91-12.8-1.91-3.45-2.65-4.37-7.46-3.25-11.51.67-2.41,1.4-4.3,3.96-4.42,1.99-.09,3.71.64,5.16,1.99,2.82,2.6,3.94,8.1,1.25,11.15l4.27-3.13c-3.05.93-9.39-.17-6.8-4.88-.44.8-3.59,1.68-4.34,3.04h0Z" fill="#370e04"/><path d="m449.82,375.9c1.1,2-.55,2.96-2.44,1.73-1.42-.93-1.56-3.61-1.49-5.11.1-2.27.61-4.25,2.33-4.8,1.93-.62,4.17.39,5.67,1.56,2.9,2.26,4.4,6.16,4.28,9.77-.09,2.7-.81,5.71-3.69,6.44-2.73.69-5.74.27-8.5-.04-1.31-.15-3.66,3.46-4.43,3.25,4.18,1.15,7.7,2.26,9.65,6.42.69,1.48,1.3,3.07,1.44,4.71.12,1.4-.79,2.93-.69,4.12-.79,1.07-.44.92,1.05-.46-.62.22-1.26.34-1.93.36-.93-.12-1.77-.1-2.66-.5-3.14-1.39-4.44-4.85-2.19-7.71-1.06.83-2.12,1.66-3.17,2.49,1.14-.5,2.2-.43,3.18.2,1.09.46,3.86-3.49,4.43-3.25-3.15-1.34-8.01,1.67-9.55,4.62-2.73,5.21,3.93,8.43,8.02,6.88,2.69-1.02,6.38-3.66,7.49-6.38.93-2.27.42-4.84-.43-7.05-1.9-4.98-5.37-6.37-10.21-7.7l-4.43,3.25c7.19.8,14.03-.54,18.78-6.49,5.55-6.96-.51-21.69-10.28-17.01-4.55,2.18-12.25,9.35-7.73,14.95,3.39,4.2,14.7-2.47,11.93-7.51-.04-.08-4.7,2.76-4.43,3.25h0Z" fill="#370e04"/><rect x="356.5" y="349.43" width="9" height="16.47" transform="translate(-140.5 275.54) rotate(-35.43)" fill="#370e04"/><rect x="163.15" y="359.44" width="9" height="16.47" transform="translate(129 769.92) rotate(-150)" fill="#370e04"/><path d="m316.33,158.21c-.38-.43-.93-.68-1.5-.68h-119.32c-.58,0-1.13.25-1.5.68-.38.43-.55,1.01-.48,1.58l6,44.87c.13.99.98,1.73,1.98,1.73h16.11c.58,0,1.14-.26,1.52-.7.38-.44.55-1.03.46-1.61l-4.5-28.98h82.57l-4.95,28.97c-.1.58.06,1.18.44,1.63.38.45.94.71,1.53.71h14.14c1,0,1.85-.74,1.98-1.73l6-44.89c.08-.57-.1-1.15-.48-1.58Zm-7.5,46.21h-14.14l5.35-31.31h-87.28l4.86,31.29h-16.11l-6-44.87h119.32l-6,44.89Z" fill="#370e04"/><path d="m127.1,114.37c.97-.42,1.79-1.1,3.52-2.01,2.47-1.3,5.51-1.75,7.58,2.17-.77.24-2.01.66-2.01.66,0,0,2.42,2,2.19,4.82-.22,2.74-1.37,5.55-1.37,5.55,0,0-2.24-3.99-3.18-2.51-.89,1.49.29,5.66-2.88,9.96l-1.31-1.59s-.5,2.56-2.98,3.98c-2.48,1.46-3.83,3.51-3.83,3.51,0,0-2.02-3.48-2.38-5.63-.35-2.24-1.04-3.79-2.14-3.65-1.05.14-1.72,4.44-5.67,6.18-.38-1.19-.16-1.93-2.91-1.45-2.71.49-7.58.88-8.69,2.47-.21-1.23-.86-3.36-.82-6.57.13-3.21,1.58-6.16,1.19-7.27-.43-1.11-2.05-1.14-2.05-1.14,0,0,2-1.83,2.71-2.41.71-.58,1.52-1.49,1.29-2.38-.23-.93-2.93-1.82-4.11-2.24.55-1.34.71-1.92.71-1.92,0,0-3.29-1.47-4.18-1.2.82-1.66,2.19-5.91,10-7.23-.37-1.4-.58-1.92-.58-1.92,0,0,1.79-.51,4.17.07,2.43.54,3.22.64,3.34.08.16-.56.58-1.86-1.31-4.87,0,0,3.58-.51,7.56.71,3.97,1.31,4.97,2.59,6.29,4.09,1.46-1.78,1.9-2.25,1.9-2.25,0,0,2.6,3.68-.3,8.92-1.26,2-1.49,2.18-1.93,3.15,0,0-.85-4.56-6.18-7.53,1.3,1.13,4.56,4.84,4.57,7.81-2.38-1.24-10.53-4.24-16.67-3.06,4.66.43,14.1,2.66,16.5,4.48-8.34,3.92-14.42,12.03-14.42,12.03,9.97-9.38,15.59-10.59,15.59-10.59,2.83,3.91.28,14.98.28,14.98,0,0,3.81-7.51,1.57-14.76,2.05-.03,4.68,1.05,6.76,1.9,0,0-.86-1.1-3.46-2.32-.37-.18-2.37-1.05-2.37-1.05Z" fill="#003a15"/><path d="m203.52,76.14c.97-.42,1.79-1.1,3.52-2.01,2.47-1.3,5.51-1.75,7.58,2.17-.77.24-2.01.66-2.01.66,0,0,2.42,2,2.19,4.82-.22,2.74-1.37,5.55-1.37,5.55,0,0-2.24-3.99-3.18-2.51-.89,1.49.29,5.66-2.88,9.96l-1.31-1.59s-.5,2.56-2.98,3.98c-2.48,1.46-3.83,3.51-3.83,3.51,0,0-2.02-3.48-2.38-5.63-.35-2.24-1.04-3.79-2.14-3.65-1.05.14-1.72,4.44-5.67,6.18-.38-1.19-.16-1.93-2.91-1.45-2.71.49-7.58.88-8.69,2.47-.21-1.23-.86-3.36-.82-6.57.13-3.21,1.58-6.16,1.19-7.27-.43-1.11-2.05-1.14-2.05-1.14,0,0,2-1.83,2.71-2.41.71-.58,1.52-1.49,1.29-2.38-.23-.93-2.93-1.82-4.11-2.24.55-1.34.71-1.92.71-1.92,0,0-3.29-1.47-4.18-1.2.82-1.66,2.19-5.91,10-7.23-.37-1.4-.58-1.92-.58-1.92,0,0,1.79-.51,4.17.07,2.43.54,3.22.64,3.34.08.16-.56.58-1.86-1.31-4.87,0,0,3.58-.51,7.56.71,3.97,1.31,4.97,2.59,6.29,4.09,1.46-1.78,1.9-2.25,1.9-2.25,0,0,2.6,3.68-.3,8.92-1.26,2-1.49,2.18-1.93,3.15,0,0-.85-4.56-6.18-7.53,1.3,1.13,4.56,4.84,4.57,7.81-2.38-1.24-10.53-4.24-16.67-3.06,4.66.43,14.1,2.66,16.5,4.48-8.34,3.92-14.42,12.03-14.42,12.03,9.97-9.38,15.59-10.59,15.59-10.59,2.83,3.91.28,14.98.28,14.98,0,0,3.81-7.51,1.57-14.76,2.05-.03,4.68,1.05,6.76,1.9,0,0-.86-1.1-3.46-2.32-.37-.18-2.37-1.05-2.37-1.05Z" fill="#003a15"/><path d="m106.21,140.23c1-2.64,1.85-9.45,11.06-9.43-.79,2.16-1.2,4.45-1.2,4.45,0,0,5.1-1.95,8.91,3.6,3.76,5.64,3.7,7.58,4.52,8-2.15.02-7.18.73-6.99,2.57.11,1.89,4.53,8.3,4.05,19.54-1.34-.76-2.26-1.7-3.84-.86-1.58.79-1.02,4.87-2.96,8.38-1.94,3.51-3.9,5.04-3.9,5.04,0,0-2.96-10.81-6.81-8.92-2.7,1.24.39,8.34-6.1,12.2,0,0-1.21-4.12-3.44-3.28-2.23.84-3.42,5.81-15.18,9.16-.01-4.82.23-14.12-6-13.4,0,0,3.22-8.13,1.45-9.27-1.82-1.14-6.65-1.73-12.6.66-.07-2.62.47-4.35,1.63-7.81,1.21-3.54,2-5.53,2.03-6.95.03-1.42-2.1-3.29-2.1-3.29,0,0,1.43-3.42,6.35-5.62,4.88-2.21,4.26-3.66,4.22-3.88-.05-.34-1.27-2.09-4.98-2.48,0,0,1.08-7.41,14.47-6.49.07-1.72.17-3.88.17-3.88,0,0,5.15.72,7.89,4,3.29,3.94,4.3,10.6,4.65,11.29-2.86-1.51-6.08-3.61-10.64-3.94,3.67,1.38,8.75,4.85,9.59,6.74-2.75.5-11.55,2.58-22.23,11.55,1.86-.92,15.22-7.92,22.24-8.84.16,3.16-1.15,12.99-6.95,25.71,2.66-4.23,7.81-12.44,10.04-24.74,2.08,1.27,8.09,6.65,11.25,17.14-.43-3.67-2.4-12.37-9.38-19.52,3.33-1.97,6.87-3.3,9.7-3.98-5.51.19-9.08.6-10.96,1.09,0,0,1.26-1.76,2.06-4.53Z" fill="#003a15"/><path d="m78.91,237.48c-.29-2.81-2.61-9.27,5.62-13.41.27,2.29.94,4.51.94,4.51,0,0,3.67-4.04,9.57-.81,5.9,3.33,6.72,5.09,7.64,5.1-1.91.99-6.08,3.89-5.07,5.45.95,1.64,7.78,5.36,12.43,15.61-1.54-.07-2.78-.5-3.82.96-1.06,1.42,1.29,4.81,1.14,8.82-.15,4.01-1.21,6.26-1.21,6.26,0,0-7.52-8.31-10.1-4.88-1.85,2.32,4.12,7.27.06,13.65,0,0-2.94-3.13-4.54-1.37-1.61,1.76-.43,6.72-9.41,15.03-2.18-4.3-6.17-12.7-11.41-9.25,0,0-.79-8.71-2.89-8.92-2.14-.2-6.71,1.45-10.95,6.27-1.25-2.31-1.55-4.09-2.07-7.71-.52-3.71-.71-5.84-1.32-7.12-.62-1.28-3.36-1.99-3.36-1.99,0,0-.27-3.69,3.13-7.88,3.36-4.17,2.15-5.19,2.01-5.36-.2-.29-2.08-1.3-5.56.03,0,0-2.38-7.1,9.99-12.32-.72-1.57-1.6-3.54-1.6-3.54,0,0,4.92-1.68,8.84,0,4.72,2.03,8.62,7.52,9.24,7.97-3.23-.05-7.05-.47-11.28,1.29,3.9-.43,10,.38,11.59,1.68-2.23,1.69-9.14,7.52-14.63,20.33,1.24-1.67,10.01-13.93,15.86-17.92,1.57,2.75,4.84,12.11,5.4,26.08.47-4.97,1.35-14.63-2.21-26.61,2.43.19,10.23,2.29,17.77,10.22-2.04-3.09-7.72-9.95-17.18-13.18,2.09-3.27,4.64-6.05,6.86-7.93-4.83,2.65-7.84,4.63-9.29,5.92,0,0,.33-2.14-.21-4.97Z" fill="#003a15"/><path d="m158.29,128.81c.93-3.27,3.24-5.95,6.3-7.36-.02-.79.08-1.57.3-2.33,1.2-4.2,5.59-6.65,9.79-5.45.58.16,1.12.39,1.64.68,1.66-1.54,3.7-2.58,5.86-3.07,0,0,0,0,0,0,0,0,0,0,0,0,1.73-.39,3.53-.42,5.31-.06,1.03-3.86,2.01-8.36.33-12.63-2.12-5.58-4.16-4.84-3.13-6.46,1.11-1.58,2.73-1.52,2.73-1.52,0,0-5.89-6.31-13.87-4.94-4.25.44-10.72,3.84-10.72,3.84,0,0,10.88,1.82,18.34,11.94-2.94-2.33-12.86-8.69-18.63-9.25-1.63,7.49-1.16,17.55.69,28.58-1.47-3.58-4.8-14.86-3.97-27.37-4.12,3.96-11.62,11.52-17.71,31.39.26-4.53,5.56-25.12,16.03-34.18-2.07.34-9.83.91-22.05,8.07,3.31-2.98,11.89-9.83,22.06-10.77-1.65-2.88-3.31-5.58-8.81-9.88,2.7.98,8.47,3.47,11.98,9.7,0,0,2.72-3.76,2.8-7.82.07-3.32-1.96-6.81-5.94-8.79-.33,1.8-1.16,2.92-1.16,2.92,0,0-7.7-3.45-15.45.71,1.47,2.13,2.87,5.39,2.87,5.39,0,0-11.53-.63-16.57,6.92,1.77.41,3.67,1.46,3.67,1.46,0,0-11.9,7.33-9.21,22.41,1.81-1.89,9.54-6.75,10.53-3.88.98,2.86-4.36,4.89-3.43,12.5,2.11-1.19,3.91-1.82,3.91-1.82,0,0-1.85,7.57,6.34,18.75,1.55-1.7,7.99-6.48,7.99-6.48l1.35,3.15s2.97-6.25,6.31-5.89c1.43.15,2.46,1.17,3.28,2.5.06-.31.14-.62.22-.93Z" fill="#003a15"/><path d="m129.33,316.62c-2.18-2.62-3.08-6.03-2.52-9.35-.66-.43-1.25-.95-1.76-1.56-2.8-3.36-2.34-8.37,1.01-11.16.46-.38.96-.71,1.48-.98-.33-2.24-.05-4.51.77-6.57,0,0,0,0,0,0,0,0,0,0,0,0,.65-1.64,1.65-3.16,2.95-4.42-2.61-3.02-5.77-6.37-10.25-7.39-5.81-1.39-6.34.7-7.1-1.06-.68-1.81.28-3.11.28-3.11,0,0-8.53,1.31-11.9,8.67-2.03,3.76-2.87,11.02-2.87,11.02,0,0,7.64-7.96,20.2-8.42-3.58,1.11-14.43,5.72-18.14,10.17,5.27,5.56,13.84,10.85,24,15.53-3.79-.8-14.98-4.4-24.85-12.14.95,5.64,2.96,16.09,15.94,32.32-3.6-2.77-17.62-18.75-19.2-32.5-.89,1.9-4.78,8.64-5.76,22.76-.59-4.41-1.42-15.36,3.53-24.3-3.31-.26-6.48-.41-13.13,1.71,2.33-1.68,7.64-5.04,14.76-4.43,0,0-1.57-4.37-4.88-6.72-2.7-1.92-6.73-2.22-10.61-.04,1.3,1.29,1.76,2.6,1.76,2.6,0,0-7.19,4.42-8.12,13.16,2.59-.01,6.08.67,6.08.67,0,0-7.02,9.17-3.62,17.59,1.34-1.23,3.27-2.21,3.27-2.21,0,0-.65,13.96,13.32,20.24-.54-2.56-.19-11.69,2.73-10.88s1.58,6.36,8.39,9.88c.21-2.42.7-4.26.7-4.26,0,0,5.21,5.8,19.07,5.33-.53-2.24-.85-10.25-.85-10.25l3.36.65s-3.49-5.98-1.31-8.53c.93-1.09,2.35-1.38,3.91-1.3-.22-.23-.44-.46-.64-.71Z" fill="#003a15"/><path d="m91.1,228.31c-.24-3.16.92-6.24,3.14-8.46-.27-.68-.43-1.39-.49-2.14-.31-4.06,2.74-7.62,6.8-7.93.56-.04,1.11-.02,1.65.06.96-1.88,2.4-3.45,4.13-4.58,0,0,0,0,0,0,0,0,0,0,0,0,1.38-.9,2.95-1.51,4.62-1.76-.35-3.7-.94-7.95-3.79-11.15-3.66-4.19-5.2-2.89-4.82-4.64.46-1.74,1.9-2.21,1.9-2.21,0,0-7.18-3.61-13.72.15-3.58,1.76-8.13,6.81-8.13,6.81,0,0,10.1-1.91,19.88,4.52-3.32-1.09-14.05-3.45-19.27-2.08.99,7.07,4.64,15.71,9.83,24.75-2.44-2.65-8.99-11.43-12.31-22.64-2.32,4.79-6.44,13.82-5.36,33.15-1.24-4.05-3.25-23.75,2.98-35.05-1.7.96-8.3,3.97-16.67,14.17,1.93-3.67,7.22-12.43,15.81-16.53-2.38-1.98-4.69-3.81-10.89-5.8,2.68-.02,8.52.3,13.6,4.61,0,0,1.17-4.16-.07-7.74-1.01-2.92-3.91-5.32-8.03-5.77.29,1.68-.07,2.93-.07,2.93,0,0-7.85-.53-13.27,5.6,1.97,1.39,4.25,3.79,4.25,3.79,0,0-10.28,3.17-12.25,11.4,1.68-.21,3.68.09,3.68.09,0,0-8.04,10.25-.82,22.56.98-2.23,6.17-8.98,7.95-6.79s-2.23,5.68,1.03,12.04c1.47-1.72,2.83-2.86,2.83-2.86,0,0,.82,7.21,11.6,14.34.8-1.99,4.89-8.24,4.89-8.24l2.2,2.31s.58-6.42,3.61-7.18c1.3-.33,2.53.22,3.67,1.13-.05-.29-.08-.59-.1-.88Z" fill="#003a15"/><path d="m383.17,111.11c-.97-.42-1.79-1.1-3.52-2.01-2.47-1.3-5.51-1.75-7.58,2.17.77.24,2.01.66,2.01.66,0,0-2.42,2-2.19,4.82.22,2.74,1.37,5.55,1.37,5.55,0,0,2.24-3.99,3.18-2.51.89,1.49-.29,5.66,2.88,9.96l1.31-1.59s.5,2.56,2.98,3.98c2.48,1.46,3.83,3.51,3.83,3.51,0,0,2.02-3.48,2.38-5.63.35-2.24,1.04-3.79,2.14-3.65,1.05.14,1.72,4.44,5.67,6.18.38-1.19.16-1.93,2.91-1.45,2.71.49,7.58.88,8.69,2.47.21-1.23.86-3.36.82-6.57-.13-3.21-1.58-6.16-1.19-7.27.43-1.11,2.05-1.14,2.05-1.14,0,0-2-1.83-2.71-2.41-.71-.58-1.52-1.49-1.29-2.38.23-.93,2.93-1.82,4.11-2.24-.55-1.34-.71-1.92-.71-1.92,0,0,3.29-1.47,4.18-1.2-.82-1.66-2.19-5.91-10-7.23.37-1.4.58-1.92.58-1.92,0,0-1.79-.51-4.17.07-2.43.54-3.22.64-3.34.08-.16-.56-.58-1.86,1.31-4.87,0,0-3.58-.51-7.56.71-3.97,1.31-4.97,2.59-6.29,4.09-1.46-1.78-1.9-2.25-1.9-2.25,0,0-2.6,3.68.3,8.92,1.26,2,1.49,2.18,1.93,3.15,0,0,.85-4.56,6.18-7.53-1.3,1.13-4.56,4.84-4.57,7.81,2.38-1.24,10.53-4.24,16.67-3.06-4.66.43-14.1,2.66-16.5,4.48,8.34,3.92,14.42,12.03,14.42,12.03-9.97-9.38-15.59-10.59-15.59-10.59-2.83,3.91-.28,14.98-.28,14.98,0,0-3.81-7.51-1.57-14.76-2.05-.03-4.68,1.05-6.76,1.9,0,0,.86-1.1,3.46-2.32.37-.18,2.37-1.05,2.37-1.05Z" fill="#003a15"/><path d="m306.75,72.88c-.97-.42-1.79-1.1-3.52-2.01-2.47-1.3-5.51-1.75-7.58,2.17.77.24,2.01.66,2.01.66,0,0-2.42,2-2.19,4.82.22,2.74,1.37,5.55,1.37,5.55,0,0,2.24-3.99,3.18-2.51.89,1.49-.29,5.66,2.88,9.96l1.31-1.59s.5,2.56,2.98,3.98c2.48,1.46,3.83,3.51,3.83,3.51,0,0,2.02-3.48,2.38-5.63.35-2.24,1.04-3.79,2.14-3.65,1.05.14,1.72,4.44,5.67,6.18.38-1.19.16-1.93,2.91-1.45,2.71.49,7.58.88,8.69,2.47.21-1.23.86-3.36.82-6.57-.13-3.21-1.58-6.16-1.19-7.27.43-1.11,2.05-1.14,2.05-1.14,0,0-2-1.83-2.71-2.41-.71-.58-1.52-1.49-1.29-2.38.23-.93,2.93-1.82,4.11-2.24-.55-1.34-.71-1.92-.71-1.92,0,0,3.29-1.47,4.18-1.2-.82-1.66-2.19-5.91-10-7.23.37-1.4.58-1.92.58-1.92,0,0-1.79-.51-4.17.07-2.43.54-3.22.64-3.34.08-.16-.56-.58-1.86,1.31-4.87,0,0-3.58-.51-7.56.71-3.97,1.31-4.97,2.59-6.29,4.09-1.46-1.78-1.9-2.25-1.9-2.25,0,0-2.6,3.68.3,8.92,1.26,2,1.49,2.18,1.93,3.15,0,0,.85-4.56,6.18-7.53-1.3,1.13-4.56,4.84-4.57,7.81,2.38-1.24,10.53-4.24,16.67-3.06-4.66.43-14.1,2.66-16.5,4.48,8.34,3.92,14.42,12.03,14.42,12.03-9.97-9.38-15.59-10.59-15.59-10.59-2.83,3.91-.28,14.98-.28,14.98,0,0-3.81-7.51-1.57-14.76-2.05-.03-4.68,1.05-6.76,1.9,0,0,.86-1.1,3.46-2.32.37-.18,2.37-1.05,2.37-1.05Z" fill="#003a15"/><path d="m404.06,136.97c-1-2.64-1.85-9.45-11.06-9.43.79,2.16,1.2,4.45,1.2,4.45,0,0-5.1-1.95-8.91,3.6-3.76,5.64-3.7,7.58-4.52,8,2.15.02,7.18.73,6.99,2.57-.11,1.89-4.53,8.3-4.05,19.54,1.34-.76,2.26-1.7,3.84-.86,1.58.79,1.02,4.87,2.96,8.38,1.94,3.51,3.9,5.04,3.9,5.04,0,0,2.96-10.81,6.81-8.92,2.7,1.24-.39,8.34,6.1,12.2,0,0,1.21-4.12,3.44-3.28,2.23.84,3.42,5.81,15.18,9.16.01-4.82-.23-14.12,6-13.4,0,0-3.22-8.13-1.45-9.27,1.82-1.14,6.65-1.73,12.6.66.07-2.62-.47-4.35-1.63-7.81-1.21-3.54-2-5.53-2.03-6.95-.03-1.42,2.1-3.29,2.1-3.29,0,0-1.43-3.42-6.35-5.62-4.88-2.21-4.26-3.66-4.22-3.88.05-.34,1.27-2.09,4.98-2.48,0,0-1.08-7.41-14.47-6.49-.07-1.72-.17-3.88-.17-3.88,0,0-5.15.72-7.89,4-3.29,3.94-4.3,10.6-4.65,11.29,2.86-1.51,6.08-3.61,10.64-3.94-3.67,1.38-8.75,4.85-9.59,6.74,2.75.5,11.55,2.58,22.23,11.55-1.86-.92-15.22-7.92-22.24-8.84-.16,3.16,1.15,12.99,6.95,25.71-2.66-4.23-7.81-12.44-10.04-24.74-2.08,1.27-8.09,6.65-11.25,17.14.43-3.67,2.4-12.37,9.38-19.52-3.33-1.97-6.87-3.3-9.7-3.98,5.51.19,9.08.6,10.96,1.09,0,0-1.26-1.76-2.06-4.53Z" fill="#003a15"/><path d="m431.36,234.21c.29-2.81,2.61-9.27-5.62-13.41-.27,2.29-.94,4.51-.94,4.51,0,0-3.67-4.04-9.57-.81-5.9,3.33-6.72,5.09-7.64,5.1,1.91.99,6.08,3.89,5.07,5.45-.95,1.64-7.78,5.36-12.43,15.61,1.54-.07,2.78-.5,3.82.96,1.06,1.42-1.29,4.81-1.14,8.82.15,4.01,1.21,6.26,1.21,6.26,0,0,7.52-8.31,10.1-4.88,1.85,2.32-4.12,7.27-.06,13.65,0,0,2.94-3.13,4.54-1.37,1.61,1.76.43,6.72,9.41,15.03,2.18-4.3,6.17-12.7,11.41-9.25,0,0,.79-8.71,2.89-8.92,2.14-.2,6.71,1.45,10.95,6.27,1.25-2.31,1.55-4.09,2.07-7.71.52-3.71.71-5.84,1.32-7.12.62-1.28,3.36-1.99,3.36-1.99,0,0,.27-3.69-3.13-7.88-3.36-4.17-2.15-5.19-2.01-5.36.2-.29,2.08-1.3,5.56.03,0,0,2.38-7.1-9.99-12.32.72-1.57,1.6-3.54,1.6-3.54,0,0-4.92-1.68-8.84,0-4.72,2.03-8.62,7.52-9.24,7.97,3.23-.05,7.05-.47,11.28,1.29-3.9-.43-10,.38-11.59,1.68,2.23,1.69,9.14,7.52,14.63,20.33-1.24-1.67-10.01-13.93-15.86-17.92-1.57,2.75-4.84,12.11-5.4,26.08-.47-4.97-1.35-14.63,2.21-26.61-2.43.19-10.23,2.29-17.77,10.22,2.04-3.09,7.72-9.95,17.18-13.18-2.09-3.27-4.64-6.05-6.86-7.93,4.83,2.65,7.84,4.63,9.29,5.92,0,0-.33-2.14.21-4.97Z" fill="#003a15"/><path d="m351.98,125.54c-.93-3.27-3.24-5.95-6.3-7.36.02-.79-.08-1.57-.3-2.33-1.2-4.2-5.59-6.65-9.79-5.45-.58.16-1.12.39-1.64.68-1.66-1.54-3.7-2.58-5.86-3.07,0,0,0,0,0,0,0,0,0,0,0,0-1.73-.39-3.53-.42-5.31-.06-1.03-3.86-2.01-8.36-.33-12.63,2.12-5.58,4.16-4.84,3.13-6.46-1.11-1.58-2.73-1.52-2.73-1.52,0,0,5.89-6.31,13.87-4.94,4.25.44,10.72,3.84,10.72,3.84,0,0-10.88,1.82-18.34,11.94,2.94-2.33,12.86-8.69,18.63-9.25,1.63,7.49,1.16,17.55-.69,28.58,1.47-3.58,4.8-14.86,3.97-27.37,4.12,3.96,11.62,11.52,17.71,31.39-.26-4.53-5.56-25.12-16.03-34.18,2.07.34,9.83.91,22.05,8.07-3.31-2.98-11.89-9.83-22.06-10.77,1.65-2.88,3.31-5.58,8.81-9.88-2.7.98-8.47,3.47-11.98,9.7,0,0-2.72-3.76-2.8-7.82-.07-3.32,1.96-6.81,5.94-8.79.33,1.8,1.16,2.92,1.16,2.92,0,0,7.7-3.45,15.45.71-1.47,2.13-2.87,5.39-2.87,5.39,0,0,11.53-.63,16.57,6.92-1.77.41-3.67,1.46-3.67,1.46,0,0,11.9,7.33,9.21,22.41-1.81-1.89-9.54-6.75-10.53-3.88-.98,2.86,4.36,4.89,3.43,12.5-2.11-1.19-3.91-1.82-3.91-1.82,0,0,1.85,7.57-6.34,18.75-1.55-1.7-7.99-6.48-7.99-6.48l-1.35,3.15s-2.97-6.25-6.31-5.89c-1.43.15-2.46,1.17-3.28,2.5-.06-.31-.14-.62-.22-.93Z" fill="#003a15"/><path d="m380.94,313.35c2.18-2.62,3.08-6.03,2.52-9.35.66-.43,1.25-.95,1.76-1.56,2.8-3.36,2.34-8.37-1.01-11.16-.46-.38-.96-.71-1.48-.98.33-2.24.05-4.51-.77-6.57,0,0,0,0,0,0,0,0,0,0,0,0-.65-1.64-1.65-3.16-2.95-4.42,2.61-3.02,5.77-6.37,10.25-7.39,5.81-1.39,6.34.7,7.1-1.06.68-1.81-.28-3.11-.28-3.11,0,0,8.53,1.31,11.9,8.67,2.03,3.76,2.87,11.02,2.87,11.02,0,0-7.64-7.96-20.2-8.42,3.58,1.11,14.43,5.72,18.14,10.17-5.27,5.56-13.84,10.85-24,15.53,3.79-.8,14.98-4.4,24.85-12.14-.95,5.64-2.96,16.09-15.94,32.32,3.6-2.77,17.62-18.75,19.2-32.5.89,1.9,4.78,8.64,5.76,22.76.59-4.41,1.42-15.36-3.53-24.3,3.31-.26,6.48-.41,13.13,1.71-2.33-1.68-7.64-5.04-14.76-4.43,0,0,1.57-4.37,4.88-6.72,2.7-1.92,6.73-2.22,10.61-.04-1.3,1.29-1.76,2.6-1.76,2.6,0,0,7.19,4.42,8.12,13.16-2.59-.01-6.08.67-6.08.67,0,0,7.02,9.17,3.62,17.59-1.34-1.23-3.27-2.21-3.27-2.21,0,0,.65,13.96-13.32,20.24.54-2.56.19-11.69-2.73-10.88s-1.58,6.36-8.39,9.88c-.21-2.42-.7-4.26-.7-4.26,0,0-5.21,5.8-19.07,5.33.53-2.24.85-10.25.85-10.25l-3.36.65s3.49-5.98,1.31-8.53c-.93-1.09-2.35-1.38-3.91-1.3.22-.23.44-.46.64-.71Z" fill="#003a15"/><path d="m419.17,225.05c.24-3.16-.92-6.24-3.14-8.46.27-.68.43-1.39.49-2.14.31-4.06-2.74-7.62-6.8-7.93-.56-.04-1.11-.02-1.65.06-.96-1.88-2.4-3.45-4.13-4.58,0,0,0,0,0,0,0,0,0,0,0,0-1.38-.9-2.95-1.51-4.62-1.76.35-3.7.94-7.95,3.79-11.15,3.66-4.19,5.2-2.89,4.82-4.64-.46-1.74-1.9-2.21-1.9-2.21,0,0,7.18-3.61,13.72.15,3.58,1.76,8.13,6.81,8.13,6.81,0,0-10.1-1.91-19.88,4.52,3.32-1.09,14.05-3.45,19.27-2.08-.99,7.07-4.64,15.71-9.83,24.75,2.44-2.65,8.99-11.43,12.31-22.64,2.32,4.79,6.44,13.82,5.36,33.15,1.24-4.05,3.25-23.75-2.98-35.05,1.7.96,8.3,3.97,16.67,14.17-1.93-3.67-7.22-12.43-15.81-16.53,2.38-1.98,4.69-3.81,10.89-5.8-2.68-.02-8.52.3-13.6,4.61,0,0-1.17-4.16.07-7.74,1.01-2.92,3.91-5.32,8.03-5.77-.29,1.68.07,2.93.07,2.93,0,0,7.85-.53,13.27,5.6-1.97,1.39-4.25,3.79-4.25,3.79,0,0,10.28,3.17,12.25,11.4-1.68-.21-3.68.09-3.68.09,0,0,8.04,10.25.82,22.56-.98-2.23-6.17-8.98-7.95-6.79s2.23,5.68-1.03,12.04c-1.47-1.72-2.83-2.86-2.83-2.86,0,0-.82,7.21-11.6,14.34-.8-1.99-4.89-8.24-4.89-8.24l-2.2,2.31s-.58-6.42-3.61-7.18c-1.3-.33-2.53.22-3.67,1.13.05-.29.08-.59.1-.88Z" fill="#003a15"/></svg>