<?xml version="1.0" encoding="UTF-8"?><svg id="Text" xmlns="http://www.w3.org/2000/svg" viewBox="0 0 192 192"><path d="m85.22,106.41c-1.58,0-2.91-1.14-3.16-2.7l-6.32-40.67c-.14-.92.12-1.86.73-2.57.61-.71,1.49-1.11,2.42-1.11h34.83c.94,0,1.83.41,2.44,1.13.61.72.87,1.67.71,2.59l-6.94,40.67c-.26,1.54-1.59,2.65-3.15,2.65h-21.57Z" fill="#fff"/><path d="m113.73,60.16c.71,0,1.37.31,1.83.85.46.54.65,1.25.53,1.95l-6.94,40.66c-.2,1.15-1.19,1.99-2.36,1.99h-21.57c-1.19,0-2.18-.85-2.37-2.03l-6.32-40.66c-.11-.69.09-1.39.55-1.93.46-.53,1.12-.84,1.82-.84h34.83m0-1.6h-34.83c-1.17,0-2.27.51-3.03,1.39-.76.89-1.09,2.06-.91,3.21l6.32,40.66c.3,1.96,1.96,3.38,3.94,3.38h21.57c1.95,0,3.61-1.4,3.93-3.32l6.94-40.66c.2-1.16-.12-2.35-.88-3.25-.76-.9-1.87-1.42-3.05-1.42h0Z" fill="#370e04"/><path d="m95.67,146.89c-39.56,0-71.74-28.84-71.74-64.3S56.11,18.29,95.67,18.29s71.74,28.84,71.74,64.3-32.18,64.3-71.74,64.3Zm0-126.6c-38.46,0-69.75,27.95-69.75,62.3s31.29,62.3,69.75,62.3,69.75-27.95,69.75-62.3-31.29-62.3-69.75-62.3Z" fill="#370e04"/><path d="m101.86,13.92c-1.39,2.99,5.64,6.28,5.74,1.27.12-6.19-9.11-8.13-11.08-1.78-2.05,6.58,4.98,11.41,9.58,14.19,2.44,1.48,4.77,2.6,5.52,5.66.49,2,.3,4.64-.36,6.6-.81,2.43-2.61,4.27-5.13,4.88-2.28.55-5.23.11-6.99-1.55-1.55-1.46-2.3-3.84-1.37-5.82s3.18-2.97,4.84-1c.41.49-.45-.86-.6-1.04-1.54-1.83-3.71-1.98-5.03.34-1.23,2.17-.39,4.49.94,6.36,1.79,2.52,3.95,4.28,7.2,4.3,5.97.05,8.02-5.63,7.56-10.76-.53-5.95-5.62-8.03-10.17-11.04-3.22-2.12-6.31-5.63-5.05-9.75.69-2.25,2.88-3.87,5.23-4.04,2.12-.16,4.13,1.04,3.91,3.52-.06.73-.22,1.28-.83,1.72-.91.66-3.57.59-2.96-.7.15-.33-1.04-1.22-.96-1.39h0Z" fill="#370e04"/><path d="m105.2,46.74s-.05,0-.08,0c-2.98-.02-5.37-1.44-7.52-4.47-1.75-2.47-2.09-4.81-.96-6.79.84-1.47,1.87-1.85,2.6-1.92,1.08-.1,2.18.44,3.09,1.52,0,.01.92,1.15.78,1.53l-.08.22-.23.04c-.25.04-.39-.13-.48-.24-.59-.7-1.29-1.02-2.01-.93-.86.11-1.69.82-2.16,1.84-.79,1.7-.26,3.9,1.29,5.36,1.77,1.67,4.67,1.92,6.62,1.45,2.28-.55,4.04-2.23,4.84-4.62.66-1.98.8-4.54.35-6.38-.64-2.62-2.51-3.73-4.67-5.01-.22-.13-.45-.27-.67-.4-3.29-1.99-12.04-7.29-9.75-14.65,1.06-3.41,4.1-4.52,6.64-4.11,2.56.41,5.29,2.47,5.22,6.01-.04,1.91-1.03,2.57-1.61,2.8-1.45.55-3.26-.26-4.23-1.3-.86-.92-1.09-1.99-.65-2.95l.72.34c.06-.13.02-.25,0-.28.03.06.19.22.3.33.44.46.86.9.65,1.33-.1.21-.03.27.02.32.42.35,1.8.28,2.34-.11.49-.36.61-.78.67-1.43.08-.89-.16-1.66-.7-2.2-.64-.65-1.65-.97-2.78-.89-2.24.17-4.25,1.72-4.88,3.76-1.4,4.56,2.95,8.03,4.88,9.3.71.47,1.45.93,2.16,1.36,3.97,2.45,7.72,4.76,8.18,9.97.32,3.59-.59,6.93-2.43,8.93-1.38,1.5-3.22,2.26-5.45,2.26Zm-3.78-1.81c1.12.67,2.34,1,3.7,1.01,2.04.02,3.69-.66,4.93-2,1.7-1.84,2.53-4.95,2.23-8.32,0,0,0,0,0,0,.02,1.48-.21,3.05-.65,4.38-.89,2.65-2.86,4.53-5.41,5.14-1.37.33-3.16.33-4.8-.19Zm-1.95-10.59c-.06,0-.11,0-.17,0-.76.07-1.45.59-1.97,1.52-.64,1.13-.65,2.3-.36,3.38,0-.71.14-1.41.44-2.05.59-1.26,1.65-2.14,2.78-2.29.28-.04.55-.03.83.02-.5-.38-1.03-.58-1.54-.58Zm2.26-24.45c-1.88,0-4,.92-4.84,3.63-.5,1.6-.44,3.08,0,4.47-.2-1.03-.18-2.14.19-3.32.72-2.35,3.02-4.13,5.58-4.32.55-.04,1.08,0,1.58.12-.52-.25-1.06-.42-1.6-.5-.29-.05-.6-.07-.91-.07Zm1.68,6.83c.86.57,1.93.8,2.67.52.88-.34,1.09-1.31,1.1-2.07.01-.53-.05-1.02-.17-1.47,0,.2,0,.4-.01.6-.07.82-.27,1.48-.99,2.01-.58.42-1.73.61-2.59.41Zm-1.35-1.9c.02.29.12.56.25.78,0-.12.03-.25.08-.38-.06-.1-.2-.26-.33-.4Z" fill="#370e04"/><path d="m89.96,14.05c1.46,2.95-5.5,6.4-5.71,1.4-.26-6.18,8.92-8.33,11.04-2.03,2.19,6.54-4.72,11.51-9.26,14.41-2.41,1.53-4.71,2.7-5.39,5.78-.45,2.01-.19,4.65.51,6.59.87,2.41,2.7,4.21,5.24,4.76,2.29.5,5.23,0,6.95-1.7,1.51-1.49,2.21-3.89,1.24-5.85s-3.24-2.9-4.86-.89c-.4.5.43-.87.57-1.05,1.5-1.87,3.66-2.06,5.04.23,1.28,2.14.49,4.48-.8,6.38-1.73,2.56-3.85,4.36-7.1,4.46-5.97.18-8.14-5.45-7.8-10.59.4-5.96,5.44-8.16,9.92-11.26,3.17-2.19,6.19-5.77,4.83-9.86-.74-2.24-2.96-3.8-5.32-3.93-2.12-.11-4.11,1.13-3.83,3.61.08.73.25,1.27.87,1.7.92.64,3.58.51,2.95-.76-.16-.32,1.01-1.24.93-1.41h0Z" fill="#370e04"/><path d="m87.13,46.95c-2.14,0-3.91-.72-5.28-2.14-1.89-1.96-2.87-5.28-2.63-8.88.35-5.22,4.05-7.61,7.96-10.15.7-.46,1.43-.93,2.13-1.41,1.91-1.32,6.18-4.88,4.67-9.41-.67-2.03-2.71-3.53-4.96-3.65-1.13-.06-2.13.29-2.76.95-.53.56-.75,1.33-.66,2.22.07.65.21,1.07.7,1.42.55.38,1.93.42,2.35.06.05-.05.12-.1.02-.32-.21-.43.19-.88.62-1.35.11-.12.26-.28.29-.34-.02.03-.05.15.01.28l.72-.35c.47.94.25,2.02-.58,2.96-.95,1.07-2.74,1.92-4.2,1.39-.59-.21-1.6-.85-1.68-2.76-.15-3.54,2.53-5.66,5.08-6.13,2.53-.47,5.6.57,6.73,3.96,2.45,7.31-6.18,12.8-9.42,14.87-.22.14-.44.28-.66.42-2.13,1.33-3.97,2.48-4.56,5.11-.41,1.85-.21,4.41.49,6.37.85,2.37,2.65,4.01,4.94,4.51,1.96.43,4.85.11,6.58-1.6,1.52-1.49,1.99-3.71,1.17-5.39-.5-1.01-1.34-1.69-2.2-1.79-.72-.08-1.41.26-1.99.97-.09.12-.23.29-.48.25l-.23-.04-.09-.22c-.15-.38.73-1.54.74-1.55.88-1.1,1.96-1.66,3.05-1.59.72.05,1.77.41,2.64,1.86,1.17,1.95.89,4.3-.81,6.81-1.31,1.93-3.51,4.52-7.42,4.64-.1,0-.2,0-.3,0Zm-7.12-10.97s0,0,0,.01c-.23,3.38.68,6.47,2.41,8.27,1.27,1.32,2.94,1.96,4.98,1.89,1.37-.04,2.57-.39,3.68-1.09-1.63.56-3.42.6-4.79.3-2.57-.56-4.58-2.39-5.53-5.02-.47-1.31-.73-2.88-.75-4.36Zm11.78-.98c.1,0,.2,0,.29.02,1.13.12,2.22.98,2.83,2.23.31.63.47,1.33.48,2.04.27-1.08.24-2.25-.43-3.37-.55-.91-1.24-1.42-2.01-1.48-.56-.04-1.15.18-1.7.61.17-.04.35-.05.53-.05Zm-3.02-24.49c.1,0,.19,0,.29,0,2.57.14,4.9,1.86,5.67,4.2.39,1.18.44,2.29.26,3.32.42-1.4.44-2.89-.09-4.47-1.05-3.13-3.8-3.8-5.83-3.43-.53.1-1.07.28-1.59.54.4-.11.83-.16,1.28-.16Zm-3.99,3.46c-.11.45-.16.95-.14,1.47.03.76.26,1.72,1.15,2.04.74.26,1.81.01,2.66-.58-.86.22-2.01.06-2.6-.35-.74-.51-.95-1.16-1.04-1.99-.02-.2-.03-.41-.03-.6Zm4.64,1.42c.05.13.08.26.09.38.12-.23.22-.5.23-.79-.13.14-.27.31-.33.41Z" fill="#370e04"/><rect x="94.09" y="38.7" width="4.06" height="2.25" rx=".32" ry=".32" transform="translate(-.44 1.08) rotate(-.64)" fill="#370e04"/><rect x="93.56" y="16.81" width="4.93" height="2.51" rx=".37" ry=".37" transform="translate(-.2 1.07) rotate(-.64)" fill="#370e04"/><polygon points="91.42 47.98 71.86 56.7 119.48 56.7 101.09 47.98 91.42 47.98" fill="#370e04"/><path d="m119.48,56.7h-47.62s0,0,0,0,0,0,0,0l19.57-8.72s0,0,0,0h9.67l18.39,8.72s0,0,0,0c0,0,0,0,0,0Zm-47.61,0h47.6l-18.38-8.72h-9.66s-19.56,8.72-19.56,8.72Z" fill="#370e04"/><path d="m106.63,103.58h-21.57c-.39,0-.73-.29-.79-.68l-6.32-40.66c-.04-.23.03-.46.18-.64.15-.18.37-.28.61-.28h34.83c.23,0,.46.1.61.28.15.18.22.42.18.65l-6.94,40.66c-.07.38-.4.66-.79.66Zm-20.89-1.6h20.21l6.67-39.07h-32.95l6.07,39.07Z" fill="#370e04"/><rect x="81.5" y="79.29" width="29.05" height="1.2" fill="#370e04"/><rect x="95.56" y="62.12" width="1.2" height="40.66" fill="#370e04"/><path d="m97.95,42.61h-3.15c-.33,0-.6.29-.6.65l-.8,4.36c0,.36.27.65.6.65h4.75c.33,0,.6-.29.6-.65l-.8-4.36c0-.36-.27-.65-.6-.65Z" fill="#370e04"/><path d="m52.52,147.92l-9.05,10.91-1.32-1.09c-.12-.1-.19-.21-.2-.33-.02-.12.02-.24.12-.36l3.89-4.69-4.18-3.47-4.2,5.06-1.32-1.09c-.26-.22-.29-.45-.08-.7l9.05-10.91,1.32,1.09c.12.1.19.21.2.33.02.12-.02.25-.12.36l-3.66,4.41,4.18,3.47,3.97-4.79,1.32,1.09c.26.22.29.45.08.7Z" fill="#370e04"/><path d="m56.02,163.57c.18-.57.37-1.14.55-1.71l-4.15-2.23c-.44.53-.88,1.07-1.31,1.63-.43.56-.84,1.1-1.24,1.64l-1.43-.77c-.27-.15-.32-.37-.14-.68.24-.35.49-.69.76-1.01.87-1.08,1.74-2.1,2.6-3.05.86-.95,1.7-1.83,2.5-2.64s1.57-1.54,2.29-2.19c.73-.65,1.39-1.22,1.98-1.7l1.86,1c.15.08.24.17.29.27.04.1.05.23.03.4-.08.77-.2,1.69-.37,2.73-.16,1.05-.38,2.19-.66,3.44s-.61,2.56-1,3.94c-.39,1.38-.84,2.78-1.35,4.21l-1.58-.85c-.26-.14-.33-.36-.22-.67.21-.61.41-1.19.6-1.76Zm.15-8.18c-.87.85-1.76,1.8-2.69,2.84l3.67,1.97c.36-1.35.65-2.62.88-3.81.23-1.19.43-2.32.6-3.37-.77.72-1.59,1.51-2.46,2.36Z" fill="#370e04"/><path d="m70.25,170.42c-.99.59-2.3.62-3.94.07-.75-.25-1.39-.55-1.91-.92-.53-.36-.92-.8-1.18-1.33s-.39-1.15-.38-1.88c.01-.72.18-1.58.51-2.57l2.99-8.99,1.63.54c.32.11.43.31.33.62l-2.91,8.75c-.16.48-.27.93-.32,1.34-.06.41-.04.79.06,1.12.1.34.28.63.57.88s.68.46,1.2.63c.51.17.95.24,1.31.2.37-.03.69-.15.97-.36.28-.21.52-.49.72-.85s.39-.8.56-1.31l3.06-9.19,1.63.54c.15.05.25.13.31.24.06.11.07.24.02.39l-2.84,8.53c-.59,1.77-1.38,2.95-2.37,3.54Z" fill="#370e04"/><path d="m87.23,160.54l-.22,1.31-5.97-1-.75,4.44,4.94.83c.32.05.45.24.4.56l-.22,1.33-5.42-.91-.77,4.61,5.72.96c.15.03.27.09.34.19s.1.22.08.38l-.22,1.31-7.91-1.33c-.33-.06-.47-.24-.42-.56l2.35-13.97,7.68,1.29c.32.05.45.24.4.56Z" fill="#370e04"/><path d="m90.38,174.55l.32-13.91c.62-.1,1.32-.18,2.1-.24.78-.06,1.56-.08,2.35-.06,1.69.04,2.91.44,3.65,1.2s1.1,1.88,1.06,3.38c-.02,1.06-.29,1.91-.79,2.56s-1.16,1.11-1.97,1.37c.33.42.66.9.99,1.46.33.56.64,1.13.93,1.71.29.58.55,1.16.79,1.73.23.57.42,1.07.55,1.51l-1.84-.04c-.2,0-.34-.05-.43-.13-.09-.08-.16-.2-.21-.35-.12-.36-.28-.76-.49-1.23-.21-.46-.44-.94-.69-1.43-.25-.49-.52-.99-.82-1.48-.3-.49-.61-.94-.92-1.34l-2.26-.05-.14,5.88-1.69-.04c-.34,0-.5-.17-.5-.5Zm4.69-7c.37,0,.71-.02,1.03-.09.32-.07.6-.2.83-.39.24-.19.42-.47.56-.82s.21-.81.22-1.36c.01-.55-.03-1-.14-1.36-.1-.35-.26-.64-.48-.86-.21-.22-.49-.37-.83-.45-.34-.09-.73-.13-1.18-.14-.48-.01-.91,0-1.29.01-.38.02-.69.05-.93.08l-.12,5.33,2.33.05Z" fill="#370e04"/><path d="m105.25,174.46l-1.71-13.81c.6-.19,1.28-.37,2.04-.54s1.48-.3,2.15-.38c1.69-.21,2.98,0,3.87.63.89.63,1.44,1.8,1.65,3.5.11.87.09,1.62-.05,2.24-.14.63-.39,1.16-.73,1.58-.34.43-.79.76-1.33,1.01-.55.25-1.16.41-1.85.49-.36.04-.75.07-1.16.07-.41,0-.85-.02-1.31-.06l.68,5.48-1.68.21c-.34.04-.52-.1-.56-.42Zm2.47-6.9c.37,0,.74-.02,1.1-.06.45-.06.83-.15,1.16-.28.33-.13.58-.33.77-.59.19-.26.31-.59.38-1s.06-.91-.02-1.51c-.08-.64-.2-1.15-.37-1.53-.17-.38-.38-.66-.65-.85-.27-.19-.57-.3-.93-.33s-.75-.02-1.18.03c-.42.05-.81.11-1.18.19-.37.07-.67.15-.9.22l.7,5.67c.37.02.74.04,1.11.04Z" fill="#370e04"/><path d="m123.94,156.84l.35,1.28-5.83,1.61,1.2,4.34,4.83-1.33c.31-.09.51.03.6.34l.36,1.31-5.3,1.46,1.24,4.51,5.59-1.54c.15-.04.28-.03.39.02.11.06.19.16.23.31l.35,1.28-7.73,2.13c-.33.09-.53-.02-.62-.33l-3.77-13.66,7.5-2.07c.31-.09.51.03.6.34Z" fill="#370e04"/><path d="m132.83,168.15l-5.82-12.64c.52-.36,1.11-.74,1.78-1.14.67-.39,1.37-.76,2.08-1.09,1.54-.71,2.81-.89,3.81-.53s1.81,1.21,2.44,2.57c.44.96.58,1.84.42,2.65-.16.81-.55,1.5-1.16,2.1.48.23.99.52,1.53.88.54.35,1.07.73,1.59,1.13s1.01.8,1.47,1.21.85.78,1.16,1.12l-1.67.77c-.18.08-.33.11-.44.08-.12-.03-.23-.11-.35-.22-.26-.27-.59-.56-.98-.89-.39-.33-.81-.65-1.25-.99-.44-.33-.9-.66-1.39-.97-.49-.31-.96-.58-1.42-.8l-2.05.95,2.46,5.34-1.54.71c-.31.14-.53.07-.66-.23Zm1.14-8.35c.33-.15.63-.33.88-.53s.45-.44.58-.72c.13-.28.18-.6.14-.98-.04-.38-.17-.82-.4-1.32-.23-.5-.47-.89-.72-1.16-.25-.27-.52-.46-.81-.56-.29-.1-.6-.12-.94-.04-.34.07-.71.2-1.12.39-.44.2-.82.39-1.15.58-.33.19-.6.35-.8.49l2.23,4.84,2.11-.97Z" fill="#370e04"/><path d="m146.25,161.31l-8.11-11.62,1.41-.98c.13-.09.25-.12.38-.11.12.02.23.09.32.22l7.04,10.1,4.27-2.98c.28-.19.51-.16.69.11l.79,1.13-6.09,4.25c-.28.19-.51.16-.69-.11Z" fill="#370e04"/><path d="m152.66,137.88l.96.93-4.21,4.35,3.24,3.13,3.49-3.6c.23-.23.46-.24.69-.01l.97.94-3.82,3.95,3.36,3.25,4.03-4.16c.11-.11.22-.17.35-.18.12,0,.24.04.35.15l.96.93-5.57,5.76c-.24.24-.47.25-.7.03l-10.18-9.85,5.41-5.59c.23-.23.45-.24.69-.01Z" fill="#370e04"/><path d="m98.08,182.9c-11.68,0-23.49-1.78-34.69-5.27-15.2-4.74-28.62-12.44-38.83-22.28-.16-.15-.24-.36-.24-.57s.09-.42.24-.57c6.78-6.53,13.94-13.56,20.38-21.38.14-.17.34-.27.56-.29.22-.02.44.06.6.21,14.08,13.1,32.97,19.75,53.19,18.71,19.71-1.01,38.52-9.53,51.6-23.39.15-.16.35-.25.57-.25.22,0,.42.08.58.23l1.55,1.55c5.82,5.82,11.84,11.84,18.15,17.39.3.27.36.72.13,1.05-13.26,19.35-35.42,31.52-62.41,34.27-3.77.38-7.57.57-11.39.57Zm-71.81-28.13c9.95,9.39,22.93,16.76,37.59,21.33,14.65,4.57,30.37,6.17,45.44,4.63,26.24-2.67,47.82-14.39,60.85-33.01-6.15-5.45-12.02-11.31-17.69-16.99l-.98-.98c-13.33,13.8-32.27,22.28-52.11,23.29-20.36,1.04-39.41-5.55-53.74-18.57-6.17,7.4-12.93,14.07-19.37,20.29Z" fill="#370e04"/><path d="m21.58,149.49c-.81,1.47.75,2.47,2.17,2.2.76-.15,1.55-.69,2.1-1.23,2.06-2.03.05-6.11-2.88-5.5-1.75.36-3.76,2.22-4.38,3.83-.67,1.73-.4,3.91,1.13,5.1s3.46.95,5.2.75l1.68-1.29c-1.82.5-3.96,1.38-5.1,2.98s-1.82,4.52.4,5.45c1.36.57,2.58-.2,3.63-1.02.53-.41,1.14-.86,1.38-1.51.57-1.52-.83-2.64-2.18-2.07-.59.25-1.28,1.12-1.68,1.29,1.4-.59,3.1,1.39,2.05,2.17-.53.39-1.77-.26-2.15-.61-.63-.59-.82-1.42-.74-2.25.06-.72.32-1.87.84-2.38.49-.47,1.2-.58,1.86-.77.53-.15,1.39-1.26,1.68-1.29-1.72.19-3.65.36-5.11-.76-1.38-1.06-1.74-2.98-1.3-4.59.27-.96.56-1.72,1.58-1.76.79-.04,1.48.26,2.06.79,1.12,1.04,1.57,3.23.5,4.45l1.7-1.25c-1.22.37-3.75-.07-2.71-1.95-.18.32-1.43.67-1.73,1.21h0Z" fill="#370e04"/><path d="m173.35,143.85c.44.8-.22,1.18-.97.69-.57-.37-.62-1.44-.6-2.04.04-.91.24-1.7.93-1.92.77-.25,1.66.16,2.26.62,1.16.9,1.75,2.46,1.71,3.9-.04,1.08-.32,2.28-1.47,2.57-1.09.28-2.29.11-3.39-.01-.52-.06-1.46,1.38-1.77,1.3,1.67.46,3.07.9,3.85,2.56.28.59.52,1.22.58,1.88.05.56-.32,1.17-.28,1.64-.32.43-.18.37.42-.18-.25.09-.5.14-.77.14-.37-.05-.71-.04-1.06-.2-1.25-.55-1.77-1.94-.87-3.08l-1.27,1c.45-.2.88-.17,1.27.08.43.18,1.54-1.39,1.77-1.3-1.26-.53-3.2.67-3.81,1.85-1.09,2.08,1.57,3.37,3.2,2.74,1.07-.41,2.55-1.46,2.99-2.54.37-.91.17-1.93-.17-2.81-.76-1.99-2.14-2.54-4.07-3.07l-1.77,1.3c2.87.32,5.6-.22,7.49-2.59,2.22-2.78-.2-8.65-4.1-6.79-1.82.87-4.89,3.73-3.08,5.97,1.35,1.68,5.87-.98,4.76-3-.02-.03-1.87,1.1-1.77,1.3h0Z" fill="#370e04"/><rect x="136.11" y="133.28" width="3.59" height="6.57" transform="translate(-53.64 105.25) rotate(-35.43)" fill="#370e04"/><rect x="58.95" y="137.28" width="3.59" height="6.57" transform="translate(43.07 292.67) rotate(-150)" fill="#370e04"/><path d="m120.08,56.97c-.15-.17-.37-.27-.6-.27h-47.62c-.23,0-.45.1-.6.27-.15.17-.22.4-.19.63l2.39,17.91c.05.4.39.69.79.69h6.43c.23,0,.45-.1.61-.28.15-.18.22-.41.18-.64l-1.8-11.57h32.95l-1.98,11.56c-.04.23.03.47.18.65.15.18.37.28.61.28h5.64c.4,0,.74-.3.79-.69l2.39-17.91c.03-.23-.04-.46-.19-.63Zm-2.99,18.44h-5.64l2.13-12.49h-34.83l1.94,12.49h-6.43l-2.39-17.91h47.62l-2.39,17.91Z" fill="#370e04"/><path d="m44.56,39.48c.39-.17.72-.44,1.4-.8.98-.52,2.2-.7,3.03.87-.31.1-.8.26-.8.26,0,0,.96.8.87,1.92-.09,1.09-.55,2.21-.55,2.21,0,0-.89-1.59-1.27-1-.36.59.12,2.26-1.15,3.97l-.52-.63s-.2,1.02-1.19,1.59c-.99.58-1.53,1.4-1.53,1.4,0,0-.81-1.39-.95-2.25-.14-.89-.42-1.51-.85-1.46-.42.06-.68,1.77-2.26,2.47-.15-.48-.07-.77-1.16-.58-1.08.2-3.02.35-3.47.99-.08-.49-.34-1.34-.33-2.62.05-1.28.63-2.46.48-2.9-.17-.44-.82-.45-.82-.45,0,0,.8-.73,1.08-.96.28-.23.61-.59.51-.95-.09-.37-1.17-.73-1.64-.89.22-.54.28-.76.28-.76,0,0-1.31-.59-1.67-.48.33-.66.87-2.36,3.99-2.89-.15-.56-.23-.77-.23-.77,0,0,.71-.2,1.67.03.97.21,1.28.25,1.33.03.06-.22.23-.74-.52-1.94,0,0,1.43-.21,3.02.28,1.58.52,1.98,1.03,2.51,1.63.58-.71.76-.9.76-.9,0,0,1.04,1.47-.12,3.56-.5.8-.59.87-.77,1.26,0,0-.34-1.82-2.47-3,.52.45,1.82,1.93,1.82,3.12-.95-.5-4.2-1.69-6.65-1.22,1.86.17,5.63,1.06,6.59,1.79-3.33,1.56-5.76,4.8-5.76,4.8,3.98-3.74,6.22-4.23,6.22-4.23,1.13,1.56.11,5.98.11,5.98,0,0,1.52-3,.63-5.89.82-.01,1.87.42,2.7.76,0,0-.34-.44-1.38-.93-.15-.07-.95-.42-.95-.42Z" fill="#003a15"/><path d="m75.06,24.22c.39-.17.72-.44,1.4-.8.98-.52,2.2-.7,3.03.87-.31.1-.8.26-.8.26,0,0,.96.8.87,1.92-.09,1.09-.55,2.21-.55,2.21,0,0-.89-1.59-1.27-1-.36.59.12,2.26-1.15,3.97l-.52-.63s-.2,1.02-1.19,1.59c-.99.58-1.53,1.4-1.53,1.4,0,0-.81-1.39-.95-2.25-.14-.89-.42-1.51-.85-1.46-.42.06-.68,1.77-2.26,2.47-.15-.48-.07-.77-1.16-.58-1.08.2-3.02.35-3.47.99-.08-.49-.34-1.34-.33-2.62.05-1.28.63-2.46.48-2.9-.17-.44-.82-.45-.82-.45,0,0,.8-.73,1.08-.96.28-.23.61-.59.51-.95-.09-.37-1.17-.73-1.64-.89.22-.54.28-.76.28-.76,0,0-1.31-.59-1.67-.48.33-.66.87-2.36,3.99-2.89-.15-.56-.23-.77-.23-.77,0,0,.71-.2,1.67.03.97.21,1.28.25,1.33.03.06-.22.23-.74-.52-1.94,0,0,1.43-.21,3.02.28,1.58.52,1.98,1.03,2.51,1.63.58-.71.76-.9.76-.9,0,0,1.04,1.47-.12,3.56-.5.8-.59.87-.77,1.26,0,0-.34-1.82-2.47-3,.52.45,1.82,1.93,1.82,3.12-.95-.5-4.2-1.69-6.65-1.22,1.86.17,5.63,1.06,6.59,1.79-3.33,1.56-5.76,4.8-5.76,4.8,3.98-3.74,6.22-4.23,6.22-4.23,1.13,1.56.11,5.98.11,5.98,0,0,1.52-3,.63-5.89.82-.01,1.87.42,2.7.76,0,0-.34-.44-1.38-.93-.15-.07-.95-.42-.95-.42Z" fill="#003a15"/><path d="m36.23,49.8c.4-1.05.74-3.77,4.42-3.76-.32.86-.48,1.77-.48,1.77,0,0,2.04-.78,3.55,1.44,1.5,2.25,1.48,3.02,1.8,3.19-.86,0-2.86.29-2.79,1.03.04.76,1.81,3.31,1.62,7.8-.54-.3-.9-.68-1.53-.34-.63.32-.41,1.95-1.18,3.34-.77,1.4-1.56,2.01-1.56,2.01,0,0-1.18-4.31-2.72-3.56-1.08.49.16,3.33-2.44,4.87,0,0-.48-1.64-1.37-1.31-.89.34-1.37,2.32-6.06,3.66,0-1.92.09-5.63-2.4-5.35,0,0,1.29-3.24.58-3.7-.73-.46-2.65-.69-5.03.26-.03-1.05.19-1.74.65-3.12.48-1.41.8-2.21.81-2.77.01-.57-.84-1.31-.84-1.31,0,0,.57-1.36,2.53-2.24,1.95-.88,1.7-1.46,1.68-1.55-.02-.14-.51-.84-1.99-.99,0,0,.43-2.96,5.78-2.59.03-.69.07-1.55.07-1.55,0,0,2.06.29,3.15,1.59,1.31,1.57,1.71,4.23,1.86,4.5-1.14-.6-2.43-1.44-4.25-1.57,1.47.55,3.49,1.94,3.83,2.69-1.1.2-4.61,1.03-8.87,4.61.74-.37,6.07-3.16,8.88-3.53.07,1.26-.46,5.18-2.77,10.26,1.06-1.69,3.12-4.97,4.01-9.87.83.51,3.23,2.66,4.49,6.84-.17-1.47-.96-4.94-3.75-7.79,1.33-.79,2.74-1.32,3.87-1.59-2.2.07-3.62.24-4.37.44,0,0,.5-.7.82-1.81Z" fill="#003a15"/><path d="m25.33,88.61c-.12-1.12-1.04-3.7,2.24-5.35.11.91.37,1.8.37,1.8,0,0,1.46-1.61,3.82-.32,2.36,1.33,2.68,2.03,3.05,2.03-.76.4-2.43,1.55-2.02,2.17.38.65,3.11,2.14,4.96,6.23-.61-.03-1.11-.2-1.52.38-.42.57.51,1.92.45,3.52-.06,1.6-.48,2.5-.48,2.5,0,0-3-3.32-4.03-1.95-.74.93,1.64,2.9.02,5.45,0,0-1.17-1.25-1.81-.55-.64.7-.17,2.68-3.75,6-.87-1.71-2.46-5.07-4.55-3.69,0,0-.32-3.47-1.15-3.56-.85-.08-2.68.58-4.37,2.5-.5-.92-.62-1.63-.82-3.07-.21-1.48-.28-2.33-.53-2.84-.25-.51-1.34-.79-1.34-.79,0,0-.11-1.47,1.25-3.15,1.34-1.66.86-2.07.8-2.14-.08-.11-.83-.52-2.22.01,0,0-.95-2.83,3.99-4.92-.29-.63-.64-1.41-.64-1.41,0,0,1.96-.67,3.53,0,1.88.81,3.44,3,3.69,3.18-1.29-.02-2.81-.19-4.5.51,1.56-.17,3.99.15,4.63.67-.89.67-3.65,3-5.84,8.11.5-.66,3.99-5.56,6.33-7.15.63,1.1,1.93,4.83,2.16,10.41.19-1.98.54-5.84-.88-10.62.97.08,4.08.91,7.09,4.08-.81-1.23-3.08-3.97-6.86-5.26.83-1.3,1.85-2.41,2.74-3.17-1.93,1.06-3.13,1.85-3.71,2.36,0,0,.13-.85-.08-1.99Z" fill="#003a15"/><path d="m57.01,45.24c.37-1.31,1.29-2.37,2.52-2.94,0-.31.03-.62.12-.93.48-1.68,2.23-2.65,3.91-2.18.23.07.45.16.66.27.66-.61,1.48-1.03,2.34-1.23,0,0,0,0,0,0,0,0,0,0,0,0,.69-.15,1.41-.17,2.12-.02.41-1.54.8-3.34.13-5.04-.85-2.23-1.66-1.93-1.25-2.58.44-.63,1.09-.61,1.09-.61,0,0-2.35-2.52-5.54-1.97-1.7.18-4.28,1.53-4.28,1.53,0,0,4.34.73,7.32,4.77-1.17-.93-5.13-3.47-7.43-3.69-.65,2.99-.46,7,.28,11.4-.59-1.43-1.92-5.93-1.59-10.92-1.64,1.58-4.64,4.6-7.07,12.53.1-1.81,2.22-10.02,6.4-13.64-.82.13-3.92.37-8.8,3.22,1.32-1.19,4.74-3.92,8.8-4.3-.66-1.15-1.32-2.23-3.52-3.94,1.08.39,3.38,1.38,4.78,3.87,0,0,1.09-1.5,1.12-3.12.03-1.32-.78-2.72-2.37-3.51-.13.72-.46,1.16-.46,1.16,0,0-3.07-1.38-6.16.28.59.85,1.15,2.15,1.15,2.15,0,0-4.6-.25-6.61,2.76.71.17,1.46.58,1.46.58,0,0-4.75,2.93-3.68,8.94.72-.75,3.81-2.69,4.2-1.55s-1.74,1.95-1.37,4.99c.84-.47,1.56-.73,1.56-.73,0,0-.74,3.02,2.53,7.48.62-.68,3.19-2.58,3.19-2.58l.54,1.26s1.19-2.5,2.52-2.35c.57.06.98.46,1.31,1,.02-.12.05-.25.09-.37Z" fill="#003a15"/><path d="m45.45,120.19c-.87-1.04-1.23-2.41-1.01-3.73-.26-.17-.5-.38-.7-.62-1.12-1.34-.93-3.34.41-4.45.18-.15.38-.28.59-.39-.13-.9-.02-1.8.31-2.62,0,0,0,0,0,0,0,0,0,0,0,0,.26-.66.66-1.26,1.18-1.76-1.04-1.21-2.3-2.54-4.09-2.95-2.32-.55-2.53.28-2.83-.42-.27-.72.11-1.24.11-1.24,0,0-3.4.52-4.75,3.46-.81,1.5-1.14,4.4-1.14,4.4,0,0,3.05-3.17,8.06-3.36-1.43.44-5.76,2.28-7.24,4.06,2.1,2.22,5.52,4.33,9.58,6.2-1.51-.32-5.98-1.76-9.92-4.85.38,2.25,1.18,6.42,6.36,12.9-1.44-1.11-7.03-7.48-7.66-12.97-.35.76-1.91,3.45-2.3,9.08-.24-1.76-.57-6.13,1.41-9.7-1.32-.1-2.59-.17-5.24.68.93-.67,3.05-2.01,5.89-1.77,0,0-.63-1.74-1.95-2.68-1.08-.77-2.69-.89-4.23-.02.52.51.7,1.04.7,1.04,0,0-2.87,1.76-3.24,5.25,1.03,0,2.42.27,2.42.27,0,0-2.8,3.66-1.44,7.02.53-.49,1.31-.88,1.31-.88,0,0-.26,5.57,5.31,8.08-.21-1.02-.08-4.66,1.09-4.34s.63,2.54,3.35,3.94c.08-.96.28-1.7.28-1.7,0,0,2.08,2.31,7.61,2.13-.21-.89-.34-4.09-.34-4.09l1.34.26s-1.39-2.39-.52-3.4c.37-.44.94-.55,1.56-.52-.09-.09-.17-.18-.26-.28Z" fill="#003a15"/><path d="m30.19,84.95c-.1-1.26.37-2.49,1.25-3.38-.11-.27-.17-.56-.2-.85-.12-1.62,1.09-3.04,2.71-3.16.22-.02.44,0,.66.02.38-.75.96-1.38,1.65-1.83,0,0,0,0,0,0,0,0,0,0,0,0,.55-.36,1.18-.6,1.85-.7-.14-1.48-.38-3.17-1.51-4.45-1.46-1.67-2.07-1.15-1.92-1.85.18-.7.76-.88.76-.88,0,0-2.87-1.44-5.47.06-1.43.7-3.24,2.72-3.24,2.72,0,0,4.03-.76,7.94,1.8-1.32-.43-5.61-1.38-7.69-.83.4,2.82,1.85,6.27,3.92,9.88-.97-1.06-3.59-4.56-4.91-9.04-.93,1.91-2.57,5.51-2.14,13.23-.49-1.61-1.29-9.48,1.19-13.99-.68.38-3.31,1.58-6.65,5.66.77-1.47,2.88-4.96,6.31-6.6-.95-.79-1.87-1.52-4.35-2.31,1.07,0,3.4.12,5.43,1.84,0,0,.47-1.66-.03-3.09-.4-1.17-1.56-2.12-3.21-2.3.12.67-.03,1.17-.03,1.17,0,0-3.13-.21-5.3,2.24.79.55,1.7,1.51,1.7,1.51,0,0-4.1,1.26-4.89,4.55.67-.08,1.47.04,1.47.04,0,0-3.21,4.09-.33,9,.39-.89,2.46-3.58,3.17-2.71s-.89,2.27.41,4.8c.58-.69,1.13-1.14,1.13-1.14,0,0,.33,2.88,4.63,5.72.32-.79,1.95-3.29,1.95-3.29l.88.92s.23-2.56,1.44-2.87c.52-.13,1.01.09,1.46.45-.02-.12-.03-.23-.04-.35Z" fill="#003a15"/><path d="m146.75,38.18c-.39-.17-.72-.44-1.4-.8-.98-.52-2.2-.7-3.03.87.31.1.8.26.8.26,0,0-.96.8-.87,1.92.09,1.09.55,2.21.55,2.21,0,0,.89-1.59,1.27-1,.36.59-.12,2.26,1.15,3.97l.52-.63s.2,1.02,1.19,1.59c.99.58,1.53,1.4,1.53,1.4,0,0,.81-1.39.95-2.25.14-.89.42-1.51.85-1.46.42.06.68,1.77,2.26,2.47.15-.48.07-.77,1.16-.58,1.08.2,3.02.35,3.47.99.08-.49.34-1.34.33-2.62-.05-1.28-.63-2.46-.48-2.9.17-.44.82-.45.82-.45,0,0-.8-.73-1.08-.96-.28-.23-.61-.59-.51-.95.09-.37,1.17-.73,1.64-.89-.22-.54-.28-.76-.28-.76,0,0,1.31-.59,1.67-.48-.33-.66-.87-2.36-3.99-2.89.15-.56.23-.77.23-.77,0,0-.71-.2-1.67.03-.97.21-1.28.25-1.33.03-.06-.22-.23-.74.52-1.94,0,0-1.43-.21-3.02.28-1.58.52-1.98,1.03-2.51,1.63-.58-.71-.76-.9-.76-.9,0,0-1.04,1.47.12,3.56.5.8.59.87.77,1.26,0,0,.34-1.82,2.47-3-.52.45-1.82,1.93-1.82,3.12.95-.5,4.2-1.69,6.65-1.22-1.86.17-5.63,1.06-6.59,1.79,3.33,1.56,5.76,4.8,5.76,4.8-3.98-3.74-6.22-4.23-6.22-4.23-1.13,1.56-.11,5.98-.11,5.98,0,0-1.52-3-.63-5.89-.82-.01-1.87.42-2.7.76,0,0,.34-.44,1.38-.93.15-.07.95-.42.95-.42Z" fill="#003a15"/><path d="m116.25,22.92c-.39-.17-.72-.44-1.4-.8-.98-.52-2.2-.7-3.03.87.31.1.8.26.8.26,0,0-.96.8-.87,1.92.09,1.09.55,2.21.55,2.21,0,0,.89-1.59,1.27-1,.36.59-.12,2.26,1.15,3.97l.52-.63s.2,1.02,1.19,1.59c.99.58,1.53,1.4,1.53,1.4,0,0,.81-1.39.95-2.25.14-.89.42-1.51.85-1.46.42.06.68,1.77,2.26,2.47.15-.48.07-.77,1.16-.58,1.08.2,3.02.35,3.47.99.08-.49.34-1.34.33-2.62-.05-1.28-.63-2.46-.48-2.9.17-.44.82-.45.82-.45,0,0-.8-.73-1.08-.96-.28-.23-.61-.59-.51-.95.09-.37,1.17-.73,1.64-.89-.22-.54-.28-.76-.28-.76,0,0,1.31-.59,1.67-.48-.33-.66-.87-2.36-3.99-2.89.15-.56.23-.77.23-.77,0,0-.71-.2-1.67.03-.97.21-1.28.25-1.33.03-.06-.22-.23-.74.52-1.94,0,0-1.43-.21-3.02.28-1.58.52-1.98,1.03-2.51,1.63-.58-.71-.76-.9-.76-.9,0,0-1.04,1.47.12,3.56.5.8.59.87.77,1.26,0,0,.34-1.82,2.47-3-.52.45-1.82,1.93-1.82,3.12.95-.5,4.2-1.69,6.65-1.22-1.86.17-5.63,1.06-6.59,1.79,3.33,1.56,5.76,4.8,5.76,4.8-3.98-3.74-6.22-4.23-6.22-4.23-1.13,1.56-.11,5.98-.11,5.98,0,0-1.52-3-.63-5.89-.82-.01-1.87.42-2.7.76,0,0,.34-.44,1.38-.93.15-.07.95-.42.95-.42Z" fill="#003a15"/><path d="m155.08,48.5c-.4-1.05-.74-3.77-4.42-3.76.32.86.48,1.77.48,1.77,0,0-2.04-.78-3.55,1.44-1.5,2.25-1.48,3.02-1.8,3.19.86,0,2.86.29,2.79,1.03-.04.76-1.81,3.31-1.62,7.8.54-.3.9-.68,1.53-.34.63.32.41,1.95,1.18,3.34.77,1.4,1.56,2.01,1.56,2.01,0,0,1.18-4.31,2.72-3.56,1.08.49-.16,3.33,2.44,4.87,0,0,.48-1.64,1.37-1.31.89.34,1.37,2.32,6.06,3.66,0-1.92-.09-5.63,2.4-5.35,0,0-1.29-3.24-.58-3.7.73-.46,2.65-.69,5.03.26.03-1.05-.19-1.74-.65-3.12-.48-1.41-.8-2.21-.81-2.77-.01-.57.84-1.31.84-1.31,0,0-.57-1.36-2.53-2.24-1.95-.88-1.7-1.46-1.68-1.55.02-.14.51-.84,1.99-.99,0,0-.43-2.96-5.78-2.59-.03-.69-.07-1.55-.07-1.55,0,0-2.06.29-3.15,1.59-1.31,1.57-1.71,4.23-1.86,4.5,1.14-.6,2.43-1.44,4.25-1.57-1.47.55-3.49,1.94-3.83,2.69,1.1.2,4.61,1.03,8.87,4.61-.74-.37-6.07-3.16-8.88-3.53-.07,1.26.46,5.18,2.77,10.26-1.06-1.69-3.12-4.97-4.01-9.87-.83.51-3.23,2.66-4.49,6.84.17-1.47.96-4.94,3.75-7.79-1.33-.79-2.74-1.32-3.87-1.59,2.2.07,3.62.24,4.37.44,0,0-.5-.7-.82-1.81Z" fill="#003a15"/><path d="m165.98,87.31c.12-1.12,1.04-3.7-2.24-5.35-.11.91-.37,1.8-.37,1.8,0,0-1.46-1.61-3.82-.32-2.36,1.33-2.68,2.03-3.05,2.03.76.4,2.43,1.55,2.02,2.17-.38.65-3.11,2.14-4.96,6.23.61-.03,1.11-.2,1.52.38.42.57-.51,1.92-.45,3.52.06,1.6.48,2.5.48,2.5,0,0,3-3.32,4.03-1.95.74.93-1.64,2.9-.02,5.45,0,0,1.17-1.25,1.81-.55.64.7.17,2.68,3.75,6,.87-1.71,2.46-5.07,4.55-3.69,0,0,.32-3.47,1.15-3.56.85-.08,2.68.58,4.37,2.5.5-.92.62-1.63.82-3.07.21-1.48.28-2.33.53-2.84.25-.51,1.34-.79,1.34-.79,0,0,.11-1.47-1.25-3.15-1.34-1.66-.86-2.07-.8-2.14.08-.11.83-.52,2.22.01,0,0,.95-2.83-3.99-4.92.29-.63.64-1.41.64-1.41,0,0-1.96-.67-3.53,0-1.88.81-3.44,3-3.69,3.18,1.29-.02,2.81-.19,4.5.51-1.56-.17-3.99.15-4.63.67.89.67,3.65,3,5.84,8.11-.5-.66-3.99-5.56-6.33-7.15-.63,1.1-1.93,4.83-2.16,10.41-.19-1.98-.54-5.84.88-10.62-.97.08-4.08.91-7.09,4.08.81-1.23,3.08-3.97,6.86-5.26-.83-1.3-1.85-2.41-2.74-3.17,1.93,1.06,3.13,1.85,3.71,2.36,0,0-.13-.85.08-1.99Z" fill="#003a15"/><path d="m134.3,43.94c-.37-1.31-1.29-2.37-2.52-2.94,0-.31-.03-.62-.12-.93-.48-1.68-2.23-2.65-3.91-2.18-.23.07-.45.16-.66.27-.66-.61-1.48-1.03-2.34-1.23,0,0,0,0,0,0,0,0,0,0,0,0-.69-.15-1.41-.17-2.12-.02-.41-1.54-.8-3.34-.13-5.04.85-2.23,1.66-1.93,1.25-2.58-.44-.63-1.09-.61-1.09-.61,0,0,2.35-2.52,5.54-1.97,1.7.18,4.28,1.53,4.28,1.53,0,0-4.34.73-7.32,4.77,1.17-.93,5.13-3.47,7.43-3.69.65,2.99.46,7-.28,11.4.59-1.43,1.92-5.93,1.59-10.92,1.64,1.58,4.64,4.6,7.07,12.53-.1-1.81-2.22-10.02-6.4-13.64.82.13,3.92.37,8.8,3.22-1.32-1.19-4.74-3.92-8.8-4.3.66-1.15,1.32-2.23,3.52-3.94-1.08.39-3.38,1.38-4.78,3.87,0,0-1.09-1.5-1.12-3.12-.03-1.32.78-2.72,2.37-3.51.13.72.46,1.16.46,1.16,0,0,3.07-1.38,6.16.28-.59.85-1.15,2.15-1.15,2.15,0,0,4.6-.25,6.61,2.76-.71.17-1.46.58-1.46.58,0,0,4.75,2.93,3.68,8.94-.72-.75-3.81-2.69-4.2-1.55s1.74,1.95,1.37,4.99c-.84-.47-1.56-.73-1.56-.73,0,0,.74,3.02-2.53,7.48-.62-.68-3.19-2.58-3.19-2.58l-.54,1.26s-1.19-2.5-2.52-2.35c-.57.06-.98.46-1.31,1-.02-.12-.05-.25-.09-.37Z" fill="#003a15"/><path d="m145.86,118.89c.87-1.04,1.23-2.41,1.01-3.73.26-.17.5-.38.7-.62,1.12-1.34.93-3.34-.41-4.45-.18-.15-.38-.28-.59-.39.13-.9.02-1.8-.31-2.62,0,0,0,0,0,0,0,0,0,0,0,0-.26-.66-.66-1.26-1.18-1.76,1.04-1.21,2.3-2.54,4.09-2.95,2.32-.55,2.53.28,2.83-.42.27-.72-.11-1.24-.11-1.24,0,0,3.4.52,4.75,3.46.81,1.5,1.14,4.4,1.14,4.4,0,0-3.05-3.17-8.06-3.36,1.43.44,5.76,2.28,7.24,4.06-2.1,2.22-5.52,4.33-9.58,6.2,1.51-.32,5.98-1.76,9.92-4.85-.38,2.25-1.18,6.42-6.36,12.9,1.44-1.11,7.03-7.48,7.66-12.97.35.76,1.91,3.45,2.3,9.08.24-1.76.57-6.13-1.41-9.7,1.32-.1,2.59-.17,5.24.68-.93-.67-3.05-2.01-5.89-1.77,0,0,.63-1.74,1.95-2.68,1.08-.77,2.69-.89,4.23-.02-.52.51-.7,1.04-.7,1.04,0,0,2.87,1.76,3.24,5.25-1.03,0-2.42.27-2.42.27,0,0,2.8,3.66,1.44,7.02-.53-.49-1.31-.88-1.31-.88,0,0,.26,5.57-5.31,8.08.21-1.02.08-4.66-1.09-4.34s-.63,2.54-3.35,3.94c-.08-.96-.28-1.7-.28-1.7,0,0-2.08,2.31-7.61,2.13.21-.89.34-4.09.34-4.09l-1.34.26s1.39-2.39.52-3.4c-.37-.44-.94-.55-1.56-.52.09-.09.17-.18.26-.28Z" fill="#003a15"/><path d="m161.12,83.65c.1-1.26-.37-2.49-1.25-3.38.11-.27.17-.56.2-.85.12-1.62-1.09-3.04-2.71-3.16-.22-.02-.44,0-.66.02-.38-.75-.96-1.38-1.65-1.83,0,0,0,0,0,0,0,0,0,0,0,0-.55-.36-1.18-.6-1.85-.7.14-1.48.38-3.17,1.51-4.45,1.46-1.67,2.07-1.15,1.92-1.85-.18-.7-.76-.88-.76-.88,0,0,2.87-1.44,5.47.06,1.43.7,3.24,2.72,3.24,2.72,0,0-4.03-.76-7.94,1.8,1.32-.43,5.61-1.38,7.69-.83-.4,2.82-1.85,6.27-3.92,9.88.97-1.06,3.59-4.56,4.91-9.04.93,1.91,2.57,5.51,2.14,13.23.49-1.61,1.29-9.48-1.19-13.99.68.38,3.31,1.58,6.65,5.66-.77-1.47-2.88-4.96-6.31-6.6.95-.79,1.87-1.52,4.35-2.31-1.07,0-3.4.12-5.43,1.84,0,0-.47-1.66.03-3.09.4-1.17,1.56-2.12,3.21-2.3-.12.67.03,1.17.03,1.17,0,0,3.13-.21,5.3,2.24-.79.55-1.7,1.51-1.7,1.51,0,0,4.1,1.26,4.89,4.55-.67-.08-1.47.04-1.47.04,0,0,3.21,4.09.33,9-.39-.89-2.46-3.58-3.17-2.71s.89,2.27-.41,4.8c-.58-.69-1.13-1.14-1.13-1.14,0,0-.33,2.88-4.63,5.72-.32-.79-1.95-3.29-1.95-3.29l-.88.92s-.23-2.56-1.44-2.87c-.52-.13-1.01.09-1.46.45.02-.12.03-.23.04-.35Z" fill="#003a15"/></svg>